<?xml version="1.0" encoding="UTF-8"?>
<svg version="1.1" xmlns="http://www.w3.org/2000/svg" width="512" height="512">
<path d="M0 0 C6.82411552 6.03774283 11.91703412 12.45602468 13 21.76953125 C13 25.06953125 13 28.36953125 13 31.76953125 C26.2 31.76953125 39.4 31.76953125 53 31.76953125 C53 28.13953125 53 24.50953125 53 20.76953125 C55.43184565 10.77194357 59.96046204 3.4627181 68.75390625 -2.0390625 C76.66854463 -6.23726199 84.75840761 -7.14004243 93.484375 -5.08203125 C102.14476689 -2.15040791 108.76996698 3.05641034 113.25 10.98046875 C116.75665873 18.50517393 116 22.68303376 116 31.76953125 C129.53 31.76953125 143.06 31.76953125 157 31.76953125 C157 27.47953125 157 23.18953125 157 18.76953125 C159.49449931 10.03878367 163.77545814 2.9982673 171.6484375 -1.8671875 C181.12904889 -6.50126786 189.86269349 -7.32877229 200 -4.23046875 C209.37541533 -0.11014933 215.04256267 6.39665335 219 15.76953125 C219.90349066 19.43300023 220.107885 22.81507613 220.0625 26.58203125 C220.05347656 27.55785156 220.04445313 28.53367188 220.03515625 29.5390625 C220.01775391 30.64314453 220.01775391 30.64314453 220 31.76953125 C220.99741211 31.7538208 221.99482422 31.73811035 223.02246094 31.72192383 C226.77970057 31.66696618 230.53690594 31.632946 234.29443359 31.60473633 C235.91005458 31.5897977 237.5256361 31.56943924 239.14111328 31.54321289 C253.84551978 31.31075017 266.72473553 32.04636586 277.96875 42.62109375 C285.06407823 50.16739623 288.10500884 58.41980451 288.15821838 68.66644287 C288.16315636 69.35998092 288.16809434 70.05351897 288.17318195 70.76807332 C288.18853562 73.09114806 288.19691178 75.41419521 288.20532227 77.73730469 C288.21490247 79.40290062 288.22491263 81.06849412 288.23532104 82.73408508 C288.26236079 87.25641575 288.28337541 91.77875685 288.30332303 96.30112362 C288.3251883 101.02704201 288.35257435 105.75292831 288.37937927 110.4788208 C288.42929882 119.42828496 288.4742404 128.37776695 288.51740164 137.32726598 C288.5667803 147.51581969 288.6216961 157.70434119 288.67708123 167.89286375 C288.79088996 188.85172291 288.89773143 209.81061282 289 230.76953125 C289.59360321 230.96096207 290.18720642 231.15239288 290.79879761 231.34962463 C293.53192872 232.23484666 296.26203383 233.12907681 298.9921875 234.0234375 C300.39247192 234.47475037 300.39247192 234.47475037 301.82104492 234.93518066 C313.70307658 238.84476913 323.8677194 244.46139701 333.73046875 252.203125 C336.62294386 254.2292193 336.62294386 254.2292193 340 254.76953125 C344.4718034 252.57827889 347.95533644 249.33127161 350 244.76953125 C350.91711941 239.61427779 350.92075945 234.46117336 350.80151367 229.23852539 C350.64984635 221.35869019 350.64984635 221.35869019 352.8828125 217.6015625 C356.15410431 214.77086904 358.54304452 214.37443147 362.89453125 214.4140625 C366.65569115 215.04906352 368.40291048 217.04575444 371 219.76953125 C372.25433458 223.53253499 372.10695422 227.04164034 372.0625 230.95703125 C372.05798828 231.70662109 372.05347656 232.45621094 372.04882812 233.22851562 C372.03706354 235.07555508 372.01912865 236.92255338 372 238.76953125 C373.73636719 238.68251953 373.73636719 238.68251953 375.5078125 238.59375 C377.04683448 238.5468286 378.58590033 238.50133099 380.125 238.45703125 C381.26582031 238.39418945 381.26582031 238.39418945 382.4296875 238.33007812 C386.48257422 238.24273143 389.22118755 238.47699146 392.51171875 240.9765625 C395.13299874 243.91881555 395.80190647 244.91583963 395.6875 248.76953125 C395.45880771 252.60584445 395.09442845 253.64447736 392.6875 256.83203125 C389.03989286 259.46170151 386.61206451 259.87426981 382.24609375 259.734375 C371.2189861 259.14581281 371.2189861 259.14581281 361.32421875 263.05859375 C358.93329583 265.5152584 356.88043149 267.90732751 355 270.76953125 C356.40163932 273.78271722 358.07362065 276.30049028 360.0625 278.95703125 C379.01471094 305.92444807 386.06958713 338.59539256 380.875 371.14453125 C375.16820294 402.33259679 357.43678362 430.26943696 331.85546875 449.08203125 C303.79447309 468.32207783 270.50661848 475.55426692 236.99951172 469.67163086 C214.04036673 465.17941896 194.10851462 454.50845163 177 438.76953125 C176.11570312 437.96773438 175.23140625 437.1659375 174.3203125 436.33984375 C163.41634841 425.97937943 155.35796812 413.33793249 149 399.76953125 C149 399.10953125 149 398.44953125 149 397.76953125 C148.25823957 397.77321842 147.51647915 397.77690559 146.75224113 397.7807045 C128.69950838 397.86906065 110.64681882 397.93524334 92.59391594 397.97677994 C83.86363838 397.9974009 75.1335052 398.02551253 66.40332031 398.07128906 C58.79364905 398.11117117 51.18408234 398.13696746 43.57430947 398.14588523 C39.54533768 398.15109768 35.51666503 398.16333889 31.48778915 398.19245148 C27.69403337 398.21964246 23.90069937 398.22796893 20.10685539 398.22196198 C18.71610279 398.22306058 17.3253358 398.23099293 15.93466759 398.24635315 C2.83077403 398.38396422 2.83077403 398.38396422 -2 393.76953125 C-3.89923626 390.71423814 -4 388.88426343 -4 385.26953125 C-2.98876179 381.73019752 -2.01289107 380.05970657 0.88081741 377.80336952 C5.64058815 375.48132649 11.16861764 376.07488982 16.34912109 376.11010742 C17.70960964 376.10164813 19.07008607 376.09100123 20.43054199 376.07833862 C24.11205706 376.05024218 27.79298849 376.05265476 31.47457838 376.06063247 C35.3263705 376.06376156 39.17797804 376.03871146 43.0296936 376.01667786 C50.31813318 375.97925213 57.60638618 375.96709075 64.89491236 375.96405345 C73.19486243 375.95936101 81.49462578 375.92643179 89.79449344 375.8911556 C106.8629819 375.81924223 123.9313672 375.78270773 141 375.76953125 C140.855625 375.01671875 140.71125 374.26390625 140.5625 373.48828125 C138.93770563 364.1908468 139 356.54008251 139 346.76953125 C61.12 346.76953125 -16.76 346.76953125 -97 346.76953125 C-97.02722763 365.75501805 -97.02722763 365.75501805 -89 373.76953125 C-86.58706565 375.13903453 -84.54630069 375.67520595 -81.828125 376.14453125 C-77.97750952 376.84921905 -75.53570989 377.33835012 -72.4375 379.83203125 C-70.45507778 383.88306796 -70.04618112 387.34509409 -71 391.76953125 C-73.18159145 394.52522572 -74.87177494 396.20541872 -78 397.76953125 C-87.52301002 398.66792842 -96.78146277 395.84902958 -104.4375 390.14453125 C-111.0769487 384.35795482 -116.53068883 376.17901606 -117.18820465 367.19917941 C-117.26743591 363.91801612 -117.28086912 360.64208708 -117.27415466 357.35995483 C-117.27939134 356.09739384 -117.28462802 354.83483285 -117.29002339 353.53401244 C-117.30417965 350.03622658 -117.30586713 346.53852967 -117.30542648 343.04071927 C-117.30707681 339.26549019 -117.32014746 335.49029753 -117.33161926 331.71508789 C-117.35445273 323.46283504 -117.36238825 315.21060793 -117.36744571 306.95832777 C-117.37070498 301.80258394 -117.37722889 296.64684756 -117.3844471 291.49110794 C-117.40401171 277.20792316 -117.42041645 262.92474529 -117.42332363 248.64154625 C-117.4235112 247.72781623 -117.42369877 246.81408622 -117.42389202 245.87266741 C-117.42425827 244.02041729 -117.42462197 242.16816718 -117.42498314 240.31591706 C-117.42516595 239.39649353 -117.42534876 238.47707 -117.42553711 237.52978516 C-117.42571766 236.60923531 -117.42589821 235.68868547 -117.42608423 234.74024017 C-117.42962443 219.83038698 -117.45663781 204.92067835 -117.494035 190.01087527 C-117.53214932 174.69217154 -117.55148134 159.37353947 -117.55178314 144.05478728 C-117.55236705 135.45833137 -117.56081566 126.86204788 -117.58978081 118.26563644 C-117.61433666 110.94430034 -117.6215494 103.62319951 -117.60653328 96.30183332 C-117.59938118 92.56959169 -117.6001474 88.83781426 -117.62294388 85.10562515 C-117.64747494 81.05041497 -117.63285066 76.99625337 -117.61473083 72.94100952 C-117.6279308 71.77386237 -117.64113077 70.60671521 -117.65473074 69.40419996 C-117.56197823 60.2849567 -115.29774056 51.80381352 -109.75 44.39453125 C-100.06787176 35.15249975 -89.48694291 31.57257673 -76.1953125 31.671875 C-75.1093428 31.67399742 -75.1093428 31.67399742 -74.00143433 31.67616272 C-71.70924593 31.6817205 -69.41715843 31.69426492 -67.125 31.70703125 C-65.56250142 31.71205172 -64.00000129 31.71661366 -62.4375 31.72070312 C-58.62496165 31.73167606 -54.81249788 31.74891115 -51 31.76953125 C-50.94666504 30.81546387 -50.89333008 29.86139648 -50.83837891 28.87841797 C-50.76022949 27.62303223 -50.68208008 26.36764648 -50.6015625 25.07421875 C-50.49062256 23.20999268 -50.49062256 23.20999268 -50.37744141 21.30810547 C-49.46314729 12.73645026 -45.1107459 6.64064005 -39 0.76953125 C-27.7150696 -7.98204743 -11.5567629 -8.73130432 0 0 Z M-26 17.76953125 C-30.37121584 22.28645428 -30.16675794 27.35207515 -30.203125 33.3515625 C-30.20882507 34.08396652 -30.21452515 34.81637054 -30.22039795 35.57096863 C-30.22982481 37.11834275 -30.23637272 38.66573674 -30.24023438 40.21313477 C-30.24992433 42.56367595 -30.28096179 44.91333623 -30.3125 47.26367188 C-30.3190326 48.77213026 -30.32428206 50.28059486 -30.328125 51.7890625 C-30.3404718 52.48409378 -30.3528186 53.17912506 -30.36553955 53.8952179 C-30.34005209 59.56211509 -29.235617 64.53391425 -25.125 68.64453125 C-22.58943197 69.98689079 -20.88341103 70.63222596 -18 70.76953125 C-13.85600772 69.19481418 -11.27514807 67.60135958 -9 63.76953125 C-7.771534 60.08413324 -7.81854216 56.65228598 -7.796875 52.8125 C-7.78832489 51.6416259 -7.78832489 51.6416259 -7.77960205 50.44709778 C-7.7701605 48.79539339 -7.76362142 47.14367023 -7.75976562 45.49194336 C-7.75007582 42.97671238 -7.71905199 40.46230434 -7.6875 37.94726562 C-7.68096786 36.33984858 -7.67571822 34.73242572 -7.671875 33.125 C-7.6595282 32.37792282 -7.6471814 31.63084564 -7.63446045 30.86112976 C-7.65467044 26.07573585 -8.48562628 22.83985588 -11 18.76953125 C-16.28142551 13.82884287 -19.72286279 14.45976799 -26 17.76953125 Z M77 17.76953125 C73.80432949 22.6862335 73.55754878 26.79349466 73.6015625 32.45703125 C73.59869232 33.27776123 73.59582214 34.09849121 73.59286499 34.9440918 C73.59083177 36.67204482 73.59630956 38.40002124 73.60888672 40.12792969 C73.62495159 42.76159495 73.60901342 45.39372579 73.58984375 48.02734375 C73.59182631 49.71224295 73.59567026 51.39714119 73.6015625 53.08203125 C73.59548981 53.86344482 73.58941711 54.6448584 73.5831604 55.44995117 C73.6445717 60.26187617 74.30421204 63.62192383 77 67.76953125 C80.94011675 70.19421848 83.07798632 70.8789227 87.6875 70.33203125 C91.84173153 68.37248807 92.87584256 66.82729672 95 62.76953125 C95.55865937 59.63527439 95.5615128 56.56819985 95.53125 53.390625 C95.53699036 52.05609032 95.53699036 52.05609032 95.54284668 50.69459534 C95.54555886 48.82120629 95.53824639 46.94777892 95.52148438 45.07446289 C95.50003868 42.21219358 95.5213219 39.35242682 95.546875 36.49023438 C95.5442321 34.66535906 95.53910789 32.84048531 95.53125 31.015625 C95.53934692 30.1634288 95.54744385 29.3112326 95.55578613 28.43321228 C95.49265695 24.42221509 95.30977709 22.27573518 93.17382812 18.78540039 C87.88847498 13.88410199 82.93930719 14.11457298 77 17.76953125 Z M179.31616211 19.29516602 C177.2708342 23.14035212 177.552129 26.88054559 177.56640625 31.171875 C177.5611644 32.08659073 177.55592255 33.00130646 177.55052185 33.94374084 C177.54410534 35.87613918 177.54543385 37.8085766 177.55395508 39.7409668 C177.56246031 42.69325543 177.53370669 45.64360583 177.50195312 48.59570312 C177.50034084 50.47525984 177.50091917 52.35481997 177.50390625 54.234375 C177.49267227 55.11471909 177.48143829 55.99506317 177.46986389 56.90208435 C177.51609045 60.9801698 177.66746579 63.21912209 179.81616211 66.77563477 C182.74906772 69.45344808 185.09748551 70.15334475 189 70.76953125 C193.03704959 69.83068251 195.34093889 67.9034247 198 64.76953125 C199.27442926 60.94624348 199.18195319 57.32541207 199.203125 53.33984375 C199.21167511 52.09882401 199.21167511 52.09882401 199.22039795 50.83273315 C199.22984023 49.08267493 199.23637887 47.33259898 199.24023438 45.58251953 C199.24993847 42.91146694 199.28096785 40.2411845 199.3125 37.5703125 C199.31903058 35.86849414 199.32428084 34.16667029 199.328125 32.46484375 C199.3404718 31.66885773 199.3528186 30.8728717 199.36553955 30.05276489 C199.34326876 24.48170469 198.09654993 21.43786753 194.625 17.01953125 C189.49148125 13.07067068 183.81234302 15.22141881 179.31616211 19.29516602 Z M-92.8125 58.51953125 C-97.29836323 65.18424234 -97.28684653 71.57641407 -97.24050903 79.36802673 C-97.24221788 80.42348066 -97.24392673 81.47893459 -97.24568737 82.56637198 C-97.24897665 86.09631942 -97.23798764 89.62607598 -97.22705078 93.15600586 C-97.22648655 95.68902583 -97.22680347 98.22204613 -97.22793579 100.75506592 C-97.22839095 106.2050665 -97.22272505 111.65500583 -97.21146011 117.10499382 C-97.19518371 124.98468065 -97.18999492 132.86434434 -97.18748413 140.74404616 C-97.18311038 153.52932843 -97.16980998 166.31458513 -97.15087891 179.09985352 C-97.13251181 191.51716995 -97.11838231 203.93447939 -97.10986328 216.35180664 C-97.10932729 217.12542894 -97.10879129 217.89905123 -97.10823905 218.69611663 C-97.10408004 224.74664183 -97.10016625 230.79716719 -97.09632993 236.84769261 C-97.07747359 266.48832896 -97.03723437 296.12890128 -97 325.76953125 C-18.46 325.76953125 60.08 325.76953125 141 325.76953125 C143.64 317.84953125 146.28 309.92953125 149 301.76953125 C164.05179432 270.39395999 188.37518106 246.76076473 221.34277344 234.92871094 C234.1066719 230.71732724 246.91082918 229.19386133 260.26464844 228.24707031 C261.52581482 228.15750061 262.7869812 228.06793091 264.08636475 227.97564697 C265.04786438 227.90762878 266.00936401 227.8396106 267 227.76953125 C267.07008127 206.62061913 267.12298388 185.47172616 267.15543652 164.32272148 C267.17090535 154.50286859 267.19199522 144.68308784 267.22631836 134.86328125 C267.25622017 126.30433165 267.27557488 117.7454343 267.28226548 109.18643391 C267.28617641 104.65450581 267.29536802 100.1227272 267.31719017 95.59084702 C267.33756765 91.32437992 267.34383125 87.05812376 267.33932304 82.79161263 C267.34014768 81.2267155 267.34610588 79.66181126 267.35761642 78.09695625 C267.37258072 75.9574359 267.36893986 73.81870806 267.36076355 71.6791687 C267.36352893 70.48268141 267.36629431 69.28619411 267.36914349 68.05344963 C266.81934807 63.16244294 265.18598309 59.89309418 261.625 56.51953125 C256.47685324 53.08743341 252.17888284 52.486441 246.07421875 52.57421875 C245.32662796 52.57704865 244.57903717 52.57987854 243.80879211 52.58279419 C241.4348612 52.59393656 239.06131575 52.61902963 236.6875 52.64453125 C235.0722711 52.65456876 233.45703624 52.66369326 231.84179688 52.671875 C227.89438406 52.69385636 223.94725726 52.72834468 220 52.76953125 C219.88100342 53.85999756 219.76200684 54.95046387 219.6394043 56.07397461 C219.47223974 57.52332062 219.30465565 58.97261828 219.13671875 60.421875 C219.0211261 61.496651 219.0211261 61.496651 218.90319824 62.59313965 C217.86871487 71.34742389 214.49645986 78.30724897 207.9375 84.30078125 C200.73834568 89.75820469 192.55770762 91.28236363 183.65234375 90.5859375 C175.76499499 89.2366027 168.55051565 85.16659053 163.5625 78.89453125 C157.78775163 70.21609584 157.79595769 63.91293889 157 52.76953125 C143.47 52.76953125 129.94 52.76953125 116 52.76953125 C115.67 57.38953125 115.34 62.00953125 115 66.76953125 C111.99199298 76.46199833 108.25798146 82.27098231 99.25 87.14453125 C90.46354446 91.20148727 82.24056973 91.83963871 73 88.76953125 C64.35523076 84.60611349 58.83740042 78.48146733 55 69.76953125 C54.01 61.35453125 54.01 61.35453125 53 52.76953125 C39.8 52.76953125 26.6 52.76953125 13 52.76953125 C12.34 58.04953125 11.68 63.32953125 11 68.76953125 C7.79447096 77.31760869 3.06141868 83.37324997 -5.0078125 87.89453125 C-14.29217587 91.80373688 -23.68062833 91.29647578 -33 87.76953125 C-39.69519922 84.1523263 -45.28149914 78.27882414 -48.00634766 71.12890625 C-49.10668034 67.40886259 -49.67115163 63.73364208 -50.125 59.89453125 C-50.21136719 59.20617187 -50.29773438 58.5178125 -50.38671875 57.80859375 C-50.59659566 56.1295785 -50.79907087 54.44964077 -51 52.76953125 C-55.42908378 52.69492891 -59.8578269 52.64071754 -64.28735352 52.60473633 C-65.79165017 52.58972403 -67.29590361 52.56930772 -68.80004883 52.54321289 C-70.97227696 52.50649309 -73.14392251 52.48972964 -75.31640625 52.4765625 C-76.62037354 52.46085205 -77.92434082 52.4451416 -79.26782227 52.42895508 C-84.91774276 52.94453296 -88.68104063 54.47988208 -92.8125 58.51953125 Z M184.4765625 283.51953125 C165.43204795 305.8789613 157.99990793 331.82510945 160 360.76953125 C162.54832133 387.09640644 177.45681492 410.62747931 197 427.76953125 C217.70762383 444.7471718 243.92625663 452.5820072 270.48828125 450.30078125 C297.85479449 447.37854431 322.15797754 433.44230939 339.74951172 412.35205078 C350.31373621 398.98279988 356.62416467 383.30386449 360 366.76953125 C360.19335938 365.84011719 360.38671875 364.91070312 360.5859375 363.953125 C363.87935375 338.63110386 357.95181924 314.00640447 344 292.76953125 C342.38610247 290.71547984 340.7114356 288.74494912 339 286.76953125 C333.21686307 291.57274775 327.79392007 296.69326996 322.44482422 301.97460938 C321.47251737 302.93015798 320.49485256 303.88028182 319.51220703 304.82519531 C318.07964025 306.20330087 316.66449902 307.59944955 315.25 308.99609375 C314.40953125 309.81674316 313.5690625 310.63739258 312.703125 311.48291016 C310.75506495 313.57907903 310.75506495 313.57907903 311.15063477 315.88549805 C312.86683034 319.69230497 314.68353476 323.44098886 316.52734375 327.1875 C322.49615263 341.7057964 321.80447226 359.34023186 316 373.76953125 C309.80259702 388.45598141 298.28665488 399.52000974 283.625 405.51953125 C266.86739517 411.57954881 249.9249283 411.16337371 233.4375 404.05859375 C228.56831497 401.48354397 224.27024816 398.22922305 220 394.76953125 C219.02546875 393.98642578 219.02546875 393.98642578 218.03125 393.1875 C207.81906899 384.01974659 201.39075806 368.97772922 200.625 355.51953125 C200.05034428 337.99253164 203.59895106 323.04929248 215.3125 309.51953125 C227.66985923 296.5020126 242.26974345 289.90120338 260.3125 289.33203125 C273.76384308 289.65098062 283.84007371 293.68956811 296 299.76953125 C309.365 286.40453125 309.365 286.40453125 323 272.76953125 C318.51043367 263.79039859 304.06213193 258.18956825 295 254.76953125 C253.96114135 241.73490019 213.67565806 251.69884507 184.4765625 283.51953125 Z M227.50390625 326.65234375 C220.8202115 336.06159714 220.01615848 346.58451738 221 357.76953125 C223.21392362 368.62575914 229.81461223 376.79469855 238.59765625 383.265625 C247.58120994 388.88947569 257.74260697 391.34136761 268.15625 389.0859375 C279.78649951 385.81153314 288.91812968 380.21814066 295.25 369.69140625 C300.37215745 359.82372058 301.89113603 349.11207245 299.1015625 338.28125 C298.1637102 335.71712191 297.1701941 333.23529739 296 330.76953125 C291.91709903 332.38504572 289.21566164 335.31592821 286.2109375 338.3984375 C285.66643951 338.94813705 285.12194153 339.49783661 284.5609436 340.06419373 C282.82746221 341.81544301 281.10083449 343.57324813 279.375 345.33203125 C277.64115848 347.09348936 275.90587817 348.85346748 274.16763306 350.61058044 C273.08752633 351.7029463 272.01010397 352.79797421 270.93563843 353.89588928 C267.40271797 357.47614356 265.63988934 358.91956668 260.625 359.01953125 C257.61935103 358.98570562 256.20183771 358.87549605 253.5 357.45703125 C251.32899576 355.01465148 251.00069434 352.77395765 250.5 349.58203125 C251.70910434 340.36261066 262.9663324 332.68524664 269.4375 326.26953125 C270.4657298 325.24632986 271.49372626 324.22289392 272.52148438 323.19921875 C275.01164338 320.71995126 277.50492833 318.24385587 280 315.76953125 C262.61342812 302.32461438 240.18933601 311.5240122 227.50390625 326.65234375 Z " fill="#000000" transform="translate(117,23.23046875)"/>
<path d="M0 0 C1.83749565 -0.02409439 1.83749565 -0.02409439 3.71211243 -0.04867554 C5.05570787 -0.06016262 6.39931108 -0.07077122 7.74291992 -0.08056641 C8.41886389 -0.08589008 9.09480785 -0.09121376 9.79123497 -0.09669876 C13.36960084 -0.12342336 16.94793192 -0.14279965 20.52636719 -0.15722656 C23.48599166 -0.1705637 26.44492627 -0.19841074 29.40429688 -0.23925781 C32.97932944 -0.28860211 36.55373651 -0.31334946 40.12909508 -0.32045364 C41.48987339 -0.3271621 42.85063798 -0.3423741 44.21122169 -0.36634445 C56.2019047 -0.56552535 56.2019047 -0.56552535 59.47216797 2.53808594 C61.9238959 6.39237096 62.29109057 9.19573173 62.32202148 13.6706543 C62.33162903 14.79224442 62.34123657 15.91383453 62.35113525 17.06941223 C62.35538513 18.28191147 62.35963501 19.49441071 62.36401367 20.74365234 C62.36971375 21.99035202 62.37541382 23.2370517 62.38128662 24.52153015 C62.39074033 27.16193288 62.3976352 29.80222185 62.40112305 32.44262695 C62.40551304 35.1458889 62.41942434 37.84883262 62.44213867 40.55200195 C62.47259946 44.44931742 62.48317124 48.3462311 62.48901367 52.24365234 C62.50136047 53.45007889 62.51370728 54.65650543 62.52642822 55.89949036 C62.49814985 66.55697152 62.49814985 66.55697152 59.16088867 71.19287109 C55.68747852 73.50847786 54.30981652 73.4544374 50.20825195 73.48339844 C48.3708696 73.50253799 48.3708696 73.50253799 46.49636841 73.52206421 C45.15798093 73.52512188 43.81959134 73.52734963 42.48120117 73.52880859 C41.10741029 73.53523657 39.73362077 73.54196493 38.35983276 73.54898071 C35.47984647 73.56095533 32.59998014 73.56466141 29.7199707 73.56347656 C26.03549468 73.56327346 22.35179077 73.59056434 18.66749763 73.62502098 C15.82954398 73.64729687 12.99177586 73.6513139 10.15374374 73.65025711 C8.79579891 73.65261248 7.43784892 73.66143258 6.07999039 73.67692184 C4.17753331 73.69658976 2.27484943 73.68821918 0.37231445 73.67871094 C-0.70895721 73.68156097 -1.79022888 73.68441101 -2.90426636 73.68734741 C-6.54298325 73.07427948 -8.20806999 71.72752917 -10.83911133 69.19287109 C-12.17633404 66.51842567 -11.98840854 64.44037515 -12.01611328 61.44555664 C-12.02894852 60.24058029 -12.04178375 59.03560394 -12.05500793 57.79411316 C-12.06239487 56.48582047 -12.0697818 55.17752777 -12.07739258 53.82958984 C-12.08146811 53.16467844 -12.08554363 52.49976704 -12.08974266 51.8147068 C-12.11060213 48.29468725 -12.12490374 44.77470666 -12.13427734 41.25463867 C-12.1453356 37.62286252 -12.17972793 33.99170015 -12.21944904 30.3601408 C-12.24562507 27.56424336 -12.25397003 24.76849187 -12.25755882 21.97248268 C-12.26478428 19.98438922 -12.29122011 17.99639556 -12.31794739 16.00846863 C-12.31502182 14.7940358 -12.31209625 13.57960297 -12.30908203 12.32836914 C-12.31494827 11.26184616 -12.32081451 10.19532318 -12.32685852 9.09648132 C-11.71863619 5.47566994 -10.35850842 3.8125385 -7.83911133 1.19287109 C-5.14474698 -0.15431108 -3.0168306 0.03586066 0 0 Z M9.16088867 21.19287109 C9.16088867 31.42287109 9.16088867 41.65287109 9.16088867 52.19287109 C19.72088867 52.19287109 30.28088867 52.19287109 41.16088867 52.19287109 C41.16088867 41.96287109 41.16088867 31.73287109 41.16088867 21.19287109 C30.60088867 21.19287109 20.04088867 21.19287109 9.16088867 21.19287109 Z " fill="#000000" transform="translate(72.839111328125,242.80712890625)"/>
<path d="M0 0 C1.20174866 -0.01606293 2.40349731 -0.03212585 3.6416626 -0.04867554 C9.14505867 -0.0930516 14.64832299 -0.13463735 20.15185547 -0.15722656 C23.0561482 -0.17055236 25.95973604 -0.19837781 28.86376953 -0.23925781 C32.37397004 -0.28866904 35.88353244 -0.31335789 39.39406586 -0.32045364 C41.37607992 -0.3304003 43.35792428 -0.36462563 45.33966064 -0.39926147 C55.38479346 -0.37568604 55.38479346 -0.37568604 59.07226562 2.47558594 C62.28886954 6.45522151 62.39347382 9.56172464 62.4296875 14.5847168 C62.43929504 15.66296219 62.44890259 16.74120758 62.45880127 17.85212708 C62.46305115 19.01258041 62.46730103 20.17303375 62.47167969 21.36865234 C62.47737976 22.56717331 62.48307983 23.76569427 62.48895264 25.00053406 C62.49839769 27.53656126 62.50493465 30.07260071 62.50878906 32.60864258 C62.5184912 36.48003649 62.54951886 40.35089871 62.58105469 44.22216797 C62.58758534 46.68765961 62.59283557 49.15315505 62.59667969 51.61865234 C62.60902649 52.77303299 62.62137329 53.92741364 62.63409424 55.11677551 C62.61723632 61.2266672 62.39548384 65.86729126 59.26855469 71.19287109 C55.79514453 73.50847786 54.41748254 73.4544374 50.31591797 73.48339844 C48.47853561 73.50253799 48.47853561 73.50253799 46.60403442 73.52206421 C45.26564695 73.52512188 43.92725736 73.52734963 42.58886719 73.52880859 C41.2150763 73.53523657 39.84128679 73.54196493 38.46749878 73.54898071 C35.58751249 73.56095533 32.70764615 73.56466141 29.82763672 73.56347656 C26.1431607 73.56327346 22.45945679 73.59056434 18.77516365 73.62502098 C15.93721 73.64729687 13.09944188 73.6513139 10.26140976 73.65025711 C8.90346493 73.65261248 7.54551494 73.66143258 6.1876564 73.67692184 C4.28519933 73.69658976 2.38251545 73.68821918 0.47998047 73.67871094 C-0.6012912 73.68156097 -1.68256287 73.68441101 -2.79660034 73.68734741 C-6.43531723 73.07427948 -8.10040398 71.72752917 -10.73144531 69.19287109 C-12.06866802 66.51842567 -11.88074253 64.44037515 -11.90844727 61.44555664 C-11.9212825 60.24058029 -11.93411774 59.03560394 -11.94734192 57.79411316 C-11.95472885 56.48582047 -11.96211578 55.17752777 -11.96972656 53.82958984 C-11.97380209 53.16467844 -11.97787762 52.49976704 -11.98207664 51.8147068 C-12.00293611 48.29468725 -12.01723772 44.77470666 -12.02661133 41.25463867 C-12.03766959 37.62286252 -12.07206191 33.99170015 -12.11178303 30.3601408 C-12.13795905 27.56424336 -12.14630401 24.76849187 -12.14989281 21.97248268 C-12.15711826 19.98438922 -12.18355409 17.99639556 -12.21028137 16.00846863 C-12.2073558 14.7940358 -12.20443024 13.57960297 -12.20141602 12.32836914 C-12.20728226 11.26184616 -12.2131485 10.19532318 -12.2191925 9.09648132 C-11.61097017 5.47566994 -10.2508424 3.8125385 -7.73144531 1.19287109 C-5.06322444 -0.14123934 -2.98792456 0.03621263 0 0 Z M9.26855469 21.19287109 C9.26855469 31.42287109 9.26855469 41.65287109 9.26855469 52.19287109 C19.82855469 52.19287109 30.38855469 52.19287109 41.26855469 52.19287109 C41.26855469 41.96287109 41.26855469 31.73287109 41.26855469 21.19287109 C30.70855469 21.19287109 20.14855469 21.19287109 9.26855469 21.19287109 Z " fill="#000000" transform="translate(176.7314453125,242.80712890625)"/>
<path d="M0 0 C1.83749565 -0.02409439 1.83749565 -0.02409439 3.71211243 -0.04867554 C5.05570787 -0.06016262 6.39931108 -0.07077122 7.74291992 -0.08056641 C8.41886389 -0.08589008 9.09480785 -0.09121376 9.79123497 -0.09669876 C13.36960084 -0.12342336 16.94793192 -0.14279965 20.52636719 -0.15722656 C23.48599166 -0.1705637 26.44492627 -0.19841074 29.40429688 -0.23925781 C32.97932944 -0.28860211 36.55373651 -0.31334946 40.12909508 -0.32045364 C41.48987339 -0.3271621 42.85063798 -0.3423741 44.21122169 -0.36634445 C56.2019047 -0.56552535 56.2019047 -0.56552535 59.47216797 2.53808594 C61.9238959 6.39237096 62.29109057 9.19573173 62.32202148 13.6706543 C62.33162903 14.79224442 62.34123657 15.91383453 62.35113525 17.06941223 C62.35538513 18.28191147 62.35963501 19.49441071 62.36401367 20.74365234 C62.36971375 21.99035202 62.37541382 23.2370517 62.38128662 24.52153015 C62.39074033 27.16193288 62.3976352 29.80222185 62.40112305 32.44262695 C62.40551304 35.1458889 62.41942434 37.84883262 62.44213867 40.55200195 C62.47259946 44.44931742 62.48317124 48.3462311 62.48901367 52.24365234 C62.50136047 53.45007889 62.51370728 54.65650543 62.52642822 55.89949036 C62.49814985 66.55697152 62.49814985 66.55697152 59.16088867 71.19287109 C55.68747852 73.50847786 54.30981652 73.4544374 50.20825195 73.48339844 C48.3708696 73.50253799 48.3708696 73.50253799 46.49636841 73.52206421 C45.15798093 73.52512188 43.81959134 73.52734963 42.48120117 73.52880859 C41.10741029 73.53523657 39.73362077 73.54196493 38.35983276 73.54898071 C35.47984647 73.56095533 32.59998014 73.56466141 29.7199707 73.56347656 C26.03549468 73.56327346 22.35179077 73.59056434 18.66749763 73.62502098 C15.82954398 73.64729687 12.99177586 73.6513139 10.15374374 73.65025711 C8.79579891 73.65261248 7.43784892 73.66143258 6.07999039 73.67692184 C4.17753331 73.69658976 2.27484943 73.68821918 0.37231445 73.67871094 C-0.70895721 73.68156097 -1.79022888 73.68441101 -2.90426636 73.68734741 C-6.54298325 73.07427948 -8.20806999 71.72752917 -10.83911133 69.19287109 C-12.17633404 66.51842567 -11.98840854 64.44037515 -12.01611328 61.44555664 C-12.02894852 60.24058029 -12.04178375 59.03560394 -12.05500793 57.79411316 C-12.06239487 56.48582047 -12.0697818 55.17752777 -12.07739258 53.82958984 C-12.08146811 53.16467844 -12.08554363 52.49976704 -12.08974266 51.8147068 C-12.11060213 48.29468725 -12.12490374 44.77470666 -12.13427734 41.25463867 C-12.1453356 37.62286252 -12.17972793 33.99170015 -12.21944904 30.3601408 C-12.24562507 27.56424336 -12.25397003 24.76849187 -12.25755882 21.97248268 C-12.26478428 19.98438922 -12.29122011 17.99639556 -12.31794739 16.00846863 C-12.31502182 14.7940358 -12.31209625 13.57960297 -12.30908203 12.32836914 C-12.31494827 11.26184616 -12.32081451 10.19532318 -12.32685852 9.09648132 C-11.71863619 5.47566994 -10.35850842 3.8125385 -7.83911133 1.19287109 C-5.14474698 -0.15431108 -3.0168306 0.03586066 0 0 Z M9.16088867 20.19287109 C9.16088867 30.75287109 9.16088867 41.31287109 9.16088867 52.19287109 C19.72088867 52.19287109 30.28088867 52.19287109 41.16088867 52.19287109 C41.16088867 41.63287109 41.16088867 31.07287109 41.16088867 20.19287109 C30.60088867 20.19287109 20.04088867 20.19287109 9.16088867 20.19287109 Z " fill="#000000" transform="translate(72.839111328125,143.80712890625)"/>
<path d="M0 0 C1.83749565 -0.02409439 1.83749565 -0.02409439 3.71211243 -0.04867554 C5.05570787 -0.06016262 6.39931108 -0.07077122 7.74291992 -0.08056641 C8.41886389 -0.08589008 9.09480785 -0.09121376 9.79123497 -0.09669876 C13.36960084 -0.12342336 16.94793192 -0.14279965 20.52636719 -0.15722656 C23.48599166 -0.1705637 26.44492627 -0.19841074 29.40429688 -0.23925781 C32.97932944 -0.28860211 36.55373651 -0.31334946 40.12909508 -0.32045364 C41.48987339 -0.3271621 42.85063798 -0.3423741 44.21122169 -0.36634445 C56.19907421 -0.56547833 56.19907421 -0.56547833 59.47216797 2.47558594 C62.01305464 6.56407352 62.28708513 9.84887033 62.30615234 14.61645508 C62.3125322 15.70115585 62.31891205 16.78585663 62.32548523 17.90342712 C62.32659805 19.07015457 62.32771088 20.23688202 62.32885742 21.43896484 C62.33385002 23.24386131 62.33385002 23.24386131 62.33894348 25.08522034 C62.34400555 27.62964496 62.34635203 30.17407621 62.34619141 32.71850586 C62.34837822 36.61176475 62.36654281 40.50474045 62.38549805 44.39794922 C62.38843203 46.86995346 62.39041679 49.34195904 62.39135742 51.81396484 C62.4021357 53.56101967 62.4021357 53.56101967 62.41313171 55.34336853 C62.41005508 56.43122147 62.40697845 57.5190744 62.40380859 58.63989258 C62.40523361 59.59379379 62.40665863 60.54769501 62.40812683 61.53050232 C62.0042553 65.87956781 60.99855177 68.34190525 57.91638184 71.47302246 C54.67814934 73.49417418 52.86528305 73.69903668 49.07299805 73.71044922 C47.86824829 73.72305786 46.66349854 73.7356665 45.42224121 73.74865723 C44.12943237 73.7405603 42.83662354 73.73246338 41.50463867 73.72412109 C40.15612509 73.7268181 38.8076134 73.73070226 37.45910645 73.73571777 C34.63799456 73.7416032 31.81739056 73.73308177 28.99633789 73.71435547 C25.38805462 73.69156524 21.78096151 73.70469363 18.17272186 73.72864532 C15.38961897 73.74312992 12.60679623 73.7384854 9.82368469 73.72813416 C7.84896061 73.72418474 5.87422544 73.73628965 3.89953613 73.74865723 C2.69478638 73.73604858 1.49003662 73.72343994 0.2487793 73.71044922 C-0.80869507 73.70726685 -1.86616943 73.70408447 -2.95568848 73.70080566 C-6.5508724 73.06748953 -8.230216 71.69492942 -10.83911133 69.19287109 C-12.17633404 66.51842567 -11.98840854 64.44037515 -12.01611328 61.44555664 C-12.02894852 60.24058029 -12.04178375 59.03560394 -12.05500793 57.79411316 C-12.06239487 56.48582047 -12.0697818 55.17752777 -12.07739258 53.82958984 C-12.08146811 53.16467844 -12.08554363 52.49976704 -12.08974266 51.8147068 C-12.11060213 48.29468725 -12.12490374 44.77470666 -12.13427734 41.25463867 C-12.1453356 37.62286252 -12.17972793 33.99170015 -12.21944904 30.3601408 C-12.24562507 27.56424336 -12.25397003 24.76849187 -12.25755882 21.97248268 C-12.26478428 19.98438922 -12.29122011 17.99639556 -12.31794739 16.00846863 C-12.31502182 14.7940358 -12.31209625 13.57960297 -12.30908203 12.32836914 C-12.31494827 11.26184616 -12.32081451 10.19532318 -12.32685852 9.09648132 C-11.71863619 5.47566994 -10.35850842 3.8125385 -7.83911133 1.19287109 C-5.14474698 -0.15431108 -3.0168306 0.03586066 0 0 Z M9.16088867 20.19287109 C9.16088867 30.75287109 9.16088867 41.31287109 9.16088867 52.19287109 C19.72088867 52.19287109 30.28088867 52.19287109 41.16088867 52.19287109 C41.16088867 41.63287109 41.16088867 31.07287109 41.16088867 20.19287109 C30.60088867 20.19287109 20.04088867 20.19287109 9.16088867 20.19287109 Z " fill="#000000" transform="translate(176.839111328125,143.80712890625)"/>
<path d="M0 0 C1.83749565 -0.02409439 1.83749565 -0.02409439 3.71211243 -0.04867554 C5.05570787 -0.06016262 6.39931108 -0.07077122 7.74291992 -0.08056641 C8.41886389 -0.08589008 9.09480785 -0.09121376 9.79123497 -0.09669876 C13.36960084 -0.12342336 16.94793192 -0.14279965 20.52636719 -0.15722656 C23.48599166 -0.1705637 26.44492627 -0.19841074 29.40429688 -0.23925781 C32.97932944 -0.28860211 36.55373651 -0.31334946 40.12909508 -0.32045364 C41.48987339 -0.3271621 42.85063798 -0.3423741 44.21122169 -0.36634445 C54.6927296 -0.54045598 54.6927296 -0.54045598 59.49536133 1.85839844 C62.26125097 7.39585384 61.85130518 12.96852026 61.78979492 19.06787109 C61.79062425 20.438804 61.79308603 21.8097368 61.79710388 23.18066406 C61.7999574 26.04897111 61.78530659 28.91649535 61.7578125 31.78466797 C61.72372862 35.45351816 61.72975112 39.12096929 61.74847507 42.78988647 C61.75906522 45.61933974 61.75008936 48.44846982 61.73509026 51.27789307 C61.72741734 53.28583477 61.73474952 55.29381574 61.74232483 57.30175781 C61.72648849 58.52652832 61.71065216 59.75129883 61.69433594 61.01318359 C61.68813736 62.08842285 61.68193878 63.16366211 61.67555237 64.27148438 C61.03820399 67.88926645 59.68186224 69.5699213 57.16088867 72.19287109 C54.48644325 73.53009381 52.40839273 73.34216831 49.41357422 73.36987305 C48.20859787 73.38270828 47.00362152 73.39554352 45.76213074 73.4087677 C43.7996917 73.4198481 43.7996917 73.4198481 41.79760742 73.43115234 C40.80024032 73.43726563 40.80024032 73.43726563 39.78272438 73.44350243 C36.26270483 73.46436189 32.74272424 73.4786635 29.22265625 73.48803711 C25.5908801 73.49909537 21.95971773 73.53348769 18.32815838 73.57320881 C15.53226094 73.59938483 12.73650945 73.60772979 9.94050026 73.61131859 C7.9524068 73.61854404 5.96441314 73.64497987 3.97648621 73.67170715 C2.76205338 73.66878159 1.54762054 73.66585602 0.29638672 73.6628418 C-1.30339775 73.67164116 -1.30339775 73.67164116 -2.9355011 73.68061829 C-6.55631248 73.07239595 -8.21944392 71.71226818 -10.83911133 69.19287109 C-12.17633404 66.51842567 -11.98840854 64.44037515 -12.01611328 61.44555664 C-12.02894852 60.24058029 -12.04178375 59.03560394 -12.05500793 57.79411316 C-12.06239487 56.48582047 -12.0697818 55.17752777 -12.07739258 53.82958984 C-12.08146811 53.16467844 -12.08554363 52.49976704 -12.08974266 51.8147068 C-12.11060213 48.29468725 -12.12490374 44.77470666 -12.13427734 41.25463867 C-12.1453356 37.62286252 -12.17972793 33.99170015 -12.21944904 30.3601408 C-12.24562507 27.56424336 -12.25397003 24.76849187 -12.25755882 21.97248268 C-12.26478428 19.98438922 -12.29122011 17.99639556 -12.31794739 16.00846863 C-12.31502182 14.7940358 -12.31209625 13.57960297 -12.30908203 12.32836914 C-12.31494827 11.26184616 -12.32081451 10.19532318 -12.32685852 9.09648132 C-11.71863619 5.47566994 -10.35850842 3.8125385 -7.83911133 1.19287109 C-5.14474698 -0.15431108 -3.0168306 0.03586066 0 0 Z M9.16088867 20.19287109 C9.16088867 30.75287109 9.16088867 41.31287109 9.16088867 52.19287109 C19.39088867 52.19287109 29.62088867 52.19287109 40.16088867 52.19287109 C40.16088867 41.63287109 40.16088867 31.07287109 40.16088867 20.19287109 C29.93088867 20.19287109 19.70088867 20.19287109 9.16088867 20.19287109 Z " fill="#000000" transform="translate(280.839111328125,143.80712890625)"/>
<path d="M0 0 C2.8100346 1.79363911 4.50940468 3.01880935 6 6 C6.42071592 9.05920574 6.48514117 11.9467746 6 15 C3.81840855 17.75569447 2.12822506 19.43588747 -1 21 C-4.75343691 21.42652692 -6.79335599 21.09537416 -10.25 19.5 C-13.32566126 16.70394431 -14.21134119 15.02977051 -14.94921875 11.02734375 C-15.05464791 6.81828719 -13.01918893 4.13243214 -10.3125 1.125 C-6.90223105 -0.53404976 -3.67120981 -0.67742562 0 0 Z " fill="#000000" transform="translate(84,400)"/>
</svg>
