<svg width="1080" height="80" viewBox="0 0 1080 80" fill="none" xmlns="http://www.w3.org/2000/svg">
  <!-- Left ornate pattern -->
  <g transform="translate(40, 40)">
    <!-- Central flourish -->
    <path d="M0,0 Q-15,-20 -25,-15 Q-20,-5 0,0 Q20,-5 25,-15 Q15,-20 0,0" fill="#D4AF87" stroke="#D4AF87" stroke-width="1"/>
    
    <!-- Top leaf -->
    <path d="M0,-5 Q-8,-15 -10,-22 Q-8,-20 0,-12 Q8,-20 10,-22 Q8,-15 0,-5" fill="#D4AF87"/>
    
    <!-- Bottom leaf -->
    <path d="M0,5 Q-8,15 -10,22 Q-8,20 0,12 Q8,20 10,22 Q8,15 0,5" fill="#D4AF87"/>
    
    <!-- Left flourish -->
    <path d="M-5,0 Q-18,-8 -28,-6 Q-22,-2 -15,0 Q-22,2 -28,6 Q-18,8 -5,0" fill="#D4AF87"/>
    
    <!-- Right flourish -->
    <path d="M5,0 Q18,-8 28,-6 Q22,-2 15,0 Q22,2 28,6 Q18,8 5,0" fill="#D4AF87"/>
    
    <!-- Decorative dots -->
    <circle cx="-35" cy="0" r="2" fill="#D4AF87"/>
    <circle cx="35" cy="0" r="2" fill="#D4AF87"/>
    <circle cx="0" cy="-28" r="2" fill="#D4AF87"/>
    <circle cx="0" cy="28" r="2" fill="#D4AF87"/>
    
    <!-- Inner swirls -->
    <path d="M-12,-12 Q-18,-18 -15,-22 Q-12,-18 -8,-14" stroke="#D4AF87" stroke-width="1.5" fill="none" stroke-linecap="round"/>
    <path d="M12,-12 Q18,-18 15,-22 Q12,-18 8,-14" stroke="#D4AF87" stroke-width="1.5" fill="none" stroke-linecap="round"/>
    <path d="M-12,12 Q-18,18 -15,22 Q-12,18 -8,14" stroke="#D4AF87" stroke-width="1.5" fill="none" stroke-linecap="round"/>
    <path d="M12,12 Q18,18 15,22 Q12,18 8,14" stroke="#D4AF87" stroke-width="1.5" fill="none" stroke-linecap="round"/>
  </g>
  
  <!-- Main horizontal line (left side) -->
  <line x1="90" y1="40" x2="400" y2="40" stroke="#D4AF87" stroke-width="2"/>
  
  <!-- Main horizontal line (right side) -->
  <line x1="680" y1="40" x2="990" y2="40" stroke="#D4AF87" stroke-width="2"/>
  
  <!-- Right ornate pattern (mirrored) -->
  <g transform="translate(1040, 40) scale(-1, 1)">
    <!-- Central flourish -->
    <path d="M0,0 Q-15,-20 -25,-15 Q-20,-5 0,0 Q20,-5 25,-15 Q15,-20 0,0" fill="#D4AF87" stroke="#D4AF87" stroke-width="1"/>
    
    <!-- Top leaf -->
    <path d="M0,-5 Q-8,-15 -10,-22 Q-8,-20 0,-12 Q8,-20 10,-22 Q8,-15 0,-5" fill="#D4AF87"/>
    
    <!-- Bottom leaf -->
    <path d="M0,5 Q-8,15 -10,22 Q-8,20 0,12 Q8,20 10,22 Q8,15 0,5" fill="#D4AF87"/>
    
    <!-- Left flourish -->
    <path d="M-5,0 Q-18,-8 -28,-6 Q-22,-2 -15,0 Q-22,2 -28,6 Q-18,8 -5,0" fill="#D4AF87"/>
    
    <!-- Right flourish -->
    <path d="M5,0 Q18,-8 28,-6 Q22,-2 15,0 Q22,2 28,6 Q18,8 5,0" fill="#D4AF87"/>
    
    <!-- Decorative dots -->
    <circle cx="-35" cy="0" r="2" fill="#D4AF87"/>
    <circle cx="35" cy="0" r="2" fill="#D4AF87"/>
    <circle cx="0" cy="-28" r="2" fill="#D4AF87"/>
    <circle cx="0" cy="28" r="2" fill="#D4AF87"/>
    
    <!-- Inner swirls -->
    <path d="M-12,-12 Q-18,-18 -15,-22 Q-12,-18 -8,-14" stroke="#D4AF87" stroke-width="1.5" fill="none" stroke-linecap="round"/>
    <path d="M12,-12 Q18,-18 15,-22 Q12,-18 8,-14" stroke="#D4AF87" stroke-width="1.5" fill="none" stroke-linecap="round"/>
    <path d="M-12,12 Q-18,18 -15,22 Q-12,18 -8,14" stroke="#D4AF87" stroke-width="1.5" fill="none" stroke-linecap="round"/>
    <path d="M12,12 Q18,18 15,22 Q12,18 8,14" stroke="#D4AF87" stroke-width="1.5" fill="none" stroke-linecap="round"/>
  </g>
  
  <!-- Center area remains plain for text (x: 400-680) -->
</svg>
