<?xml version="1.0" encoding="UTF-8"?>
<svg version="1.1" xmlns="http://www.w3.org/2000/svg" width="512" height="512">
<path d="M0 0 C10.06242953 8.82107826 18.32437179 18.40074651 25 30 C25.33467285 30.58104492 25.6693457 31.16208984 26.01416016 31.76074219 C33.67293706 45.37378625 39.09027224 61.2818509 39 77 C40.03570381 76.99333817 40.03570381 76.99333817 41.09233093 76.98654175 C48.27857392 76.94229553 55.46477821 76.9121281 62.65112305 76.89013672 C65.33313646 76.88120885 68.01505515 76.86729282 70.69702148 76.84912109 C74.5519481 76.82486281 78.40672973 76.81351441 82.26171875 76.8046875 C84.06040657 76.78920364 84.06040657 76.78920364 85.89543152 76.77340698 C87.01621597 76.77325592 88.13700043 76.77310486 89.29174805 76.77294922 C90.27547897 76.768508 91.2592099 76.76406677 92.27275085 76.75949097 C95.24845133 77.02191028 97.34935798 77.62887927 100 79 C102.27121709 82.40682564 102.24468887 83.57797184 102.22705078 87.57299805 C102.22689972 88.71395432 102.22674866 89.85491058 102.22659302 91.03044128 C102.21627045 92.26176285 102.20594788 93.49308441 102.1953125 94.76171875 C102.19106766 96.65311333 102.19106766 96.65311333 102.18673706 98.5827179 C102.17743125 101.93160422 102.15946703 105.28021791 102.1373291 108.62902832 C102.11685386 112.04758347 102.10773176 115.4661668 102.09765625 118.88476562 C102.0755818 125.58991919 102.04209362 132.29494385 102 139 C103.10389572 138.98889694 104.20779144 138.97779388 105.34513855 138.96635437 C115.74780393 138.86500035 126.15036916 138.79004507 136.55341625 138.74093914 C141.90178695 138.71484441 147.24975908 138.67944812 152.59790039 138.62280273 C157.75911183 138.56847928 162.91993991 138.53857854 168.08141518 138.52561378 C170.05064238 138.51637455 172.01984857 138.49833231 173.98891258 138.47134972 C176.7472201 138.43505487 179.50394331 138.43005481 182.26245117 138.43237305 C183.4838102 138.40540848 183.4838102 138.40540848 184.72984314 138.37789917 C189.00150647 138.41674955 190.51481884 138.60142829 193.94021606 141.4153595 C194.61994476 142.26829086 195.29967346 143.12122223 196 144 C196.55905029 144.63421875 197.11810059 145.2684375 197.6940918 145.921875 C198.19078369 146.52515625 198.68747559 147.1284375 199.19921875 147.75 C200.04552856 148.77613403 200.04552856 148.77613403 200.90893555 149.82299805 C201.49586182 150.54140869 202.08278809 151.25981934 202.6875 152 C203.30471924 152.7525708 203.92193848 153.5051416 204.55786133 154.28051758 C209.00218813 159.72235012 213.32571934 165.24258413 217.58203125 170.83203125 C223.93137164 179.15079547 230.45537174 187.33450586 237 195.5 C247.19491599 208.22644046 247.19491599 208.22644046 249.74848938 211.57435989 C252.08561585 214.633364 254.47457567 217.54570601 257.1159668 220.34759521 C267.41719511 231.77679265 267.66577916 242.06765324 267.3125 256.953125 C267.30024159 259.2299397 267.29275846 261.5067846 267.28979492 263.78363037 C267.27151019 268.52149877 267.21429243 273.25659828 267.125 277.99365234 C267.0110948 284.06678693 266.96806465 290.13777029 266.95027161 296.2118721 C266.93366868 300.89771985 266.89442405 305.58313395 266.84677124 310.26876068 C266.8239971 312.50945343 266.80495019 314.75018729 266.78970337 316.99094391 C266.76225051 320.10962282 266.70775214 323.22659331 266.64453125 326.34472656 C266.64005981 327.26833481 266.63558838 328.19194305 266.63098145 329.14353943 C266.46363534 335.36415855 266.46363534 335.36415855 264.1472168 338.54095459 C260.17070971 341.24301263 256.3422049 341.20323181 251.70703125 341.31640625 C251.00100266 341.33718735 250.29497406 341.35796844 249.56755066 341.37937927 C247.31596449 341.44467491 245.06426338 341.50366647 242.8125 341.5625 C241.2844934 341.60570425 239.75649836 341.64931916 238.22851562 341.69335938 C234.48579438 341.80033574 230.7429577 341.90165922 227 342 C226.81679199 342.65516602 226.63358398 343.31033203 226.44482422 343.98535156 C221.92950341 359.65498434 213.83058622 370.00452293 199.75390625 378.328125 C187.81822453 384.56352987 173.93850691 385.44109226 161 382 C148.2118037 377.95475423 138.29351587 370.28063788 131 359 C127.95889029 353.00855996 126.10825598 347.64953588 125 341 C52.73 341.33 -19.54 341.66 -94 342 C-95.98 347.94 -95.98 347.94 -98 354 C-105.58909522 367.75523508 -115.36810547 376.57988008 -130.125 382.1875 C-145.76421088 385.46668938 -161.0929794 384.09746703 -174.6953125 375.24609375 C-186.28522135 366.47391504 -193.73056137 355.4493845 -196 341 C-197.27117676 341.01571045 -198.54235352 341.0314209 -199.85205078 341.04760742 C-204.58196644 341.1020325 -209.31185456 341.13639592 -214.04199219 341.16479492 C-216.08663594 341.17985288 -218.13124755 341.20030357 -220.17578125 341.22631836 C-223.11987252 341.26283311 -226.06353557 341.27975651 -229.0078125 341.29296875 C-229.9174173 341.30845261 -230.82702209 341.32393646 -231.76419067 341.33988953 C-236.92489919 341.34124858 -240.55148313 340.93167329 -245 338 C-246.15610092 335.68779815 -246.12823351 334.37150768 -246.13422108 331.79826546 C-246.13867892 330.91196768 -246.14313676 330.0256699 -246.14772969 329.11251462 C-246.14754533 328.13276791 -246.14736097 327.1530212 -246.14717102 326.14358521 C-246.15084771 325.10747632 -246.1545244 324.07136743 -246.1583125 323.00386131 C-246.16938338 319.50924246 -246.17319891 316.01465332 -246.17700195 312.52001953 C-246.18326393 310.0237824 -246.18991048 307.5275462 -246.19691467 305.03131104 C-246.21616601 297.52446153 -246.2267456 290.01761992 -246.23564246 282.51075298 C-246.24002361 278.97775771 -246.24539082 275.44476394 -246.25063133 271.91176987 C-246.26764331 260.17135746 -246.28213872 248.43094599 -246.28938007 236.69052315 C-246.29129004 233.6431287 -246.29321036 230.59573426 -246.29516602 227.54833984 C-246.29564976 226.79090394 -246.2961335 226.03346803 -246.2966319 225.25307952 C-246.30493686 212.97592859 -246.33028174 200.69887495 -246.36274669 188.42176653 C-246.39578794 175.82430369 -246.41382611 163.22689034 -246.41702431 150.62938392 C-246.419192 143.55337929 -246.4279783 136.47751658 -246.45348549 129.40155411 C-246.47741342 122.74825299 -246.48103667 116.09516193 -246.47072411 109.44181061 C-246.47022642 106.99561845 -246.47661493 104.54941408 -246.49028015 102.10326004 C-246.50785347 98.77198921 -246.5009644 95.4416519 -246.48774719 92.11038208 C-246.49871644 91.13509682 -246.50968568 90.15981156 -246.52098733 89.1549722 C-246.45826954 82.63889709 -246.45826954 82.63889709 -244.1570158 79.43060112 C-240.56900216 77.05091696 -237.71600876 76.87704268 -233.51879883 76.88647461 C-232.39786331 76.88655014 -231.2769278 76.88662567 -230.12202454 76.88670349 C-228.91257675 76.89186478 -227.70312897 76.89702606 -226.45703125 76.90234375 C-225.21829758 76.9037587 -223.9795639 76.90517365 -222.70329285 76.90663147 C-219.41368463 76.91128398 -216.1241254 76.9202661 -212.83453369 76.93133545 C-209.47628377 76.94157371 -206.11802667 76.94613426 -202.75976562 76.95117188 C-196.17315788 76.96220855 -189.58658295 76.97895233 -183 77 C-182.93624176 76.10783279 -182.87248352 75.21566559 -182.80679321 74.29646301 C-182.6774086 72.54060127 -182.6774086 72.54060127 -182.54541016 70.74926758 C-182.46102692 69.58897537 -182.37664368 68.42868317 -182.28970337 67.23323059 C-179.96999441 41.34414964 -163.32968179 16.24866344 -144.0625 -0.375 C-102.06389183 -33.6579437 -41.56527025 -34.90526392 0 0 Z M-136 16 C-137.16402344 17.04414062 -137.16402344 17.04414062 -138.3515625 18.109375 C-156.29807973 35.00747026 -165.71828165 58.72892948 -167.18359375 83.046875 C-167.74616176 108.06460518 -158.61817521 132.42414213 -141.3984375 150.55957031 C-123.62266574 168.86911176 -100.97181432 179.78254804 -75.39697266 180.47290039 C-47.72677388 180.69364152 -24.88003273 171.84723295 -4.625 152.7109375 C15.10926246 132.33061288 22.60061663 107.57285147 22.2734375 79.64453125 C21.56557313 54.85175696 9.34265136 33.17190796 -8 16 C-26.12601452 -0.75856238 -50.49671022 -9.49259523 -75.03515625 -9.1484375 C-97.80650072 -8.00837019 -119.23044431 0.47866366 -136 16 Z M-230 94 C-230 136.24 -230 178.48 -230 222 C-223.73 222 -217.46 222 -211 222 C-207.52855849 218.29257818 -207.52855849 218.29257818 -206.26904297 215.31738281 C-203.88677678 210.96715759 -199.54202084 209.52663736 -195 208 C-190.7837948 207.35904939 -186.69455131 207.34244213 -182.4375 207.4375 C-180.8297168 207.42106445 -180.8297168 207.42106445 -179.18945312 207.40429688 C-171.42746353 207.47550779 -164.90126083 208.65914128 -158.87890625 213.81640625 C-158.44449219 214.39261719 -158.01007813 214.96882813 -157.5625 215.5625 C-157.11003906 216.14128906 -156.65757812 216.72007812 -156.19140625 217.31640625 C-155.10012053 218.8585182 -154.04793039 220.42810442 -153 222 C-150.87305335 222.41527124 -150.87305335 222.41527124 -148.4296875 222.29296875 C-147.08583984 222.2784668 -147.08583984 222.2784668 -145.71484375 222.26367188 C-144.77769531 222.23853516 -143.84054688 222.21339844 -142.875 222.1875 C-141.93011719 222.17396484 -140.98523438 222.16042969 -140.01171875 222.14648438 C-137.67391221 222.11106306 -135.33723763 222.06167271 -133 222 C-132.39929688 220.90300781 -131.79859375 219.80601562 -131.1796875 218.67578125 C-128.62858001 214.01699912 -125.47517467 211.13014406 -120.5703125 208.890625 C-115.30022195 207.57598535 -110.16230182 207.59111969 -104.75 207.5625 C-103.66847656 207.52962891 -102.58695312 207.49675781 -101.47265625 207.46289062 C-94.17517882 207.41447552 -87.88374208 208.37841314 -82 213 C-80.62402344 215.43408203 -80.62402344 215.43408203 -79.625 217.8125 C-78.39167649 220.28487662 -78.39167649 220.28487662 -76 222 C-72.66774727 222.84349095 -69.42768862 222.99988405 -66 223.0625 C-64.68056396 223.11144409 -64.68056396 223.11144409 -63.33447266 223.16137695 C-59.4983163 223.06679573 -56.98584778 222.932906 -54.12695312 220.22753906 C-52.62583391 218.20920435 -51.32387704 216.13628051 -50 214 C-43.11175807 207.45617017 -35.65051571 207.63551925 -26.625 207.625 C-24.97757812 207.58826172 -24.97757812 207.58826172 -23.296875 207.55078125 C-14.92205903 207.52065601 -9.52876662 208.94173559 -3.1875 214.4375 C-1 217 -1 217 0.0234375 219.60546875 C2.3490014 222.4228021 2.9550664 222.43567229 6.45703125 222.8046875 C8.2412119 222.86818207 10.02725112 222.88978434 11.8125 222.875 C13.18897705 222.87052856 13.18897705 222.87052856 14.59326172 222.8659668 C19.85679824 222.69307941 19.85679824 222.69307941 24.30078125 220.15234375 C25.66351273 217.85148553 25.66351273 217.85148553 26.62280273 215.43310547 C29.11792305 211.02495638 33.33726258 209.55670383 38 208 C42.23750203 207.38181761 46.35059579 207.38697489 50.625 207.5 C51.70523437 207.49742187 52.78546875 207.49484375 53.8984375 207.4921875 C61.14526825 207.58056348 67.53643444 208.00709318 73.2421875 212.9375 C74.05042969 213.9584375 74.05042969 213.9584375 74.875 215 C75.42929687 215.680625 75.98359375 216.36125 76.5546875 217.0625 C77.75467641 218.67113379 78.88676825 220.33015237 80 222 C81.65 222 83.3 222 85 222 C85 179.76 85 137.52 85 94 C69.82 94 54.64 94 39 94 C37.68 101.26 36.36 108.52 35 116 C25.723108 144.46319138 8.45533533 169.41423228 -18.66015625 183.484375 C-35.85064821 192.03313227 -52.31679385 196.40190339 -71.5625 196.375 C-72.55120087 196.37418427 -72.55120087 196.37418427 -73.55987549 196.37335205 C-84.54768911 196.33178571 -94.54857267 195.37184491 -105 192 C-105.67627441 191.79101074 -106.35254883 191.58202148 -107.04931641 191.36669922 C-134.22698035 182.78326384 -156.91278336 163.23232653 -170.21508789 138.15209961 C-177.54430498 123.79623985 -180.43644308 110.23586048 -183 94 C-198.51 94 -214.02 94 -230 94 Z M102 156 C102 211.44 102 266.88 102 324 C109.59 324 117.18 324 125 324 C126.051875 320.5659375 126.051875 320.5659375 127.125 317.0625 C129.20429136 310.62461392 131.80091451 305.35667122 136 300 C136.70125 298.989375 137.4025 297.97875 138.125 296.9375 C145.65751039 288.32548971 157.04827838 282.8395167 168.33251953 281.78125 C184.42545327 280.78149485 197.55659744 283.66932526 210.375 293.89453125 C219.42424298 302.13362241 223.19671749 312.59015246 227 324 C234.59 324 242.18 324 250 324 C250 311.46 250 298.92 250 286 C238.94593565 285.82957736 238.94593565 285.82957736 227.89135742 285.70214844 C226.5043607 285.67278064 225.11739374 285.64195518 223.73046875 285.609375 C223.01169556 285.60824707 222.29292236 285.60711914 221.55236816 285.60595703 C218.28071523 285.51197366 216.47064655 285.44443763 214.0402832 283.14941406 C212.62189421 280.21876475 212.59769607 278.21843147 213 275 C214.0402832 272.85058594 214.0402832 272.85058594 216 271 C218.70428288 270.57353999 221.0212552 270.3951959 223.73046875 270.390625 C224.48088943 270.37408875 225.23131012 270.35755249 226.00447083 270.34051514 C228.39889656 270.29196948 230.79268702 270.27065115 233.1875 270.25 C234.81188103 270.22184557 236.43623239 270.19191888 238.06054688 270.16015625 C242.04031227 270.08620961 246.01972367 270.03667583 250 270 C252.27754529 250.48745143 252.27754529 250.48745143 245.85791016 232.82788086 C243.56250006 230.32388532 241.1924944 227.94107736 238.69677734 225.63671875 C236.1115165 223.14296498 234.0522367 220.32969415 231.9375 217.4375 C228.37116242 212.76317404 224.74393535 208.14666279 221.0625 203.5625 C215.78519374 196.99114163 210.56451445 190.37777466 205.36767578 183.74267578 C203.97655908 181.97013187 202.58074296 180.20138565 201.18359375 178.43359375 C200.47795288 177.53942749 200.47795288 177.53942749 199.75805664 176.62719727 C198.47228673 174.99825276 197.18540739 173.37018411 195.8984375 171.7421875 C191.87068193 166.54193165 187.94658983 161.26211977 184 156 C156.94 156 129.88 156 102 156 Z M-194.56640625 225.8671875 C-196.15304417 227.93266721 -196.15304417 227.93266721 -196.5 230.5 C-195.80729802 233.96350988 -194.86223512 234.90568162 -192 237 C-188.8242484 237.59753874 -185.72267144 237.55832889 -182.5 237.5 C-181.21802734 237.52320313 -181.21802734 237.52320313 -179.91015625 237.546875 C-175.9622651 237.52223917 -173.70176757 237.48754379 -170.40234375 235.1953125 C-168.66722606 232.92487273 -168.66722606 232.92487273 -169.0625 229.375 C-169.6750845 225.74483076 -169.6750845 225.74483076 -173 224 C-176.13073749 223.54999666 -179.27776653 223.62971954 -182.4375 223.625 C-183.29666016 223.60050781 -184.15582031 223.57601562 -185.04101562 223.55078125 C-190.15355912 223.49728264 -190.15355912 223.49728264 -194.56640625 225.8671875 Z M-116.6015625 225.80078125 C-118.33172257 228.07560044 -118.33172257 228.07560044 -117.9375 231.625 C-117.3249155 235.25516924 -117.3249155 235.25516924 -114 237 C-110.86926251 237.45000334 -107.72223347 237.37028046 -104.5625 237.375 C-103.70333984 237.39949219 -102.84417969 237.42398437 -101.95898438 237.44921875 C-96.84647246 237.49005771 -96.84647246 237.49005771 -92.3984375 235.16796875 C-90.71449377 233.00087495 -90.71449377 233.00087495 -91.0625 229.9375 C-92.0273517 226.91429801 -92.56360667 225.91343978 -95 224 C-98.11572188 223.3771567 -101.2664207 223.53644931 -104.4375 223.5625 C-105.29666016 223.54251953 -106.15582031 223.52253906 -107.04101562 223.50195312 C-112.14427254 223.50389693 -112.14427254 223.50389693 -116.6015625 225.80078125 Z M-40 227 C-40.63860924 231.61748465 -40.63860924 231.61748465 -38.75561523 235.68945312 C-35.37200944 238.2152765 -31.13146972 237.51151867 -27.0625 237.5 C-26.15564453 237.52835937 -25.24878906 237.55671875 -24.31445312 237.5859375 C-18.81541507 237.64757156 -18.81541507 237.64757156 -14.3671875 234.6328125 C-12.78654971 232.10591801 -12.78654971 232.10591801 -13.0625 229.375 C-14.07641406 226.80641772 -14.8654428 225.71751584 -17 224 C-19.05260141 223.54145222 -19.05260141 223.54145222 -21.30859375 223.6015625 C-22.13810547 223.59769531 -22.96761719 223.59382812 -23.82226562 223.58984375 C-24.68529297 223.60144531 -25.54832031 223.61304688 -26.4375 223.625 C-27.29666016 223.61339844 -28.15582031 223.60179687 -29.04101562 223.58984375 C-35.19846875 223.50693672 -35.19846875 223.50693672 -40 227 Z M38.40234375 226.37109375 C36.78220926 228.88967202 36.78220926 228.88967202 37.0625 231.625 C38.07641406 234.19358228 38.8654428 235.28248416 41 237 C43.05260141 237.45854778 43.05260141 237.45854778 45.30859375 237.3984375 C46.13810547 237.40230469 46.96761719 237.40617187 47.82226562 237.41015625 C48.68529297 237.39855469 49.54832031 237.38695312 50.4375 237.375 C51.29666016 237.38660156 52.15582031 237.39820313 53.04101562 237.41015625 C56.70102533 237.39311974 59.28758532 237.37193034 62.56640625 235.66015625 C64.26323707 233.9845178 64.26323707 233.9845178 64.5 231.0625 C63.86713289 227.18618897 63.1830801 226.29026495 60 224 C56.82430058 223.38085994 53.72688371 223.3961297 50.5 223.4375 C49.64535156 223.41365234 48.79070312 223.38980469 47.91015625 223.36523438 C42.63645108 223.3713521 42.63645108 223.3713521 38.40234375 226.37109375 Z M-230 239 C-230 267.05 -230 295.1 -230 324 C-218.78 324 -207.56 324 -196 324 C-194.35 319.05 -192.7 314.1 -191 309 C-189.05264646 305.7138409 -187.31021906 302.94709027 -185 300 C-184.29875 298.989375 -183.5975 297.97875 -182.875 296.9375 C-175.34248961 288.32548971 -163.95172162 282.8395167 -152.66748047 281.78125 C-136.82685785 280.79716939 -123.31971675 283.44937755 -110.8125 293.8125 C-101.61532105 302.45227417 -98.30380555 311.94934446 -94 324 C-34.93 324 24.14 324 85 324 C85 295.95 85 267.9 85 239 C80.21091619 238.41359784 80.21091619 238.41359784 78.375 240.609375 C77.694375 241.66898437 77.694375 241.66898437 77 242.75 C73.45464776 247.88214672 69.95833283 250.97490714 64 253 C59.78017599 253.4624818 55.55522258 253.41615595 51.3125 253.4375 C50.17876953 253.47037109 49.04503906 253.50324219 47.87695312 253.53710938 C40.44379043 253.58423605 33.98581319 252.74940914 28 248 C26.6262207 245.56567383 26.6262207 245.56567383 25.625 243.1875 C24.39043493 240.71885121 24.39043493 240.71885121 22 239 C15.62446315 237.33739477 8.37553685 237.33739477 2 239 C-0.52028376 241.05149378 -1.37881909 242.60220458 -2.62548828 245.56616211 C-5.12113415 249.98518407 -9.32553303 251.44890237 -14 253 C-18.40175739 253.64557733 -22.683597 253.65705231 -27.125 253.5625 C-28.25292969 253.57345703 -29.38085938 253.58441406 -30.54296875 253.59570312 C-37.52670956 253.53444224 -42.01126472 252.58909193 -48 249 C-48.99 248.67 -49.98 248.34 -51 248 C-52.22272886 245.8602245 -53.09951062 243.72890522 -53.94921875 241.4140625 C-56.3349274 238.60574261 -56.93091575 238.56581271 -60.45703125 238.1953125 C-62.24121844 238.13200209 -64.02724984 238.11037071 -65.8125 238.125 C-66.72797607 238.12725586 -67.64345215 238.12951172 -68.58666992 238.13183594 C-73.89757991 238.32501671 -73.89757991 238.32501671 -78.40625 240.8828125 C-79.85782388 243.21990098 -79.85782388 243.21990098 -80.9140625 245.734375 C-82.69617348 249.45244827 -85.33074882 250.33845229 -89 252 C-94.07494359 253.69164786 -99.37408381 253.2689236 -104.6875 253.3125 C-105.84701172 253.34150391 -107.00652344 253.37050781 -108.20117188 253.40039062 C-116.22505752 253.45969166 -121.95566127 252.63053573 -128.0234375 247.18359375 C-128.46945313 246.60738281 -128.91546875 246.03117187 -129.375 245.4375 C-130.06722656 244.56931641 -130.06722656 244.56931641 -130.7734375 243.68359375 C-131.88976545 242.15130921 -132.94839551 240.57740673 -134 239 C-139.80045114 237.49259834 -147.16833894 237.75321271 -153 239 C-156.44465363 241.48263325 -157.94734151 244.35919901 -160 248 C-166.43716642 253.77018291 -173.46247702 253.2453003 -181.625 253.3125 C-183.35169922 253.35600586 -183.35169922 253.35600586 -185.11328125 253.40039062 C-192.72252799 253.45678755 -199.73296557 252.90974528 -205.58032227 247.55200195 C-207.91704117 244.87984472 -209.40867287 242.18265426 -211 239 C-217.27 239 -223.54 239 -230 239 Z M-173 311 C-178.3862588 319.60927369 -181.56182196 328.26467706 -179.50390625 338.45703125 C-176.80469161 348.38465121 -171.43934403 357.06314986 -162.52734375 362.51171875 C-153.44947848 367.0702439 -145.07248995 368.13698338 -135.25 365.4375 C-124.92445868 361.81493539 -118.50486063 355.47615169 -112.8984375 346.171875 C-109.54901518 338.97218215 -109.89421741 329.65428267 -111.69140625 322.08984375 C-115.39001578 312.07728991 -121.7353316 305.22549894 -131 300 C-146.36921664 293.63154007 -162.46645201 298.74409907 -173 311 Z M148 311 C142.1675874 319.47060329 139.78669496 328.54081162 141.44921875 338.76171875 C144.02486778 348.48367722 149.82504908 357.22479304 158.47265625 362.51171875 C167.92044821 367.25600565 177.28595672 368.30173397 187.40234375 365.0703125 C196.67536257 361.24954986 204.08162948 354.57726864 208.4375 345.5 C211.29207211 337.50472661 211.64385232 326.92490668 208.375 319 C207.63029509 317.63987924 206.83826068 316.30454318 206 315 C205.5875 314.31679688 205.175 313.63359375 204.75 312.9296875 C199.84604305 305.60161546 192.54554366 300.23110253 184 298 C169.09401338 296.65908489 158.13304716 299.34961187 148 311 Z " fill="#000000" transform="translate(246,77)"/>
<path d="M0 0 C2.55536648 1.7862756 4.79101132 3.80443982 7 6 C7.42410156 5.57847656 7.84820312 5.15695313 8.28515625 4.72265625 C12.36672414 0.91020273 15.1764732 -1 21 -1 C23.68090941 -0.20297288 24.63374549 0.48724369 26.25 2.75 C27.30656709 5.91970128 27.57948447 7.65186752 27 11 C24.42740283 14.65097352 21.40612466 17.88709099 17.90429688 20.65869141 C15.23063749 23.94592134 15.54278815 26.19565331 15.609375 30.390625 C15.61786469 31.44754547 15.61786469 31.44754547 15.62652588 32.52581787 C15.64884922 34.76791428 15.69903246 37.00838988 15.75 39.25 C15.77007048 40.77341435 15.7883203 42.29685386 15.8046875 43.8203125 C15.84869882 47.5473983 15.91769628 51.27354087 16 55 C31.58035634 42.74016711 31.58035634 42.74016711 39.70922852 25.97460938 C39.62955864 24.04775297 39.40103911 22.12873115 39.1640625 20.21484375 C39 17 39 17 40.74609375 14.12890625 C43.80544682 11.23922268 45.83401332 11 50 11 C52.94755732 12.34562399 54.54277272 13.08554544 56 16 C56.07065617 18.04055005 56.08421976 20.08334257 56.0625 22.125 C56.05347656 23.22070312 56.04445313 24.31640625 56.03515625 25.4453125 C56.02355469 26.28835937 56.01195312 27.13140625 56 28 C56.81984375 27.95359375 57.6396875 27.9071875 58.484375 27.859375 C59.56203125 27.82328125 60.6396875 27.7871875 61.75 27.75 C62.81734375 27.70359375 63.8846875 27.6571875 64.984375 27.609375 C68.6790835 28.08796418 69.73972987 29.10981852 72 32 C73.33373886 35.37880511 73.09544312 36.72957783 71.875 40.1875 C69.68242671 43.47635993 68.73241937 43.93211335 65 45 C62.70736611 44.91989592 60.41559123 44.81311307 58.125 44.6875 C49.53986115 45.09150653 45.69824108 49.08114867 40.01220703 55.18823242 C38.3050626 57.09764404 36.64338115 59.03557443 35 61 C34.23864746 61.90419678 34.23864746 61.90419678 33.46191406 62.82666016 C32.30141707 64.21233428 31.14961202 65.60528202 30 67 C34.39218998 67.22446328 38.78124996 67.38666898 43.17749023 67.49438477 C44.66864218 67.53932712 46.15940464 67.60051176 47.64916992 67.67895508 C56.73853932 68.28625002 56.73853932 68.28625002 64.97314453 64.99169922 C67.17621146 62.76391345 69.08694015 60.47525555 71 58 C74.09173752 56.45413124 76.59429552 56.70640479 80 57 C83.00342896 59.05497771 83.83287356 60.47633714 84.9375 63.9375 C85.03485072 68.7076855 82.9974866 70.94551417 79.8125 74.3125 C79.214375 74.869375 78.61625 75.42625 78 76 C79.22539208 78.89638128 80.46342204 80.48497655 82.6875 82.8125 C85 86 85 86 85.125 89.625 C83.7810498 93.6568506 82.69824535 94.94541925 79 97 C76.1875 97.6875 76.1875 97.6875 73 97 C69.35487051 94.4124516 66.11590544 91.40991055 63.34130859 87.90429688 C60.05407866 85.23063749 57.80434669 85.54278815 53.609375 85.609375 C52.90476135 85.61503479 52.20014771 85.62069458 51.47418213 85.62652588 C49.23208572 85.64884922 46.99161012 85.69903246 44.75 85.75 C43.22658565 85.77007048 41.70314614 85.7883203 40.1796875 85.8046875 C36.4526017 85.84869882 32.72645913 85.91769628 29 86 C31.8111022 89.16167134 34.66888864 92.27097071 37.57543945 95.34448242 C38.55349579 96.39222788 39.51855112 97.45228918 40.46899414 98.52514648 C45.24813801 103.90262609 49.42578536 108.3853743 56.93809509 108.96498108 C58.84197487 109.00211909 60.74701025 108.94208117 62.65014648 108.87719727 C66.40862927 109.01498 68.07839603 109.67696855 71 112 C72.5 115.375 72.5 115.375 73 119 C71.67765243 121.97528203 70.29087851 123.70912149 68 126 C65.1796875 126.1953125 65.1796875 126.1953125 61.875 126.125 C60.77929688 126.10695313 59.68359375 126.08890625 58.5546875 126.0703125 C57.71164063 126.04710937 56.86859375 126.02390625 56 126 C56.04640625 126.81984375 56.0928125 127.6396875 56.140625 128.484375 C56.17671875 129.56203125 56.2128125 130.6396875 56.25 131.75 C56.29640625 132.81734375 56.3428125 133.8846875 56.390625 134.984375 C55.91200885 138.67929167 54.89575775 139.74480293 52 142 C49.00957837 143.07348469 47.45234395 143.11847103 44.375 142.3125 C41.60243877 140.78029511 40.5425706 139.7674177 39 137 C39.19268978 134.70497841 39.42820536 132.41345357 39.6875 130.125 C39.910925 123.6309863 37.37946623 119.69867606 33.046875 115.0546875 C27.62912956 109.43293173 21.85542226 104.15979211 16 99 C15.7502218 103.37380837 15.57021981 107.74370806 15.45068359 112.12255859 C15.4008047 113.60701873 15.33286377 115.09099793 15.24560547 116.57373047 C14.64118961 125.85296392 14.64118961 125.85296392 18.23535156 134.20019531 C20.71546593 136.65557038 23.27083146 138.8313856 26 141 C27.42662219 143.85324437 27.31033868 145.83454549 27 149 C24.96530858 152.66244455 23.67037986 153.77232382 19.6875 155.125 C14.91815127 154.96332716 12.39455353 153.25071652 9 150 C8.67 149.34 8.34 148.68 8 148 C5.47562314 149.0818758 4.0225394 149.97435171 2.1875 152.0625 C-0.83583795 154.74031361 -3.00616317 154.92993269 -7 155 C-9.94755732 153.65437601 -11.54277272 152.91445456 -13 150 C-13.58299767 146.35626453 -13.66680479 143.9760735 -11.54296875 140.8671875 C-7.09928995 135.79671611 -7.09928995 135.79671611 -4.40429688 133.84350586 C-2.25693548 131.02453404 -2.63020849 128.1030471 -2.70703125 124.70703125 C-2.71127609 124.00100266 -2.71552094 123.29497406 -2.71989441 122.56755066 C-2.73666966 120.31547697 -2.77431757 118.06430258 -2.8125 115.8125 C-2.82754843 114.28451815 -2.84123656 112.75652224 -2.85351562 111.22851562 C-2.88656911 107.48533128 -2.93834168 103.74281804 -3 100 C-6.01549849 102.69011269 -8.98328184 105.4242421 -11.91723633 108.203125 C-12.91736373 109.13852599 -13.9289339 110.06186533 -14.95239258 110.97167969 C-21.48662687 116.77171057 -21.48662687 116.77171057 -24.77783203 124.62402344 C-25.02300082 128.28555591 -25.02300082 128.28555591 -24.85961914 131.75146484 C-25.02515145 135.58202647 -25.95178923 137.77974937 -28 141 C-31.3125 142.5625 -31.3125 142.5625 -35 143 C-40.52272727 140.95454545 -40.52272727 140.95454545 -42 138 C-42.07065617 135.95944995 -42.08421976 133.91665743 -42.0625 131.875 C-42.05347656 130.77929688 -42.04445313 129.68359375 -42.03515625 128.5546875 C-42.02355469 127.71164063 -42.01195313 126.86859375 -42 126 C-43.22976562 126.05220703 -43.22976562 126.05220703 -44.484375 126.10546875 C-45.56203125 126.13253906 -46.6396875 126.15960938 -47.75 126.1875 C-49.35101563 126.23970703 -49.35101563 126.23970703 -50.984375 126.29296875 C-54.36218111 125.96481401 -55.65930749 125.42272613 -58 123 C-59.06378903 120.35160857 -59.24878035 117.83609601 -59 115 C-57.23535939 112.14006522 -56.00434303 110.50217151 -53 109 C-51.55367187 109.22623047 -51.55367187 109.22623047 -50.078125 109.45703125 C-43.65368118 110.05358675 -39.38729464 109.80770632 -34.09179688 105.79785156 C-27.21016061 99.74969119 -21.04893585 92.86443812 -15 86 C-19.37380837 85.7502218 -23.74370806 85.57021981 -28.12255859 85.45068359 C-29.60701873 85.4008047 -31.09099793 85.33286377 -32.57373047 85.24560547 C-41.85296392 84.64118961 -41.85296392 84.64118961 -50.20019531 88.23535156 C-52.65557038 90.71546593 -54.8313856 93.27083146 -57 96 C-60.09173752 97.54586876 -62.59429552 97.29359521 -66 97 C-69.24541268 94.86486008 -69.89478226 93.35510986 -71 89.625 C-71 85.13656223 -69.71558892 83.49147147 -67 80 C-65.37318942 77.15602825 -65.37318942 77.15602825 -65 74 C-65.66 74 -66.32 74 -67 74 C-69.42473905 71.00473411 -70.86235515 68.74939972 -71.5625 64.9375 C-70.77884572 60.8450832 -69.35234564 59.4251011 -66 57 C-62.6875 56.25 -62.6875 56.25 -59 57 C-55.55469653 59.39204311 -52.31433818 62.18650743 -49.84350586 65.59570312 C-47.02453404 67.74306452 -44.1030471 67.36979151 -40.70703125 67.29296875 C-40.00100266 67.28872391 -39.29497406 67.28447906 -38.56755066 67.28010559 C-36.31547697 67.26333034 -34.06430258 67.22568243 -31.8125 67.1875 C-30.28451815 67.17245157 -28.75652224 67.15876344 -27.22851562 67.14648438 C-23.48533128 67.11343089 -19.74281804 67.06165832 -16 67 C-18.69011269 63.98450151 -21.4242421 61.01671816 -24.203125 58.08276367 C-25.13852599 57.08263627 -26.06186533 56.0710661 -26.97167969 55.04760742 C-32.3094684 49.06165865 -36.18012605 45.45313465 -44.3984375 44.96484375 C-45.53716309 44.99054443 -46.67588867 45.01624512 -47.84912109 45.04272461 C-51.98134849 44.98669332 -54.75250768 44.08116001 -57.875 41.375 C-59.32423588 38.31550203 -59.07656299 36.20858448 -58.71484375 32.90234375 C-57.69631527 30.19183354 -56.53458147 29.37555175 -54 28 C-50.984375 27.70703125 -50.984375 27.70703125 -47.75 27.8125 C-46.67234375 27.83957031 -45.5946875 27.86664063 -44.484375 27.89453125 C-43.66453125 27.92933594 -42.8446875 27.96414062 -42 28 C-42.05220703 26.77023438 -42.05220703 26.77023438 -42.10546875 25.515625 C-42.13253906 24.43796875 -42.15960938 23.3603125 -42.1875 22.25 C-42.23970703 20.64898437 -42.23970703 20.64898437 -42.29296875 19.015625 C-41.965785 15.64781361 -41.39442391 14.35038853 -39 12 C-35.14814776 10.93004104 -32.92502749 10.629989 -29.1875 12.125 C-26.58773912 14.35336647 -26.00314572 15.74340274 -25 19 C-24.97016417 21.20034977 -24.98550312 23.40157072 -25.03515625 25.6015625 C-24.50473562 34.52894971 -19.82853148 38.69362536 -13.4375 44.375 C-12.42737179 45.31975457 -11.42018043 46.26765944 -10.41601562 47.21875 C-7.97097954 49.5117025 -5.50119074 51.76869895 -3 54 C-2.77553672 49.60781002 -2.61333102 45.21875004 -2.50561523 40.82250977 C-2.46067288 39.33135782 -2.39948824 37.84059536 -2.32104492 36.35083008 C-1.71374998 27.26146068 -1.71374998 27.26146068 -5.00830078 19.02685547 C-7.23608655 16.82378854 -9.52474445 14.91305985 -12 13 C-13.52846661 9.94306678 -13.23242445 7.37015453 -13 4 C-9.89052814 -1.62666336 -5.85255236 -1.46313809 0 0 Z " fill="#000000" transform="translate(167,86)"/>
<path d="M0 0 C1.83749565 -0.01925285 1.83749565 -0.01925285 3.71211243 -0.03889465 C5.05571082 -0.04706237 6.39931378 -0.05450604 7.74291992 -0.0612793 C8.41886389 -0.06535482 9.09480785 -0.06943035 9.79123497 -0.07362938 C13.36960927 -0.09448933 16.94794524 -0.10879078 20.52636719 -0.11816406 C24.21867292 -0.12922282 27.91037503 -0.16361566 31.60246754 -0.20333576 C34.44468794 -0.22950944 37.28676476 -0.23785654 40.12909508 -0.24144554 C41.48984538 -0.2463104 42.8505893 -0.25792176 44.21122169 -0.27648354 C46.11853089 -0.30088366 48.02613384 -0.29748929 49.93359375 -0.29296875 C51.01788162 -0.29883499 52.10216949 -0.30470123 53.21931458 -0.31074524 C59.38893093 0.7122489 62.69991031 5.82670104 66.28588867 10.55200195 C67.25708688 11.80993487 68.22844555 13.06774393 69.19995117 14.32543945 C69.69140625 14.96578125 70.18286133 15.60612305 70.68920898 16.26586914 C72.99036545 19.2541659 75.32639423 22.21473023 77.66088867 25.17700195 C78.57774246 26.34352157 79.49440867 27.51018864 80.41088867 28.67700195 C81.09151367 29.54325195 81.09151367 29.54325195 81.78588867 30.42700195 C83.16088867 32.17700195 84.53588867 33.92700195 85.91088867 35.67700195 C86.3650415 36.25498535 86.81919434 36.83296875 87.28710938 37.4284668 C88.19982215 38.59016022 89.11242061 39.75194346 90.02490234 40.91381836 C92.86004402 44.52346988 95.69947461 48.12969324 98.54248047 51.7331543 C99.93389808 53.5018049 101.31722361 55.27655451 102.69995117 57.05200195 C104.16344898 58.91041187 105.65026221 60.75140178 107.18432617 62.55200195 C109.88558221 65.79858198 111.52637307 68.13319828 111.78588867 72.42700195 C111.16088867 76.17700195 111.16088867 76.17700195 109.79455566 78.37902832 C105.59377462 81.24685238 101.36847836 80.73343448 96.3972168 80.69458008 C94.75274818 80.70509399 94.75274818 80.70509399 93.07505798 80.71582031 C89.4471614 80.73344138 85.82004334 80.72176224 82.19213867 80.70825195 C79.67394867 80.71094566 77.15575968 80.71482707 74.63757324 80.71984863 C69.35831745 80.72574927 64.07926458 80.71754305 58.80004883 80.69848633 C52.69914253 80.67671763 46.59877094 80.68376917 40.4978776 80.70579195 C34.62559303 80.72613993 28.75351149 80.72397508 22.88121033 80.71226501 C20.38370184 80.70959343 17.88617974 80.71288258 15.38868713 80.72218323 C11.90027527 80.73232256 8.41289539 80.71688276 4.92456055 80.69458008 C3.88859238 80.702677 2.85262421 80.71077393 1.78526306 80.71911621 C-5.21083403 80.63609716 -5.21083403 80.63609716 -8.44934082 78.26965332 C-10.92097492 74.5479824 -10.97449692 72.26870209 -11.00024414 67.78710938 C-11.00520905 67.13160599 -11.01017395 66.4761026 -11.01528931 65.80073547 C-11.02991677 63.62796993 -11.03671447 61.45527744 -11.04223633 59.2824707 C-11.04798809 57.77273049 -11.05374582 56.26299029 -11.05950928 54.75325012 C-11.07002146 51.58484557 -11.07586244 48.41646641 -11.0793457 45.24804688 C-11.08482554 41.19266112 -11.10884142 37.13761196 -11.13731766 33.08233166 C-11.15596519 29.96217376 -11.16115079 26.8420965 -11.16268158 23.72188759 C-11.16570477 22.22718786 -11.17372211 20.73248945 -11.18686676 19.23784447 C-11.20396931 17.14333084 -11.20203713 15.04963372 -11.19555664 12.95507812 C-11.19920227 11.7642009 -11.2028479 10.57332367 -11.206604 9.34635925 C-10.80154571 5.8530258 -9.93472161 3.97364292 -7.83911133 1.17700195 C-5.14243932 -0.17133405 -3.019393 0.02747343 0 0 Z M6.16088867 17.17700195 C6.16088867 32.35700195 6.16088867 47.53700195 6.16088867 63.17700195 C31.90088867 63.17700195 57.64088867 63.17700195 84.16088867 63.17700195 C82.2179201 59.29106481 79.91842423 56.16146456 77.22338867 52.80200195 C76.22459681 51.54426405 75.22590156 50.28644942 74.22729492 49.02856445 C73.7169873 48.38822266 73.20667969 47.74788086 72.6809082 47.08813477 C70.80894737 44.73450331 68.94896285 42.3717861 67.09771729 40.00183105 C66.19064177 38.84980932 65.27552034 37.70403646 64.34933472 36.56732178 C61.98027392 33.63583539 59.85250839 30.74633202 57.99755859 27.46166992 C55.16741217 22.74356957 52.29751013 18.15900191 46.82183838 16.44470215 C40.20137446 15.42886957 33.63354148 15.9062106 26.97338867 16.30200195 C16.67120117 16.73512695 16.67120117 16.73512695 6.16088867 17.17700195 Z " fill="#000000" transform="translate(367.839111328125,241.822998046875)"/>
<path d="M0 0 C2.5 1.5 2.5 1.5 4 4 C4.54765177 6.78389652 4.56555682 9.21791747 4 12 C2.07045537 14.78712003 0.73289213 15.73691052 -2.4375 16.875 C-5.60118415 17.02932606 -7.25583784 16.58872546 -10 15 C-12.62297329 11.93986449 -13.00753007 10.43674387 -12.9375 6.375 C-12 3 -12 3 -10.4375 1.0625 C-6.90243524 -0.47842566 -3.79154935 -0.67595245 0 0 Z " fill="#000000" transform="translate(105,401)"/>
<path d="M0 0 C2.5 1.5 2.5 1.5 4 4 C4.54765177 6.78389652 4.56555682 9.21791747 4 12 C2.09496794 14.75171298 0.7143524 15.71801879 -2.375 16.9375 C-5.99044695 17.02358207 -7.98467749 15.94320784 -11 14 C-13.00227445 11.47539309 -13.00998065 10.23953569 -12.875 7 C-10.88633179 0.18170901 -6.58842412 -1.29608343 0 0 Z " fill="#000000" transform="translate(426,401)"/>
</svg>
