<?xml version="1.0" encoding="UTF-8"?>
<svg version="1.1" xmlns="http://www.w3.org/2000/svg" width="512" height="512">
<path d="M0 0 C0.83789062 0.74507812 1.67578125 1.49015625 2.5390625 2.2578125 C5.44813747 4.31725287 6.3701553 4.33546965 9.8125 3.75 C34.81031863 0.53742893 60.43717668 5.98285626 80.75 21.4375 C82.17581886 22.61399534 83.59262039 23.8015079 85 25 C85.72574219 25.58136719 86.45148438 26.16273437 87.19921875 26.76171875 C98.65697886 36.29985413 108.75921512 50.23345799 112.76171875 64.765625 C114.66575019 68.20129057 117.80120667 68.95080114 121.3125 70.25 C143.94639482 79.41394236 161.39252203 97.66720673 171 120 C174.97392927 130.38231582 176.92415261 140.96854989 178 152 C178.99580078 152.36351562 178.99580078 152.36351562 180.01171875 152.734375 C188.78169248 156.06312415 193.56168363 159.68669202 198 168 C199.0214742 171.06442261 199.13550523 173.17057902 199.15390015 176.38063049 C199.16250061 177.49779953 199.17110107 178.61496857 199.17996216 179.76599121 C199.18635208 181.60574524 199.18635208 181.60574524 199.19287109 183.48266602 C199.20104858 184.77401962 199.20922607 186.06537323 199.21765137 187.39585876 C199.24385144 191.68185342 199.2591817 195.96785771 199.2734375 200.25390625 C199.2787989 201.73181603 199.28417641 203.20972576 199.28956985 204.68763542 C199.31119983 210.83926962 199.32993311 216.99090122 199.34119225 223.14256382 C199.35740796 231.94332134 199.3905259 240.74363573 199.44759309 249.54422623 C199.4863892 255.73972077 199.50583659 261.9350973 199.51111281 268.13071007 C199.51475447 271.82672223 199.52664697 275.52226155 199.55921555 279.21814156 C199.59509895 283.34954947 199.59090092 287.48001496 199.58349609 291.61157227 C199.59990143 292.82390533 199.61630676 294.0362384 199.63320923 295.28530884 C199.57783681 302.85319691 198.41773861 308.72734861 194 315 C189.28402647 319.61728643 184.23235681 321.99674245 178 324 C177.92523438 324.94617188 177.85046875 325.89234375 177.7734375 326.8671875 C175.75195439 348.51840853 167.57972761 368.5733149 152 384 C150.7315625 385.3303125 150.7315625 385.3303125 149.4375 386.6875 C148.633125 387.450625 147.82875 388.21375 147 389 C146.48824219 389.50660156 145.97648437 390.01320313 145.44921875 390.53515625 C141.1964417 394.53294881 136.59646583 397.67038992 131.625 400.6875 C130.97289551 401.08412842 130.32079102 401.48075684 129.64892578 401.8894043 C125.97005398 404.05433898 122.65517072 405.48240975 118.5 406.5625 C114.84566193 407.87493113 114.07971418 408.85607629 112.15234375 412.3359375 C110.94092084 415.11049772 109.86053559 417.93033612 108.76953125 420.75390625 C100.6121331 441.39607445 80.95622344 457.33956481 61 466 C44.95708405 472.31993658 27.30853436 475.18206273 10.25 471.9375 C5.32067966 471.41014329 3.16211457 472.91981556 -0.6875 475.9375 C-1.68394531 476.76507813 -2.68039062 477.59265625 -3.70703125 478.4453125 C-22.66352243 493.81230596 -47.70139876 495.2297694 -71 494 C-87.59033546 492.18353991 -104.08622656 484.81563239 -116.5390625 473.7421875 C-119.44813747 471.68274713 -120.3701553 471.66453035 -123.8125 472.25 C-148.78490958 475.45930565 -174.36893717 470.02433183 -194.6875 454.625 C-196.13488758 453.42852815 -197.57220658 452.21978754 -199 451 C-200.19882813 450.03513672 -200.19882813 450.03513672 -201.421875 449.05078125 C-213.62441811 438.79988712 -222.96180977 424.1145707 -228 409 C-230.38757218 407.86778024 -232.72830521 406.88613149 -235.1875 405.9375 C-243.75098944 402.42326055 -250.73978582 397.68273309 -258 392 C-258.69609375 391.47664063 -259.3921875 390.95328125 -260.109375 390.4140625 C-278.0154777 376.20417366 -288.26118486 352.94347135 -291.46875 330.7578125 C-291.69863828 328.50363022 -291.89120677 326.26289921 -292 324 C-292.65226562 323.76925781 -293.30453125 323.53851563 -293.9765625 323.30078125 C-302.69718696 320.04662493 -307.83675548 316.41585763 -311.9383049 307.94210815 C-313.86081284 302.61456517 -313.69422188 297.33092758 -313.64697266 291.72265625 C-313.65573425 290.43028046 -313.66449585 289.13790466 -313.67352295 287.80636597 C-313.69614801 284.28962693 -313.68755084 280.77362843 -313.67162752 277.2568779 C-313.65888041 273.55933533 -313.6707329 269.86185197 -313.67855835 266.16430664 C-313.6876295 259.95740492 -313.67573409 253.75080162 -313.65185547 247.54394531 C-313.62464873 240.38983141 -313.63346471 233.23643022 -313.6609875 226.08233356 C-313.68375036 219.91635996 -313.68684382 213.75059967 -313.67379415 207.58459759 C-313.6660388 203.91224694 -313.66484884 200.24023019 -313.68147659 196.56790161 C-313.69873592 192.47062664 -313.67474953 188.37456098 -313.64697266 184.27734375 C-313.65709381 183.076008 -313.66721497 181.87467224 -313.67764282 180.63693237 C-313.57421276 172.37087564 -312.16473975 165.07903554 -306.05330849 159.09336853 C-301.77223827 155.58081313 -297.2369991 153.68332114 -292 152 C-291.91363281 151.11441406 -291.82726562 150.22882813 -291.73828125 149.31640625 C-289.47228065 129.33818081 -283.31168356 111.41197142 -270 96 C-269.41992188 95.27683594 -268.83984375 94.55367188 -268.2421875 93.80859375 C-258.71203575 82.34449907 -244.76505552 72.24037546 -230.234375 68.23828125 C-226.79881904 66.33431055 -226.04895585 63.19882899 -224.75 59.6875 C-215.58685803 37.02185388 -197.28308777 19.67022834 -175 10 C-158.95041382 3.67743575 -141.8989455 1.11809947 -124.8125 4.0625 C-119.55893295 4.5745299 -117.24758759 3.21855914 -113.125 0 C-112.13242188 -0.83015625 -111.13984375 -1.6603125 -110.1171875 -2.515625 C-79.08189581 -27.25051913 -30.41726455 -22.39363441 0 0 Z M-110.9375 21.5625 C-115.68478978 23.79081969 -119.93345926 22.7973097 -125 22 C-145.39828336 19.09128683 -165.16546236 23.0294118 -182.0625 35.0625 C-183.72042899 36.35968737 -185.36780738 37.67057498 -187 39 C-187.63035156 39.46792969 -188.26070313 39.93585937 -188.91015625 40.41796875 C-200.0803987 49.09462633 -207.68527316 63.2283482 -211.6875 76.5625 C-212.88241817 79.67945676 -213.60334249 80.75901655 -216.48828125 82.51171875 C-219.62381951 83.80090893 -222.79459758 84.89731115 -226 86 C-233.81494356 89.44519305 -240.49355382 93.48262897 -247 99 C-247.97195312 99.77214844 -248.94390625 100.54429688 -249.9453125 101.33984375 C-262.95831524 112.21678073 -269.91108656 128.683269 -273 145 C-273 147.31 -273 149.62 -273 152 C-267.72 152 -262.44 152 -257 152 C-256.649375 149.81375 -256.29875 147.6275 -255.9375 145.375 C-252.98895213 129.82392537 -244.44491272 116.67961595 -231.5 107.5625 C-220.72342746 101.03882484 -210.412887 98.18217971 -198 97 C-197.87044922 95.72769531 -197.87044922 95.72769531 -197.73828125 94.4296875 C-196.06370127 80.44924911 -192.23373059 68.87336499 -183 58 C-182.38253906 57.27039063 -181.76507813 56.54078125 -181.12890625 55.7890625 C-170.73262253 44.50660907 -155.96290709 38.95844045 -140.88671875 37.84375 C-132.08228874 37.49791314 -122.30298503 38.9200064 -114.29296875 42.66796875 C-111.24063779 44.16537139 -111.24063779 44.16537139 -108.73046875 43.91015625 C-106.52305767 42.74914771 -105.67191257 41.52356554 -104.3125 39.4375 C-98.7903389 31.78828426 -92.34568326 26.86876537 -84 22.625 C-83.02184326 22.12419922 -83.02184326 22.12419922 -82.02392578 21.61328125 C-68.96615552 15.29406159 -51.6087605 14.71278772 -37.79296875 18.90234375 C-24.46532772 24.14019987 -13.98544642 32.0867527 -6 44 C-2.08679669 43.30173324 1.59440538 42.22128472 5.375 41 C20.96246402 36.17155997 36.46248605 37.1605212 51.3125 44.125 C66.52663837 52.29873574 76.18584722 65.08709846 81.78125 81.2578125 C83.19432745 86.39060853 83.58811119 91.71048057 84 97 C84.88300781 97.09796875 85.76601563 97.1959375 86.67578125 97.296875 C105.36764478 99.62582899 119.70234399 106.71672006 131.8125 121.375 C138.77176899 130.87235533 141.01685168 140.62299124 143 152 C148.28 152 153.56 152 159 152 C159 133.38017771 150.35841952 115.63537055 137.45751953 102.41357422 C128.22136902 93.45590061 116.72504173 87.0005883 104.4375 83.3125 C101.36848608 82.12788062 100.25515419 81.41783186 98.5234375 78.58203125 C97.22960589 75.42257794 96.11937266 72.22512322 95 69 C86.45758239 48.93101357 72.04045582 34.69546849 52 26 C37.87156641 20.67702694 23.56355358 19.63202243 8.7890625 22.5625 C4.44411923 23.24405973 1.169417 23.63786382 -2.75 21.5 C-4.61140994 20.14232213 -6.3564973 18.69565694 -8.109375 17.19921875 C-39.55084621 -9.25888202 -81.25649089 -4.32944412 -110.9375 21.5625 Z M-91.1484375 50.484375 C-93.75213851 54.02189283 -95.74320078 57.77769557 -97.67578125 61.71484375 C-99 64 -99 64 -102 66 C-108.52555036 67.22354069 -111.92893497 64.33484992 -117.24609375 60.75390625 C-126.33191201 54.96733547 -137.19863625 53.98949356 -147.625 56.0625 C-159.16511037 59.12331781 -168.13596228 66.0191586 -174.8125 75.875 C-179.79648481 84.63473087 -180.41364798 93.13193683 -180.44628906 103.04394531 C-180.5189306 106.75151221 -180.60817569 109.2994011 -182.4375 112.5703125 C-186.37628973 114.76786897 -190.12635129 114.50448302 -194.5625 114.5 C-208.86976197 114.86521 -220.33923202 119.34861571 -230.36328125 129.88671875 C-235.74600918 136.83673262 -237.91304396 143.30435167 -239 152 C-118.88 152 1.24 152 125 152 C123.62311046 140.98488366 119.88069052 132.68749846 111.70703125 125.04296875 C104.38892099 119.52006591 95.66434578 114.95565392 86.375 114.82421875 C85.50359375 114.80037109 84.6321875 114.77652344 83.734375 114.75195312 C81.91169678 114.70899 80.08870487 114.67773612 78.265625 114.65820312 C74.47126007 114.53752436 71.75267644 114.42054662 68.40625 112.55078125 C66.2447563 108.63007184 66.49593524 104.90498339 66.5 100.5 C66.12777486 86.40482146 62.78073371 76.97987497 52.86328125 66.80859375 C44.72669275 59.09800464 35.36058399 55.10086495 24.0859375 54.96484375 C14.81433539 55.45597513 6.823778 57.82917412 -0.75 63.25 C-3.71921057 65.33374956 -5.06128013 66.01123469 -8.75 66.6875 C-12.84402376 65.82145651 -14.70883138 64.36424759 -17 61 C-17.95715593 59.23971324 -18.89276802 57.46762641 -19.8125 55.6875 C-25.83847275 44.37931435 -34.97538031 38.45537993 -46.94921875 34.328125 C-64.49372475 31.52100404 -79.57363181 36.92663447 -91.1484375 50.484375 Z M-294 173 C-295.24992504 175.49985008 -295.13420318 177.19884966 -295.14717102 179.99703979 C-295.15432632 181.05419189 -295.16148163 182.11134399 -295.16885376 183.20053101 C-295.17154266 184.36524933 -295.17423157 185.52996765 -295.17700195 186.72998047 C-295.18357315 187.95279724 -295.19014435 189.17561401 -295.19691467 190.43548584 C-295.21326955 193.79504567 -295.22487635 197.15454249 -295.2331202 200.51412725 C-295.2382695 202.61239844 -295.24434522 204.7106652 -295.25063133 206.80893326 C-295.26968253 213.37207198 -295.28391457 219.93519945 -295.2922433 226.49836051 C-295.30202063 234.07811999 -295.32835301 241.65758781 -295.36874419 249.23724449 C-295.39888384 255.09377699 -295.41371005 260.95022577 -295.41702431 266.80683434 C-295.41937702 270.30586246 -295.42836555 273.80457898 -295.45348549 277.30352402 C-295.48105142 281.20618834 -295.47694164 285.10846737 -295.4699707 289.01123047 C-295.48278076 290.17190033 -295.49559082 291.33257019 -295.50878906 292.52841187 C-295.50184525 293.59120361 -295.49490143 294.65399536 -295.48774719 295.74899292 C-295.49013555 296.67187544 -295.4925239 297.59475796 -295.49498463 298.54560661 C-294.84691256 301.75908783 -293.48868232 302.93930809 -291 305 C-287.9732476 306.5133762 -284.84144275 306.13939094 -281.52141094 306.13142776 C-280.73719585 306.1334804 -279.95298075 306.13553303 -279.14500156 306.13764787 C-276.48928636 306.14335002 -273.8336225 306.14185668 -271.17790222 306.14044189 C-269.26583159 306.14302369 -267.35376151 306.14603633 -265.44169217 306.1494453 C-260.165531 306.15754035 -254.88938341 306.15930626 -249.61321676 306.16004276 C-243.93143622 306.16188897 -238.2496628 306.16943409 -232.56788635 306.17617798 C-220.13418226 306.18977947 -207.70048138 306.1957888 -195.26677108 306.20018864 C-187.50867567 306.20294792 -179.75058152 306.20718468 -171.99248695 306.21169281 C-150.52850363 306.2238877 -129.06452194 306.23422208 -107.60053539 306.2375679 C-106.21200654 306.23778954 -104.82347768 306.23801132 -103.43494882 306.23823325 C-102.04302723 306.2384539 -100.65110565 306.23867438 -99.25918406 306.2388947 C-96.46665331 306.23933726 -93.67412255 306.23978437 -90.8815918 306.24023438 C-89.84301063 306.24039846 -89.84301063 306.24039846 -88.78344803 306.24056586 C-66.32690858 306.24419743 -43.87040139 306.26012068 -21.41387429 306.28342474 C2.31728897 306.3080066 26.04843006 306.32173324 49.779607 306.32293582 C62.72027996 306.32385397 75.66091068 306.32964139 88.60157204 306.34775543 C99.61916444 306.36312284 110.63670156 306.3682968 121.65430263 306.36001733 C127.27914275 306.35609892 132.90387142 306.35709827 138.52869797 306.37107468 C143.67373779 306.38374241 148.81858159 306.38267921 153.96362086 306.37048396 C155.82905005 306.36851454 157.69449279 306.37166232 159.55990288 306.38032833 C162.08813869 306.3913338 164.61567204 306.38399518 167.14388752 306.3719368 C167.87459704 306.37953199 168.60530656 306.38712718 169.3581588 306.39495254 C173.73479134 306.34963322 176.51836139 305.69213001 180 303 C181.24992504 300.50014992 181.13420318 298.80115034 181.14717102 296.00296021 C181.15432632 294.94580811 181.16148163 293.88865601 181.16885376 292.79946899 C181.17154266 291.63475067 181.17423157 290.47003235 181.17700195 289.27001953 C181.18357315 288.04720276 181.19014435 286.82438599 181.19691467 285.56451416 C181.21326955 282.20495433 181.22487635 278.84545751 181.2331202 275.48587275 C181.2382695 273.38760156 181.24434522 271.2893348 181.25063133 269.19106674 C181.26968253 262.62792802 181.28391457 256.06480055 181.2922433 249.50163949 C181.30202063 241.92188001 181.32835301 234.34241219 181.36874419 226.76275551 C181.39888384 220.90622301 181.41371005 215.04977423 181.41702431 209.19316566 C181.41937702 205.69413754 181.42836555 202.19542102 181.45348549 198.69647598 C181.48105142 194.79381166 181.47694164 190.89153263 181.4699707 186.98876953 C181.48278076 185.82809967 181.49559082 184.66742981 181.50878906 183.47158813 C181.50184525 182.40879639 181.49490143 181.34600464 181.48774719 180.25100708 C181.49132972 178.8666833 181.49132972 178.8666833 181.49498463 177.45439339 C180.84691256 174.24091217 179.48868232 173.06069191 177 171 C173.9732476 169.4866238 170.84144275 169.86060906 167.52141094 169.86857224 C166.73719585 169.8665196 165.95298075 169.86446697 165.14500156 169.86235213 C162.48928636 169.85664998 159.8336225 169.85814332 157.17790222 169.85955811 C155.26583159 169.85697631 153.35376151 169.85396367 151.44169217 169.8505547 C146.165531 169.84245965 140.88938341 169.84069374 135.61321676 169.83995724 C129.93143622 169.83811103 124.2496628 169.83056591 118.56788635 169.82382202 C106.13418226 169.81022053 93.70048138 169.8042112 81.26677108 169.79981136 C73.50867567 169.79705208 65.75058152 169.79281532 57.99248695 169.78830719 C36.52850363 169.7761123 15.06452194 169.76577792 -6.39946461 169.7624321 C-7.78799346 169.76221046 -9.17652232 169.76198868 -10.56505118 169.76176675 C-11.95697277 169.7615461 -13.34889435 169.76132562 -14.74081594 169.7611053 C-17.53334669 169.76066274 -20.32587745 169.76021563 -23.1184082 169.75976562 C-23.81079564 169.75965623 -24.50318309 169.75954684 -25.21655197 169.75943414 C-47.67309142 169.75580257 -70.12959861 169.73987932 -92.58612571 169.71657526 C-116.31728897 169.6919934 -140.04843006 169.67826676 -163.779607 169.67706418 C-176.72027996 169.67614603 -189.66091068 169.67035861 -202.60157204 169.65224457 C-213.61916444 169.63687716 -224.63670156 169.6317032 -235.65430263 169.63998267 C-241.27914275 169.64390108 -246.90387142 169.64290173 -252.52869797 169.62892532 C-257.67373779 169.61625759 -262.81858159 169.61732079 -267.96362086 169.62951604 C-269.82905005 169.63148546 -271.69449279 169.62833768 -273.55990288 169.61967167 C-276.08813869 169.6086662 -278.61567204 169.61600482 -281.14388752 169.6280632 C-281.87459704 169.62046801 -282.60530656 169.61287282 -283.3581588 169.60504746 C-287.73479134 169.65036678 -290.51836139 170.30786999 -294 173 Z M-273 324 C-273 342.61982229 -264.35841952 360.36462945 -251.45751953 373.58642578 C-242.22136902 382.54409939 -230.72504173 388.9994117 -218.4375 392.6875 C-215.36848608 393.87211938 -214.25515419 394.58216814 -212.5234375 397.41796875 C-211.22960589 400.57742206 -210.11937266 403.77487678 -209 407 C-200.45758239 427.06898643 -186.04045582 441.30453151 -166 450 C-151.87156641 455.32297306 -137.56355358 456.36797757 -122.7890625 453.4375 C-118.44411923 452.75594027 -115.169417 452.36213618 -111.25 454.5 C-109.38859006 455.85767787 -107.6435027 457.30434306 -105.890625 458.80078125 C-88.32774349 473.58000344 -68.46170906 477.84821769 -46 476 C-28.99755819 473.86505421 -15.73829834 465.49511132 -3.0625 454.4375 C1.68422968 452.20944321 5.93390891 453.20161888 11 454 C31.42415598 456.96112299 51.14207835 453.00370233 68.0625 440.9375 C69.72042899 439.64031263 71.36780738 438.32942502 73 437 C73.63035156 436.53207031 74.26070313 436.06414062 74.91015625 435.58203125 C86.0803987 426.90537367 93.68527316 412.7716518 97.6875 399.4375 C98.88241817 396.32054324 99.60334249 395.24098345 102.48828125 393.48828125 C105.62381951 392.19909107 108.79459758 391.10268885 112 390 C119.82271952 386.55137894 126.46637167 382.4927624 133 377 C134.21236328 376.08734375 134.21236328 376.08734375 135.44921875 375.15625 C148.31083159 364.28395247 156.05049844 347.28637818 159 331 C159 328.69 159 326.38 159 324 C153.72 324 148.44 324 143 324 C142.649375 326.18625 142.29875 328.3725 141.9375 330.625 C138.9858158 346.32533774 130.33389245 358.92310052 117.515625 368.40234375 C106.86947618 375.16364013 96.34151699 377.82461743 84 379 C83.90203125 379.88300781 83.8040625 380.76601563 83.703125 381.67578125 C81.37417101 400.36764478 74.28327994 414.70234399 59.625 426.8125 C45.66199542 437.0264018 28.80833722 439.57932817 12 437 C8.51836529 436.12593414 5.15756414 435.12048453 1.76953125 433.9375 C-0.81588976 433.06232223 -3.31513013 432.47120203 -6 432 C-6.40089844 432.556875 -6.80179687 433.11375 -7.21484375 433.6875 C-13.66944228 442.35217648 -20.37699994 448.47677099 -30 453.375 C-30.97827759 453.87592163 -30.97827759 453.87592163 -31.97631836 454.38696289 C-44.60294757 460.49672359 -62.03737383 461.5954115 -75.36328125 457.09765625 C-88.99253713 451.42384751 -99.61690422 444.50648842 -108 432 C-111.76727233 432.66116662 -115.20549685 433.74055859 -118.8125 435 C-134.54434647 439.83647983 -150.50102277 438.79687252 -165.375 431.875 C-179.27912145 424.34557815 -189.78749807 412.25135978 -194.9375 397.2734375 C-196.70865534 391.22766688 -197.6049253 385.28032541 -198 379 C-198.88300781 378.90203125 -199.76601562 378.8040625 -200.67578125 378.703125 C-219.36764478 376.37417101 -233.70234399 369.28327994 -245.8125 354.625 C-252.77176899 345.12764467 -255.01685168 335.37700876 -257 324 C-262.28 324 -267.56 324 -273 324 Z M-239 324 C-237.62311046 335.01511634 -233.88069052 343.31250154 -225.70703125 350.95703125 C-218.38892099 356.47993409 -209.66434578 361.04434608 -200.375 361.17578125 C-199.50359375 361.19962891 -198.6321875 361.22347656 -197.734375 361.24804688 C-195.91169678 361.29101 -194.08870487 361.32226388 -192.265625 361.34179688 C-188.47126007 361.46247564 -185.75267644 361.57945338 -182.40625 363.44921875 C-180.2447563 367.36992816 -180.49593524 371.09501661 -180.5 375.5 C-180.12777486 389.59517854 -176.78073371 399.02012503 -166.86328125 409.19140625 C-158.72669275 416.90199536 -149.36058399 420.89913505 -138.0859375 421.03515625 C-128.81433539 420.54402487 -120.823778 418.17082588 -113.25 412.75 C-110.28078943 410.66625044 -108.93871987 409.98876531 -105.25 409.3125 C-101.15597624 410.17854349 -99.29116862 411.63575241 -97 415 C-96.04284407 416.76028676 -95.10723198 418.53237359 -94.1875 420.3125 C-88.16152725 431.62068565 -79.02461969 437.54462007 -67.05078125 441.671875 C-53.89636957 443.77658087 -42.03731495 441.54451068 -31.125 433.75 C-24.46804242 428.26779964 -20.10515956 421.98787521 -16.32421875 414.28515625 C-15 412 -15 412 -12 410 C-5.47444964 408.77645931 -2.07106503 411.66515008 3.24609375 415.24609375 C11.16877648 420.29188743 20.81836073 421.87749506 30.08203125 420.5625 C41.45380302 417.99326787 50.78329257 413.36437822 58 404 C62.31622381 396.97638128 66.05750773 389.73412977 66.17578125 381.375 C66.19962891 380.50359375 66.22347656 379.6321875 66.24804688 378.734375 C66.29101 376.91169678 66.32226388 375.08870487 66.34179688 373.265625 C66.46239993 369.47364066 66.58069185 366.75248813 68.4453125 363.40625 C72.38279282 361.23882964 76.14035695 361.49553114 80.5625 361.5 C94.86976197 361.13479 106.33923202 356.65138429 116.36328125 346.11328125 C121.74600918 339.16326738 123.91304396 332.69564833 125 324 C4.88 324 -115.24 324 -239 324 Z " fill="#000000" transform="translate(313,18)"/>
<path d="M0 0 C0.77251099 -0.00570007 1.54502197 -0.01140015 2.34094238 -0.01727295 C3.98183827 -0.02673187 5.62275324 -0.03326046 7.26367188 -0.03710938 C9.74384194 -0.0467299 12.22315256 -0.07770736 14.703125 -0.109375 C25.49172482 -0.18150469 35.54290865 0.01826656 44.28125 7.203125 C51.13225445 14.09842474 55.1341009 20.54823415 55.53125 30.390625 C55.37658911 38.86885369 52.71008825 45.32075873 47.5859375 52 C44.17515697 55.26047495 40.2553317 57.68080616 36.28125 60.203125 C36.78575684 61.03038086 37.29026367 61.85763672 37.81005859 62.70996094 C39.68649788 65.78776282 41.5608443 68.86683475 43.43457031 71.94628906 C44.2448745 73.27736429 45.0557412 74.60809727 45.8671875 75.93847656 C47.03534639 77.85391357 48.20145794 79.7705838 49.3671875 81.6875 C49.72871918 82.27932068 50.09025085 82.87114136 50.46273804 83.480896 C55.30778267 91.4602102 55.30778267 91.4602102 55.15625 95.703125 C54.19508374 99.54779006 53.46284919 100.90530336 50.28125 103.203125 C47.34502489 104.25715453 45.74975948 104.3173956 42.71875 103.578125 C37.49250931 100.62998923 34.75653966 94.86871011 31.8046875 89.8203125 C31.18770493 88.77618698 31.18770493 88.77618698 30.55825806 87.71096802 C29.2539445 85.50214533 27.95490719 83.29027713 26.65625 81.078125 C25.34940211 78.85946682 24.04147053 76.64145316 22.7328186 74.42385864 C21.92129538 73.04788432 21.11100282 71.67118326 20.30209351 70.29367065 C18.68718432 67.54905557 17.04826328 64.85364493 15.28125 62.203125 C12.6255772 61.61963748 12.6255772 61.61963748 9.65625 61.515625 C8.65335938 61.44988281 7.65046875 61.38414062 6.6171875 61.31640625 C5.84632813 61.27902344 5.07546875 61.24164063 4.28125 61.203125 C4.29696045 62.23195801 4.3126709 63.26079102 4.32885742 64.32080078 C4.38336334 68.15616963 4.41767477 71.99150457 4.44604492 75.82714844 C4.46108465 77.48378263 4.48152177 79.14037731 4.50756836 80.796875 C4.54416515 83.1849953 4.56102439 85.57258688 4.57421875 87.9609375 C4.58970261 88.69555206 4.60518646 89.43016663 4.62113953 90.18704224 C4.62268 94.94779019 3.78303962 98.15465587 1.28125 102.203125 C-1.36319635 104.37534879 -2.74862018 104.20205821 -6.21875 104.078125 C-10.21826023 103.07824744 -11.32666713 102.51246546 -13.71875 99.203125 C-14.3124197 96.19868646 -14.26514221 93.23799475 -14.23632812 90.18359375 C-14.2433374 89.27259918 -14.25034668 88.36160461 -14.25756836 87.42300415 C-14.27517252 84.41190097 -14.26351689 81.40173773 -14.25 78.390625 C-14.25269421 76.29841939 -14.25657604 74.20621499 -14.26159668 72.11401367 C-14.26749502 67.72920816 -14.25891779 63.34472857 -14.24023438 58.95996094 C-14.21744485 53.33725542 -14.2305661 47.7153136 -14.25452423 42.09263611 C-14.26897301 37.77236163 -14.2643804 33.45226844 -14.25401306 29.13198853 C-14.25134324 27.05872508 -14.25462448 24.98544521 -14.26393127 22.91220093 C-14.27408154 20.01524204 -14.25861689 17.11952272 -14.23632812 14.22265625 C-14.24442505 13.36435211 -14.25252197 12.50604797 -14.26086426 11.62173462 C-14.17788653 5.80521828 -14.17788653 5.80521828 -11.81140137 2.7019043 C-7.90316776 -0.09721442 -4.6686274 0.0266051 0 0 Z M4.28125 18.203125 C4.28125 26.453125 4.28125 34.703125 4.28125 43.203125 C7.9525 43.265 11.62375 43.326875 15.40625 43.390625 C16.5523877 43.41793701 17.69852539 43.44524902 18.87939453 43.47338867 C24.39492877 43.51836015 28.60103101 43.48762228 33.28125 40.203125 C36.30387704 37.01476645 37.26731506 33.99741656 37.34375 29.640625 C35.99165575 25.26620243 34.5573641 23.40478196 31.28125 20.203125 C27.73204234 18.45054869 24.91756845 17.96176455 20.98046875 18.0078125 C20.09963623 18.01280762 19.21880371 18.01780273 18.3112793 18.02294922 C17.20824463 18.04115723 16.10520996 18.05936523 14.96875 18.078125 C11.441875 18.119375 7.915 18.160625 4.28125 18.203125 Z " fill="#000000" transform="translate(158.71875,203.796875)"/>
<path d="M0 0 C1.10472153 -0.00953201 2.20944305 -0.01906403 3.34764099 -0.02888489 C4.53624222 -0.02797348 5.72484344 -0.02706207 6.94946289 -0.02612305 C8.17492325 -0.03040817 9.40038361 -0.0346933 10.66297913 -0.03910828 C13.2544798 -0.04485111 15.84599659 -0.0453522 18.4375 -0.04101562 C22.4033558 -0.03785674 26.36846501 -0.06131306 30.33422852 -0.08666992 C32.8518057 -0.088943 35.36938489 -0.08964637 37.88696289 -0.08862305 C39.07353989 -0.09783279 40.26011688 -0.10704254 41.48265076 -0.11653137 C43.14446129 -0.10718819 43.14446129 -0.10718819 44.83984375 -0.09765625 C46.29734291 -0.09860039 46.29734291 -0.09860039 47.7842865 -0.0995636 C50.99715467 0.34568722 52.87329098 1.37883085 55.48461914 3.2746582 C57.22789327 6.20652833 57.49894334 7.92371536 57.35961914 11.3371582 C56.27518678 14.97775255 55.60657935 16.07469746 52.48461914 18.2746582 C48.92655691 18.8398572 45.40723817 18.73894529 41.81274414 18.6652832 C40.77518982 18.65962341 39.7376355 18.65396362 38.66864014 18.64813232 C35.35682922 18.62575312 32.0461027 18.5755524 28.73461914 18.5246582 C26.48854102 18.50459527 24.24244593 18.48634414 21.99633789 18.4699707 C16.49167843 18.42928586 10.98936157 18.35099516 5.48461914 18.2746582 C5.48461914 26.5246582 5.48461914 34.7746582 5.48461914 43.2746582 C8.53776367 43.18764648 8.53776367 43.18764648 11.65258789 43.09887695 C13.63506003 43.06409674 15.6175399 43.02949884 17.60009766 43 C18.97269016 42.97493203 20.34515016 42.94086738 21.71728516 42.89746094 C23.6951261 42.83648289 25.67396098 42.81104811 27.65258789 42.78637695 C28.84134521 42.76019287 30.03010254 42.73400879 31.25488281 42.70703125 C35.42150978 43.43931696 36.85256312 45.04319032 39.48461914 48.2746582 C40.90463793 51.735954 40.61404536 52.94462135 39.23461914 56.4621582 C37.48461914 59.2746582 37.48461914 59.2746582 34.48461914 61.2746582 C31.48193359 61.50170898 31.48193359 61.50170898 27.84790039 61.4699707 C26.54916992 61.46352539 25.25043945 61.45708008 23.91235352 61.45043945 C22.54060607 61.43372881 21.16886128 61.41679892 19.79711914 61.3996582 C18.41366196 61.38962494 17.03019787 61.38049969 15.64672852 61.37231445 C12.25928457 61.34870857 8.87193019 61.31283704 5.48461914 61.2746582 C5.48461914 69.5246582 5.48461914 77.7746582 5.48461914 86.2746582 C10.50422852 86.20504883 10.50422852 86.20504883 15.62524414 86.1340332 C18.86530032 86.10284077 22.1053398 86.07855111 25.34545898 86.05493164 C27.59781375 86.03481264 29.85011627 86.00751413 32.10229492 85.97290039 C35.33924245 85.92439611 38.57549961 85.90169216 41.81274414 85.8840332 C43.32387787 85.85306549 43.32387787 85.85306549 44.86553955 85.82147217 C51.84065745 85.81923191 51.84065745 85.81923191 55.09301758 88.11938477 C56.93294056 90.96900584 57.41663018 92.87521004 57.48461914 96.2746582 C55.54536456 101.58209179 55.54536456 101.58209179 52.71604919 103.42936707 C50.01149521 104.45388294 47.86143973 104.53559109 44.96923828 104.54931641 C43.86451675 104.55884842 42.75979523 104.56838043 41.62159729 104.57820129 C40.43299606 104.57728989 39.24439484 104.57637848 38.01977539 104.57543945 C36.79431503 104.57972458 35.56885468 104.5840097 34.30625916 104.58842468 C31.71475848 104.59416751 29.12324169 104.5946686 26.53173828 104.59033203 C22.56588248 104.58717315 18.60077327 104.61062947 14.63500977 104.63598633 C12.11743258 104.6382594 9.59985339 104.63896278 7.08227539 104.63793945 C5.89569839 104.6471492 4.7091214 104.65635895 3.48658752 104.66584778 C2.37871384 104.65961899 1.27084015 104.6533902 0.12939453 104.64697266 C-1.32810463 104.64791679 -1.32810463 104.64791679 -2.81504822 104.64888 C-6.10434589 104.19303731 -7.90810892 103.32773757 -10.51538086 101.2746582 C-13.05655912 97.05073626 -12.80495972 92.51492451 -12.79003906 87.72412109 C-12.79514999 86.87471451 -12.80026093 86.02530792 -12.80552673 85.15016174 C-12.81939912 82.34914049 -12.81846779 79.54836593 -12.81616211 76.74731445 C-12.82005022 74.79585173 -12.82438513 72.84438986 -12.82914734 70.89292908 C-12.83660441 66.80505631 -12.8363219 62.71726991 -12.83105469 58.62939453 C-12.82525961 53.39602935 -12.84219454 48.16301802 -12.86539936 42.92971134 C-12.88014479 38.90020182 -12.88100731 34.87077737 -12.87788963 30.84124565 C-12.8784024 28.91197445 -12.88363174 26.98269843 -12.89370155 25.05345345 C-12.9060648 22.35359954 -12.89927508 19.65443309 -12.88769531 16.95458984 C-12.89533905 16.16115173 -12.90298279 15.36771362 -12.91085815 14.55023193 C-12.86554523 9.76030152 -12.25699943 6.37503304 -9.51538086 2.2746582 C-6.47297029 0.03289923 -3.71013769 0.01760694 0 0 Z " fill="#000000" transform="translate(233.515380859375,203.725341796875)"/>
<path d="M0 0 C3.20933891 2.94664646 3.95359041 4.59486424 4.45410156 8.96411133 C4.45347337 10.50356326 4.43117411 12.04311332 4.390625 13.58203125 C4.38496521 14.39621017 4.37930542 15.2103891 4.37347412 16.04924011 C4.35116774 18.63760353 4.30098445 21.2245584 4.25 23.8125 C4.22992747 25.57224556 4.21167802 27.33201293 4.1953125 29.09179688 C4.15473063 33.39550416 4.07643678 37.69618456 4 42 C14.89 42 25.78 42 37 42 C36.96519531 39.45925781 36.93039062 36.91851562 36.89453125 34.30078125 C36.87111477 31.83179853 36.85291014 29.36282833 36.83520508 26.89379883 C36.8201466 25.18182816 36.79969545 23.46989589 36.77368164 21.75805664 C36.7371681 19.29303495 36.72024438 16.82852465 36.70703125 14.36328125 C36.69154739 13.60163162 36.67606354 12.83998199 36.66011047 12.05525208 C36.65867883 7.50385657 37.20247625 4.62772337 40 1 C42.6740203 -1.10101595 44.04284685 -0.99846976 47.5 -0.875 C51.49951023 0.12487756 52.60791713 0.69065954 55 4 C55.5936697 7.00443854 55.54639221 9.96513025 55.51757812 13.01953125 C55.5245874 13.93052582 55.53159668 14.84152039 55.53881836 15.78012085 C55.55642252 18.79122403 55.54476689 21.80138727 55.53125 24.8125 C55.53394421 26.90470561 55.53782604 28.99691001 55.54284668 31.08911133 C55.54874502 35.47391684 55.54016779 39.85839643 55.52148438 44.24316406 C55.49869485 49.86586958 55.5118161 55.4878114 55.53577423 61.11048889 C55.55022301 65.43076337 55.5456304 69.75085656 55.53526306 74.07113647 C55.53259324 76.14439992 55.53587448 78.21767979 55.54518127 80.29092407 C55.55533154 83.18788296 55.53986689 86.08360228 55.51757812 88.98046875 C55.52567505 89.83877289 55.53377197 90.69707703 55.54211426 91.58139038 C55.45954989 97.36893122 55.45954989 97.36893122 53.17858887 100.5012207 C50.03945941 102.66081231 47.79852772 103 44 103 C38.35820896 100.07462687 38.35820896 100.07462687 37 96 C36.91492921 93.2684044 36.88408435 90.56308557 36.90234375 87.83203125 C36.9037587 87.03721848 36.90517365 86.2424057 36.90663147 85.42350769 C36.91222622 82.88646675 36.92477772 80.34951425 36.9375 77.8125 C36.94251568 76.09179815 36.94707847 74.37109492 36.95117188 72.65039062 C36.96134278 68.43353231 36.98091916 64.21686509 37 60 C26.11 60 15.22 60 4 60 C4.04640625 62.61292969 4.0928125 65.22585938 4.140625 67.91796875 C4.17184481 70.45644184 4.1961187 72.99489332 4.21972656 75.53344727 C4.23980786 77.29396175 4.26707879 79.05440982 4.30175781 80.81469727 C4.35043112 83.34928802 4.37300305 85.88299495 4.390625 88.41796875 C4.42159271 89.59325386 4.42159271 89.59325386 4.45318604 90.7922821 C4.45470756 94.5209494 4.14542955 96.76099874 2.19042969 99.97387695 C-0.83674015 102.77397531 -2.91959655 103 -7 103 C-10.57387602 101.41161066 -11.81089572 100.28365642 -14 97 C-14.20535497 94.06679609 -14.29368738 91.22775817 -14.29052734 88.29345703 C-14.29724457 87.40372192 -14.30396179 86.51398682 -14.31088257 85.59729004 C-14.32990831 82.65074099 -14.33378911 79.70441918 -14.3359375 76.7578125 C-14.34236238 74.71141465 -14.34909051 72.66501773 -14.35610962 70.61862183 C-14.36809394 66.32629262 -14.37178927 62.03404397 -14.37060547 57.74169922 C-14.37040225 52.24130378 -14.39770275 46.74142483 -14.43214989 41.24115181 C-14.45438707 37.0135155 -14.45844398 32.78600409 -14.45738602 28.55831528 C-14.45974684 26.53051855 -14.46859733 24.50271862 -14.48405075 22.4749794 C-14.50364566 19.63806245 -14.49789816 16.80226703 -14.48583984 13.96533203 C-14.49707886 13.1277536 -14.50831787 12.29017517 -14.51989746 11.42721558 C-14.47706129 7.46150138 -14.28119736 5.45743058 -12.15713501 2.00216675 C-8.22216401 -1.65011651 -5.01114501 -1.23080755 0 0 Z " fill="#000000" transform="translate(389,205)"/>
<path d="M0 0 C6.94310883 5.82946167 9.47720646 13.61917712 10.34765625 22.46875 C9.92914739 26.02607528 9.20344069 27.86776946 6.97265625 30.65625 C4.31765901 32.74231926 2.90515121 32.65504455 -0.52734375 32.59375 C-4.02734375 31.65625 -4.02734375 31.65625 -6.33984375 29.65625 C-7.9105975 26.86379888 -8.37466427 25.23011107 -8.90234375 22.15625 C-9.53883532 18.80629439 -10.21043702 16.943856 -12.77734375 14.65625 C-16.16598002 12.57093538 -18.06254868 11.65625 -22.02734375 11.65625 C-25.84111033 12.95293064 -27.75669497 14.35784237 -30.46484375 17.34375 C-32.16880417 20.95614609 -32.30798817 22.77924782 -31.875 26.62890625 C-30.52028487 29.8689853 -28.77157912 31.46949364 -26.02734375 33.65625 C-23.16294497 34.64808975 -20.26418756 35.11176241 -17.27734375 35.59375 C-7.1953294 37.54549867 -0.19313423 40.82153728 5.75390625 49.52734375 C10.57214055 57.94381072 11.25569315 66.52629655 8.78515625 75.84375 C5.86331665 84.4476924 1.01805683 89.44867125 -7.02734375 93.65625 C-16.56288067 97.52869705 -24.46507592 97.32549231 -34.02734375 93.65625 C-41.23467515 89.84060396 -47.00000456 83.22459797 -50.02734375 75.65625 C-51.43806837 70.65458999 -51.91888224 65.6622116 -49.77734375 60.84375 C-47.86611403 58.45471285 -46.9681882 57.47315124 -44.02734375 56.65625 C-40.31226045 56.78893155 -37.85152943 57.12164307 -34.71484375 59.15625 C-32.65019895 62.21498303 -32.25587462 64.88551723 -31.578125 68.46875 C-30.78077967 71.6355116 -29.38381002 73.43443894 -27.02734375 75.65625 C-24.14177578 77.32684198 -22.42517438 77.66471448 -19.08984375 77.59375 C-15.01419141 76.34610132 -12.90749943 74.80432713 -10.02734375 71.65625 C-8.501693 67.53699299 -8.75048996 64.47143062 -10.15234375 60.34375 C-12.8068805 56.53891399 -15.43664873 54.95229023 -20.0078125 54.1015625 C-21.06613281 53.99585938 -22.12445313 53.89015625 -23.21484375 53.78125 C-32.70760372 52.45119098 -39.57764924 49.26266243 -45.625 41.70703125 C-50.40958589 34.71007416 -51.78747119 27.00407816 -51.02734375 18.65625 C-48.88329197 9.08684242 -43.84694321 2.44041065 -36.02734375 -3.34375 C-23.99488235 -10.15224154 -10.86672486 -7.81944223 0 0 Z " fill="#000000" transform="translate(349.02734375,211.34375)"/>
<path d="M0 0 C1.08477631 -0.00960754 2.16955261 -0.01921509 3.28720093 -0.02911377 C5.04503403 -0.03548859 5.04503403 -0.03548859 6.83837891 -0.04199219 C8.04305817 -0.04769226 9.24773743 -0.05339233 10.48892212 -0.05926514 C13.03931804 -0.06871724 15.58972619 -0.07524995 18.14013672 -0.07910156 C22.04237138 -0.08881103 25.94408031 -0.11983498 29.84619141 -0.15136719 C32.32275077 -0.15789684 34.79931391 -0.16314746 37.27587891 -0.16699219 C38.44371918 -0.17933899 39.61155945 -0.19168579 40.81478882 -0.20440674 C41.90586945 -0.20140564 42.99695007 -0.19840454 44.12109375 -0.1953125 C45.55646988 -0.20078094 45.55646988 -0.20078094 47.02084351 -0.20635986 C50.23595952 0.23631089 52.08174565 1.25365523 54.68994141 3.16113281 C57.19025795 6.91160763 57.22597695 8.71969547 56.68994141 13.16113281 C54.65550549 16.09751705 53.06027578 17.89529908 49.45907593 18.59390259 C46.67229574 18.74073962 43.92887173 18.72284676 41.13916016 18.64941406 C40.12521683 18.64233932 39.1112735 18.63526459 38.06660461 18.62797546 C34.8361251 18.60004293 31.60739479 18.53730444 28.37744141 18.47363281 C26.18410711 18.44854856 23.99074557 18.42573562 21.79736328 18.40527344 C16.42701082 18.35447555 11.06042786 18.25661756 5.68994141 18.16113281 C5.68994141 26.41113281 5.68994141 34.66113281 5.68994141 43.16113281 C8.63480469 43.09152344 8.63480469 43.09152344 11.63916016 43.02050781 C14.21857203 42.98298909 16.79800035 42.94658905 19.37744141 42.91113281 C20.67101562 42.87761719 21.96458984 42.84410156 23.29736328 42.80957031 C24.54453125 42.79667969 25.79169922 42.78378906 27.07666016 42.77050781 C28.22352295 42.74956055 29.37038574 42.72861328 30.55200195 42.70703125 C34.35436555 43.25728382 35.97119349 44.50384472 38.68994141 47.16113281 C40.11656359 50.01437719 40.00028008 51.9956783 39.68994141 55.16113281 C37.89000366 57.86103943 36.60616841 59.70301931 33.68994141 61.16113281 C31.58465208 61.24657177 29.47662983 61.26828006 27.36962891 61.25878906 C26.11279297 61.25556641 24.85595703 61.25234375 23.56103516 61.24902344 C22.24232422 61.24064453 20.92361328 61.23226562 19.56494141 61.22363281 C18.22509929 61.21861771 16.8852554 61.21405482 15.54541016 61.20996094 C12.26020934 61.19814367 8.97509743 61.18166899 5.68994141 61.16113281 C5.70565186 62.22549561 5.7213623 63.2898584 5.73754883 64.38647461 C5.79197195 68.34668367 5.82633633 72.30685985 5.85473633 76.26733398 C5.8697948 77.97930465 5.89024596 79.69123692 5.91625977 81.40307617 C5.9527733 83.86809786 5.96969703 86.33260817 5.98291016 88.79785156 C5.99839401 89.55950119 6.01387787 90.32115082 6.02983093 91.10588074 C6.03126258 95.65727624 5.48746516 98.53340944 2.68994141 102.16113281 C0.03494417 104.24720207 -1.37756363 104.15992737 -4.81005859 104.09863281 C-9.14284996 102.9380637 -10.01200131 101.97072696 -12.31005859 98.16113281 C-12.88282179 95.14376192 -12.85698559 92.1840375 -12.82763672 89.11987305 C-12.834646 88.21848602 -12.84165527 87.317099 -12.84887695 86.38839722 C-12.86645202 83.41519171 -12.85483682 80.44294139 -12.84130859 77.46972656 C-12.84400341 75.40137042 -12.84788574 73.33301551 -12.85290527 71.2646637 C-12.85879947 66.93291139 -12.85023885 62.60148929 -12.83154297 58.26977539 C-12.8087394 52.71547677 -12.82188617 47.16195068 -12.84583282 41.60768032 C-12.86028064 37.3380195 -12.85568969 33.06854213 -12.84532166 28.79887581 C-12.84265231 26.75073213 -12.84593142 24.70257182 -12.85523987 22.65444756 C-12.86539015 19.79351481 -12.84992623 16.9338372 -12.82763672 14.07299805 C-12.83573364 13.22561569 -12.84383057 12.37823334 -12.85217285 11.50517273 C-12.76950102 5.78236278 -12.76950102 5.78236278 -10.46520996 2.66664124 C-6.97278242 0.22696152 -4.14457498 0.02962252 0 0 Z " fill="#000000" transform="translate(80.31005859375,203.8388671875)"/>
</svg>
