<?xml version="1.0" encoding="UTF-8"?>
<svg version="1.1" xmlns="http://www.w3.org/2000/svg" width="512" height="512">
<path d="M0 0 C0.88812881 -0.00175232 1.77625763 -0.00350464 2.69129944 -0.00531006 C5.6330052 -0.00971808 8.57465102 -0.0067935 11.51635742 -0.00341797 C13.5603588 -0.00409149 15.6043601 -0.00506192 17.64836121 -0.00631714 C21.93648032 -0.00779284 26.22457862 -0.00564431 30.51269531 -0.00097656 C36.00382814 0.00470984 41.49491197 0.00144782 46.98604298 -0.00454903 C51.20941027 -0.0081673 55.43276601 -0.00701003 59.65613365 -0.00442123 C61.68029473 -0.00375491 63.70445687 -0.0045701 65.72861671 -0.00690079 C68.56259552 -0.00944685 71.39649577 -0.00555866 74.23046875 0 C75.0644519 -0.00202423 75.89843506 -0.00404846 76.75769043 -0.00613403 C80.15629833 0.00618383 83.26630614 0.12199522 86.62675476 0.69998169 C89.39416312 1.14297481 90.65837706 0.81234155 93.30932617 0.12939453 C96.22160939 0.03445779 99.10959636 -0.00712702 102.02172852 0 C102.90024979 -0.00175232 103.77877106 -0.00350464 104.68391418 -0.00531006 C107.58771745 -0.0097107 110.49145978 -0.00679634 113.39526367 -0.00341797 C115.41541556 -0.00409164 117.43556738 -0.0050622 119.45571899 -0.00631714 C123.6907834 -0.00779179 127.92582672 -0.00564745 132.16088867 -0.00097656 C137.58361178 0.00471328 143.0062853 0.00144496 148.42900658 -0.00454903 C152.60175956 -0.00816712 156.77450084 -0.00701018 160.94725418 -0.00442123 C162.94629548 -0.00375504 164.94533785 -0.00456962 166.9443779 -0.00690079 C169.74232534 -0.00944696 172.54019323 -0.00555867 175.33813477 0 C176.16119614 -0.00202423 176.98425751 -0.00404846 177.83226013 -0.00613403 C181.20438439 0.00624471 184.28554886 0.1252966 187.62002563 0.69998169 C190.39117546 1.14246378 191.65555457 0.81334584 194.30932617 0.12939453 C197.21633531 0.03446573 200.09900263 -0.00712765 203.00585938 0 C204.32123184 -0.00262848 204.32123184 -0.00262848 205.66317749 -0.00531006 C208.56217427 -0.00971114 211.46111002 -0.00679593 214.36010742 -0.00341797 C216.37786369 -0.00409169 218.39561987 -0.00506229 220.41337585 -0.00631714 C224.6442441 -0.0077919 228.87509124 -0.00564732 233.10595703 -0.00097656 C238.5196136 0.00470962 243.93322046 0.00144735 249.34687519 -0.00454903 C253.51537955 -0.00816995 257.68387222 -0.00700882 261.85237694 -0.00442123 C263.84780063 -0.00375564 265.8432254 -0.00456753 267.83864784 -0.00690079 C270.63399675 -0.00945122 273.42926634 -0.00555258 276.22460938 0 C277.04407547 -0.00202423 277.86354156 -0.00404846 278.70783997 -0.00613403 C282.30081994 0.00703189 285.62049874 0.17515164 289.18962097 0.69998169 C292.33352995 1.36723556 292.33352995 1.36723556 295.30932617 0.12939453 C298.20325016 0.01730351 301.07370253 -0.03830755 303.96826172 -0.04760742 C305.29563606 -0.05746422 305.29563606 -0.05746422 306.64982605 -0.06752014 C309.58189987 -0.08724915 312.51392244 -0.0989159 315.44604492 -0.10888672 C316.44830423 -0.11296225 317.45056355 -0.11703777 318.48319435 -0.1212368 C323.78973815 -0.14209749 329.0962561 -0.1563983 334.40283203 -0.16577148 C339.87599862 -0.17682593 345.34875754 -0.21121488 350.8217802 -0.25094318 C355.03665405 -0.27712851 359.25143113 -0.28546512 363.46637917 -0.28905296 C365.48333293 -0.29391524 367.50028248 -0.30551895 369.5171566 -0.32409096 C372.3462357 -0.34851923 375.17426501 -0.34751041 378.00341797 -0.34057617 C378.83021057 -0.35338623 379.65700317 -0.36619629 380.5088501 -0.37939453 C386.21368614 -0.3286579 390.536967 0.94359531 395.30932617 4.12939453 C400.40101821 9.48219898 400.46458356 14.09144394 400.48632812 21.18725586 C400.49289932 22.11439896 400.49947052 23.04154205 400.50624084 23.9967804 C400.5259693 27.06832967 400.53763489 30.13983007 400.54760742 33.21142578 C400.55168295 34.26031164 400.55575848 35.3091975 400.5599575 36.38986778 C400.58081539 41.94049254 400.59511886 47.49109258 400.60449219 53.04174805 C400.61556156 58.77517546 400.6499686 64.5082153 400.68966389 70.24150562 C400.71580397 74.6501691 400.72418167 79.05873982 400.72777367 83.46747398 C400.73264563 85.58097644 400.74427689 87.69447459 400.76281166 89.80790138 C400.78714926 92.76669716 400.78624786 95.72448446 400.77929688 98.68334961 C400.79851196 99.99042877 400.79851196 99.99042877 400.81811523 101.32391357 C400.77169468 106.75006953 399.90176362 109.8125429 396.30932617 114.12939453 C391.9714268 117.94148792 388.36750467 118.25499757 382.70999432 118.2608223 C382.03298089 118.26287493 381.35596746 118.26492756 380.65843847 118.2670424 C378.37340445 118.27272944 376.08843038 118.27125306 373.8033905 118.26983643 C372.15515664 118.27241908 370.5069234 118.27543196 368.85869104 118.27883983 C364.31642011 118.28692471 359.77416497 118.28870022 355.2318877 118.28943729 C350.3381151 118.29128525 345.44435074 118.29883126 340.55058289 118.30557251 C329.84408867 118.31916666 319.1375982 118.32518216 308.43109679 118.32958317 C301.749238 118.33234362 295.06738066 118.33658059 288.38552284 118.34108734 C269.89476074 118.35328115 251.4039998 118.36358042 232.91323376 118.36696243 C231.72930399 118.367182 230.54537423 118.36740157 229.3255678 118.36762778 C228.13876566 118.36784606 226.95196352 118.36806434 225.72919768 118.36828923 C223.32418517 118.3687327 220.91917266 118.36917927 218.51416016 118.36962891 C216.72469684 118.36996105 216.72469684 118.36996105 214.89908276 118.37029991 C195.56192884 118.37424922 176.22481258 118.3917068 156.88767322 118.41498843 C137.04679004 118.43868427 117.20592577 118.45116347 97.3650282 118.45233035 C86.22012457 118.45324808 75.07527001 118.45902498 63.93037987 118.47714996 C54.44152798 118.49252707 44.95274033 118.49768555 35.46387836 118.48941186 C30.62065351 118.48549694 25.7775581 118.48647591 20.93434906 118.50046921 C16.50231598 118.51315767 12.07051026 118.5120553 7.63847772 118.4998785 C6.03348929 118.4979127 4.42848504 118.50104041 2.82351889 118.50972286 C0.64412911 118.52076813 -1.53445157 118.51336126 -3.71381855 118.50133133 C-4.92501907 118.50192842 -6.13621958 118.50252551 -7.38412315 118.50314069 C-12.40073146 117.93610323 -15.63232061 116.30216431 -19.00317383 112.56689453 C-22.07912406 108.1238553 -21.85157464 104.46726677 -21.86767578 99.20092773 C-21.87424698 98.27553696 -21.88081818 97.35014618 -21.8875885 96.39671326 C-21.90734937 93.32453332 -21.91899145 90.25240238 -21.92895508 87.18017578 C-21.93303061 86.131621 -21.93710613 85.08306622 -21.94130516 84.00273705 C-21.96217964 78.45096406 -21.97647435 72.89921588 -21.98583984 67.34741211 C-21.99689595 61.61517491 -22.03128294 55.88332679 -22.07101154 50.151227 C-22.09717335 45.74252099 -22.1055314 41.33390764 -22.10912132 36.92513084 C-22.11398984 34.81245489 -22.12561135 32.69978314 -22.14415932 30.587183 C-22.1685368 27.62608806 -22.16758787 24.6659988 -22.16064453 21.70483398 C-22.17985962 20.40079117 -22.17985962 20.40079117 -22.19946289 19.07040405 C-22.14997724 13.26586977 -21.06488114 9.88937703 -17.69067383 5.12939453 C-11.77955219 0.54525939 -7.27410856 -0.01752797 0 0 Z M-4.69067383 17.12939453 C-4.69067383 44.84939453 -4.69067383 72.56939453 -4.69067383 101.12939453 C23.02932617 101.12939453 50.74932617 101.12939453 79.30932617 101.12939453 C79.30932617 73.40939453 79.30932617 45.68939453 79.30932617 17.12939453 C68.08932617 17.12939453 56.86932617 17.12939453 45.30932617 17.12939453 C45.13895867 25.55056686 45.13895867 25.55056686 45.01147461 33.97241211 C44.98085937 35.02066162 44.95024414 36.06891113 44.91870117 37.14892578 C44.89775391 38.22247314 44.87680664 39.29602051 44.85522461 40.40209961 C44.30932617 43.12939453 44.30932617 43.12939453 42.45874023 44.97973633 C39.5314896 46.54543638 37.58487857 46.53883858 34.30932617 46.12939453 C31.85721107 44.80392691 30.60291341 44.02374032 29.72363281 41.34521484 C29.25768629 38.85321095 29.09602267 36.45965127 28.99291992 33.92626953 C28.93575806 32.60127441 28.93575806 32.60127441 28.87744141 31.24951172 C28.83433838 30.13737305 28.79123535 29.02523438 28.74682617 27.87939453 C28.60245117 24.33189453 28.45807617 20.78439453 28.30932617 17.12939453 C17.41932617 17.12939453 6.52932617 17.12939453 -4.69067383 17.12939453 Z M96.30932617 17.12939453 C96.30932617 44.84939453 96.30932617 72.56939453 96.30932617 101.12939453 C124.02932617 101.12939453 151.74932617 101.12939453 180.30932617 101.12939453 C180.30932617 73.40939453 180.30932617 45.68939453 180.30932617 17.12939453 C169.41932617 17.12939453 158.52932617 17.12939453 147.30932617 17.12939453 C147.17857879 24.80232242 147.17857879 24.80232242 147.1015625 32.47583008 C146.87213957 40.32551259 146.87213957 40.32551259 144.02026367 44.39892578 C141.24924682 46.1677449 140.289636 46.71761454 137.12182617 46.12939453 C133.30932617 45.12939453 133.30932617 45.12939453 131.30932617 42.12939453 C130.99047852 39.49389648 130.99047852 39.49389648 130.89526367 36.36767578 C130.85965332 35.36003174 130.82404297 34.3523877 130.78735352 33.31420898 C130.75335449 32.03634521 130.71935547 30.75848145 130.68432617 29.44189453 C130.56057617 25.37876953 130.43682617 21.31564453 130.30932617 17.12939453 C119.08932617 17.12939453 107.86932617 17.12939453 96.30932617 17.12939453 Z M198.30932617 17.12939453 C198.30932617 44.84939453 198.30932617 72.56939453 198.30932617 101.12939453 C226.02932617 101.12939453 253.74932617 101.12939453 282.30932617 101.12939453 C282.30932617 73.40939453 282.30932617 45.68939453 282.30932617 17.12939453 C271.08932617 17.12939453 259.86932617 17.12939453 248.30932617 17.12939453 C248.05993349 25.22150563 248.05993349 25.22150563 247.83129883 33.31420898 C247.79568848 34.32185303 247.76007813 35.32949707 247.72338867 36.36767578 C247.69196777 37.39932861 247.66054688 38.43098145 247.62817383 39.49389648 C247.30932617 42.12939453 247.30932617 42.12939453 245.30932617 45.12939453 C239.83273822 46.56587662 239.83273822 46.56587662 237.30932617 46.12939453 C234.59838867 44.39892578 234.59838867 44.39892578 232.30932617 41.12939453 C231.55399846 37.02495804 231.51989366 32.98210499 231.49682617 28.81689453 C231.43495117 24.96001953 231.37307617 21.10314453 231.30932617 17.12939453 C220.41932617 17.12939453 209.52932617 17.12939453 198.30932617 17.12939453 Z M299.30932617 17.12939453 C299.30932617 44.84939453 299.30932617 72.56939453 299.30932617 101.12939453 C327.02932617 101.12939453 354.74932617 101.12939453 383.30932617 101.12939453 C383.30932617 73.40939453 383.30932617 45.68939453 383.30932617 17.12939453 C372.41932617 17.12939453 361.52932617 17.12939453 350.30932617 17.12939453 C350.06035101 24.1440809 350.06035101 24.1440809 349.83129883 31.15942383 C349.79568848 32.04025635 349.76007813 32.92108887 349.72338867 33.82861328 C349.69196777 34.72410889 349.66054688 35.61960449 349.62817383 36.54223633 C349.27533052 39.40523826 348.61226141 41.55665882 347.30932617 44.12939453 C343.82063966 46.45518554 342.41214098 46.5480491 338.30932617 46.12939453 C336.15600586 44.98364258 336.15600586 44.98364258 334.30932617 43.12939453 C333.76342773 40.40209961 333.76342773 40.40209961 333.69995117 37.14892578 C333.65402832 35.57655151 333.65402832 35.57655151 333.60717773 33.97241211 C333.58349121 31.97730591 333.58349121 31.97730591 333.55932617 29.94189453 C333.47682617 25.71376953 333.39432617 21.48564453 333.30932617 17.12939453 C322.08932617 17.12939453 310.86932617 17.12939453 299.30932617 17.12939453 Z " fill="#000000" transform="translate(66.690673828125,340.87060546875)"/>
<path d="M0 0 C1.31537247 -0.00262848 1.31537247 -0.00262848 2.65731812 -0.00531006 C5.5563149 -0.00971114 8.45525064 -0.00679593 11.35424805 -0.00341797 C13.37200431 -0.00409169 15.38976049 -0.00506229 17.40751648 -0.00631714 C21.63838473 -0.0077919 25.86923186 -0.00564732 30.10009766 -0.00097656 C35.51375422 0.00470962 40.92736109 0.00144735 46.34101582 -0.00454903 C50.50952018 -0.00816995 54.67801284 -0.00700882 58.84651756 -0.00442123 C60.84194126 -0.00375564 62.83736603 -0.00456753 64.83278847 -0.00690079 C67.62813738 -0.00945122 70.42340697 -0.00555258 73.21875 0 C74.44794914 -0.00303635 74.44794914 -0.00303635 75.70198059 -0.00613403 C79.29496057 0.00703189 82.61463937 0.17515164 86.1837616 0.69998169 C89.32767058 1.36723556 89.32767058 1.36723556 92.3034668 0.12939453 C95.2083939 0.03265391 98.08915546 -0.00699996 100.99414062 0 C101.88226944 -0.00175232 102.77039825 -0.00350464 103.68544006 -0.00531006 C106.62714583 -0.00971808 109.56879165 -0.0067935 112.51049805 -0.00341797 C114.55449943 -0.00409149 116.59850073 -0.00506192 118.64250183 -0.00631714 C122.93062094 -0.00779284 127.21871924 -0.00564431 131.50683594 -0.00097656 C136.99796876 0.00470984 142.48905259 0.00144782 147.9801836 -0.00454903 C152.20355089 -0.0081673 156.42690663 -0.00701003 160.65027428 -0.00442123 C162.67443536 -0.00375491 164.69859749 -0.0045701 166.72275734 -0.00690079 C169.55673615 -0.00944685 172.3906364 -0.00555866 175.22460938 0 C176.05859253 -0.00202423 176.89257568 -0.00404846 177.75183105 -0.00613403 C181.15043896 0.00618383 184.26044676 0.12199522 187.62089539 0.69998169 C190.38813531 1.14294785 191.65296946 0.81411364 194.3034668 0.12939453 C197.20465784 0.01940417 200.08251469 -0.0381384 202.98413086 -0.04760742 C203.85943954 -0.05417862 204.73474823 -0.06074982 205.63658142 -0.06752014 C208.53075247 -0.08721603 211.42487171 -0.0989075 214.3190918 -0.10888672 C215.30940147 -0.11296225 216.29971115 -0.11703777 217.32003021 -0.1212368 C222.56174001 -0.14208174 227.80342376 -0.15639028 233.04516602 -0.16577148 C238.44992471 -0.17683246 243.85427132 -0.21123348 249.25888443 -0.25094318 C253.42314401 -0.27712774 257.58730566 -0.28546497 261.75164032 -0.28905296 C263.74347466 -0.29391415 265.73530476 -0.30551475 267.72705841 -0.32409096 C270.52010991 -0.3485214 273.31209827 -0.34751025 276.10522461 -0.34057617 C276.92109543 -0.35338623 277.73696625 -0.36619629 278.57756042 -0.37939453 C284.24625016 -0.32833459 288.56572553 0.95652492 293.3034668 4.12939453 C298.24013123 9.44580238 298.45577038 13.13626694 298.46459961 20.18139648 C298.46956451 21.11975342 298.47452942 22.05811035 298.47964478 23.02490234 C298.49428818 26.13916753 298.50107226 29.25338177 298.5065918 32.36767578 C298.51234175 34.52760317 298.5180995 36.68753054 298.52386475 38.84745789 C298.53438114 43.38113646 298.54021953 47.91479727 298.54370117 52.44848633 C298.5491852 58.259318 298.57320871 64.06991526 298.60167313 69.88067341 C298.620293 74.34419949 298.62550478 78.80766906 298.62703705 83.2712307 C298.63006591 85.41345691 298.63810225 87.55568208 298.65122223 89.69787025 C298.66826782 92.69516466 298.66640591 95.69188584 298.65991211 98.68920898 C298.66912689 99.57511215 298.67834167 100.46101532 298.68783569 101.37376404 C298.65554354 106.12935285 298.38756617 109.26812166 295.3034668 113.12939453 C291.15687744 116.77030226 288.86676505 118.25281633 283.39171314 118.26361561 C282.34702926 118.26807345 281.30234539 118.2725313 280.22600442 118.27712423 C279.06932045 118.27693986 277.91263649 118.2767555 276.72090149 118.27656555 C275.49906589 118.28024224 274.27723029 118.28391893 273.01836938 118.28770703 C269.61591671 118.29684636 266.21351233 118.3014463 262.81105196 118.30409634 C259.145608 118.30799488 255.48017807 118.31757359 251.81474304 118.3263092 C242.95673756 118.34608733 234.09873091 118.35614195 225.24070886 118.36503699 C221.07103178 118.36941807 216.90135598 118.37478538 212.73167992 118.38002586 C198.87327621 118.3970402 185.01487331 118.41153452 171.15646076 118.4187746 C167.55873425 118.42068456 163.96100774 118.42260488 160.36328125 118.42456055 C159.46906399 118.42504429 158.57484674 118.42552803 157.65353199 118.42602643 C143.16686277 118.43432721 128.68027612 118.45966402 114.19364295 118.49214122 C99.32597101 118.52520131 84.45834104 118.54322245 69.59063214 118.54641885 C61.24077722 118.54858502 52.89104266 118.55734922 44.54122353 118.58288002 C37.43011316 118.60457278 30.31915238 118.61264454 23.20801268 118.60291324 C19.57976221 118.59836422 15.95182046 118.60028921 12.32361221 118.61967468 C8.389263 118.64051424 4.45534047 118.63033468 0.52095032 118.61714172 C-0.62458004 118.62811097 -1.7701104 118.63908022 -2.9503538 118.65038186 C-9.41802564 118.59791215 -13.45771169 118.03201858 -18.6965332 114.12939453 C-22.86441242 108.57222224 -22.85154058 103.18858417 -22.87353516 96.44873047 C-22.88010635 95.57342178 -22.88667755 94.6981131 -22.89344788 93.79627991 C-22.91314376 90.90210886 -22.92483524 88.00798962 -22.93481445 85.11376953 C-22.93888998 84.12345985 -22.94296551 83.13315018 -22.94716454 82.11283112 C-22.96800948 76.87112131 -22.98231801 71.62943757 -22.99169922 66.38769531 C-23.0027602 60.98293662 -23.03716121 55.57859001 -23.07687092 50.1739769 C-23.10305547 46.00971732 -23.1113927 41.84555567 -23.1149807 37.68122101 C-23.11984188 35.68938667 -23.13144248 33.69755657 -23.15001869 31.70580292 C-23.17444913 28.91275141 -23.17343798 26.12076306 -23.16650391 23.32763672 C-23.17931396 22.5117659 -23.19212402 21.69589508 -23.20532227 20.8553009 C-23.14882579 14.58304496 -21.58562269 9.25403083 -17.24915028 4.56400681 C-11.82713393 -0.22765452 -6.94128686 -0.01702012 0 0 Z M-5.6965332 17.12939453 C-5.6965332 44.84939453 -5.6965332 72.56939453 -5.6965332 101.12939453 C22.3534668 101.12939453 50.4034668 101.12939453 79.3034668 101.12939453 C79.3034668 73.40939453 79.3034668 45.68939453 79.3034668 17.12939453 C68.0834668 17.12939453 56.8634668 17.12939453 45.3034668 17.12939453 C45.0935923 25.221445 45.0935923 25.221445 44.91552734 33.31420898 C44.86585815 34.82567505 44.86585815 34.82567505 44.81518555 36.36767578 C44.78900146 37.39932861 44.76281738 38.43098145 44.73583984 39.49389648 C44.3034668 42.12939453 44.3034668 42.12939453 42.98632812 43.94262695 C40.26260264 45.86342045 37.56955934 45.90019505 34.3034668 46.12939453 C31.8659668 45.69189453 31.8659668 45.69189453 30.3034668 45.12939453 C29.35879923 41.88861328 29.11247852 38.85713798 28.98706055 35.48876953 C28.92989868 34.04195801 28.92989868 34.04195801 28.87158203 32.56591797 C28.828479 31.34936523 28.78537598 30.1328125 28.7409668 28.87939453 C28.5965918 25.00189453 28.4522168 21.12439453 28.3034668 17.12939453 C17.0834668 17.12939453 5.8634668 17.12939453 -5.6965332 17.12939453 Z M96.3034668 17.12939453 C96.3034668 44.84939453 96.3034668 72.56939453 96.3034668 101.12939453 C124.0234668 101.12939453 151.7434668 101.12939453 180.3034668 101.12939453 C180.3034668 73.40939453 180.3034668 45.68939453 180.3034668 17.12939453 C169.0834668 17.12939453 157.8634668 17.12939453 146.3034668 17.12939453 C146.1331881 25.17640705 146.1331881 25.17640705 146.00561523 33.22412109 C145.975 34.22926758 145.94438477 35.23441406 145.9128418 36.27001953 C145.89189453 37.29643555 145.87094727 38.32285156 145.84936523 39.38037109 C145.16895959 42.80674297 144.03946174 44.01493411 141.3034668 46.12939453 C137.85107898 46.63286775 136.03564665 46.54495607 132.9909668 44.81689453 C130.05142097 41.87734871 130.13997832 38.75919241 129.98706055 34.80517578 C129.92989868 33.41552612 129.92989868 33.41552612 129.87158203 31.99780273 C129.828479 30.82435303 129.78537598 29.65090332 129.7409668 28.44189453 C129.5965918 24.70876953 129.4522168 20.97564453 129.3034668 17.12939453 C118.4134668 17.12939453 107.5234668 17.12939453 96.3034668 17.12939453 Z M197.3034668 17.12939453 C197.3034668 44.84939453 197.3034668 72.56939453 197.3034668 101.12939453 C225.0234668 101.12939453 252.7434668 101.12939453 281.3034668 101.12939453 C281.3034668 73.40939453 281.3034668 45.68939453 281.3034668 17.12939453 C270.4134668 17.12939453 259.5234668 17.12939453 248.3034668 17.12939453 C248.17271941 24.80232242 248.17271941 24.80232242 248.09570312 32.47583008 C247.8662802 40.32551259 247.8662802 40.32551259 245.0144043 44.39892578 C242.24338745 46.1677449 241.28377663 46.71761454 238.1159668 46.12939453 C234.3034668 45.12939453 234.3034668 45.12939453 232.3034668 42.12939453 C231.98461914 39.49389648 231.98461914 39.49389648 231.8894043 36.36767578 C231.85379395 35.36003174 231.81818359 34.3523877 231.78149414 33.31420898 C231.74749512 32.03634521 231.71349609 30.75848145 231.6784668 29.44189453 C231.5547168 25.37876953 231.4309668 21.31564453 231.3034668 17.12939453 C220.0834668 17.12939453 208.8634668 17.12939453 197.3034668 17.12939453 Z " fill="#000000" transform="translate(104.696533203125,219.87060546875)"/>
<path d="M0 0 C0.90602966 -0.0065712 1.81205933 -0.0131424 2.74554443 -0.01991272 C5.74735598 -0.03964145 8.7491175 -0.0513076 11.75097656 -0.0612793 C12.77654915 -0.06535482 13.80212173 -0.06943035 14.85877228 -0.07362938 C20.28735655 -0.09448863 25.71591556 -0.10879081 31.14453125 -0.11816406 C36.74782814 -0.12922614 42.35072766 -0.16362436 47.95388412 -0.20333576 C52.26565279 -0.22949794 56.57732673 -0.23785558 60.88916779 -0.24144554 C62.95439588 -0.24631277 65.01961971 -0.2579306 67.0847702 -0.27648354 C69.97870753 -0.30086537 72.87161612 -0.29991154 75.765625 -0.29296875 C76.61471436 -0.30577881 77.46380371 -0.31858887 78.33862305 -0.33178711 C84.09086148 -0.28162182 87.40211787 0.87936508 92.14160156 4.17700195 C97.15474992 9.58592518 97.29358003 14.0339755 97.30273438 21.14306641 C97.31018173 22.5191507 97.31018173 22.5191507 97.31777954 23.92303467 C97.33240085 26.96212511 97.33920324 30.00116335 97.34472656 33.0402832 C97.35047818 35.15154522 97.35623591 37.26280723 97.36199951 39.37406921 C97.3725095 43.80341841 97.37835214 48.23274946 97.38183594 52.66210938 C97.38731967 58.33493289 97.41134526 64.00751626 97.43980789 69.68026447 C97.4584413 74.04260456 97.46364026 78.40488689 97.46517181 82.76726341 C97.46819743 84.85842387 97.47622289 86.94958333 97.48935699 89.04070473 C97.50643143 91.9682397 97.50453369 94.89518919 97.49804688 97.82275391 C97.50726166 98.68478928 97.51647644 99.54682465 97.52597046 100.4349823 C97.49133002 105.43128652 96.90605492 108.84602331 94.14160156 113.17700195 C88.71019613 118.20105198 84.22823093 118.33211962 77.09960938 118.35400391 C75.71130417 118.3638607 75.71130417 118.3638607 74.29495239 118.37391663 C71.22820963 118.39364701 68.16151585 118.40531184 65.09472656 118.4152832 C63.52327 118.42139649 63.52327 118.42139649 61.92006683 118.42763329 C56.37477312 118.44849317 50.82950415 118.46279512 45.28417969 118.47216797 C39.55981829 118.48323062 33.83584581 118.51762935 28.11162186 118.55733967 C23.70720706 118.58349911 19.30288501 118.59185924 14.89839935 118.59544945 C12.78851445 118.60031732 10.67863374 118.61193699 8.56882477 118.63048744 C5.61262801 118.65486351 2.6574386 118.65391645 -0.29882812 118.64697266 C-1.16661896 118.65978271 -2.03440979 118.67259277 -2.92849731 118.68579102 C-8.72908746 118.63625109 -12.07791424 117.50075498 -16.85839844 114.17700195 C-21.25005092 109.34618423 -21.01150289 104.44560919 -21.01953125 98.2109375 C-21.02449615 97.29354797 -21.02946106 96.37615845 -21.03457642 95.43096924 C-21.04919772 92.3918788 -21.05600011 89.35284056 -21.06152344 86.3137207 C-21.06727505 84.20245868 -21.07303279 82.09119668 -21.07879639 79.97993469 C-21.08930638 75.55058549 -21.09514902 71.12125445 -21.09863281 66.69189453 C-21.10411655 61.01907102 -21.12814213 55.34648765 -21.15660477 49.67373943 C-21.17523818 45.31139935 -21.18043713 40.94911701 -21.18196869 36.58674049 C-21.18499431 34.49558004 -21.19301976 32.40442058 -21.20615387 30.31329918 C-21.2232283 27.3857642 -21.22133056 24.45881471 -21.21484375 21.53125 C-21.22405853 20.66921463 -21.23327332 19.80717926 -21.24276733 18.91902161 C-21.20333866 13.23209495 -20.34082448 8.89862009 -16.35839844 4.5324707 C-10.8590027 0.25038913 -6.76567909 0.02122323 0 0 Z M-3.85839844 17.17700195 C-3.85839844 44.89700195 -3.85839844 72.61700195 -3.85839844 101.17700195 C23.86160156 101.17700195 51.58160156 101.17700195 80.14160156 101.17700195 C80.14160156 73.45700195 80.14160156 45.73700195 80.14160156 17.17700195 C69.25160156 17.17700195 58.36160156 17.17700195 47.14160156 17.17700195 C46.93218147 24.14656964 46.93218147 24.14656964 46.75366211 31.11694336 C46.55369815 36.42109691 46.32103728 40.7049919 43.14160156 45.17700195 C39.67413559 46.18571933 37.32674444 46.49731084 33.82910156 45.55200195 C30.97310375 43.22489263 30.2632638 40.16418013 29.82275391 36.58984375 C29.79133301 35.69434814 29.75991211 34.79885254 29.72753906 33.8762207 C29.69192871 32.99538818 29.65631836 32.11455566 29.61962891 31.20703125 C29.58562988 30.10399658 29.55163086 29.00096191 29.51660156 27.86450195 C29.39285156 24.33762695 29.26910156 20.81075195 29.14160156 17.17700195 C18.25160156 17.17700195 7.36160156 17.17700195 -3.85839844 17.17700195 Z " fill="#000000" transform="translate(217.8583984375,11.822998046875)"/>
<path d="M0 0 C0.89788239 -0.0049649 1.79576477 -0.00992981 2.72085571 -0.01504517 C5.69501509 -0.02966519 8.66912112 -0.03646867 11.64331055 -0.04199219 C13.70973207 -0.04774393 15.77615358 -0.05350166 17.84257507 -0.05926514 C22.17776742 -0.06977478 26.51294123 -0.07561764 30.84814453 -0.07910156 C36.39990203 -0.08458508 41.95141412 -0.10861033 47.50309467 -0.13707352 C51.77278863 -0.15570861 56.04242358 -0.16090597 60.31215477 -0.16243744 C62.35865813 -0.1654627 64.40516048 -0.17348696 66.45162392 -0.18662262 C69.31689682 -0.20370055 72.18157168 -0.20179848 75.046875 -0.1953125 C76.31187584 -0.20913467 76.31187584 -0.20913467 77.60243225 -0.22323608 C83.95000957 -0.17828525 87.97648151 1.32754826 92.9675293 5.41113281 C97.49233703 10.94145338 97.51318634 17.27977257 97.4921875 24.10644531 C97.49729843 24.9740448 97.50240936 25.84164429 97.50767517 26.73553467 C97.52150532 29.58580541 97.52061965 32.43583263 97.51831055 35.28613281 C97.52220052 37.27718189 97.52653581 39.26823015 97.53129578 41.25927734 C97.53874341 45.42515762 97.53847685 49.59095313 97.53320312 53.75683594 C97.52740432 59.08644869 97.5443566 64.4157144 97.5675478 69.74526978 C97.58230062 73.85459409 97.58315483 77.96383505 97.58003807 82.07318115 C97.5805503 84.03790983 97.58576951 86.0026433 97.59584999 87.96734619 C97.60822985 90.71706538 97.60141391 93.46611135 97.58984375 96.21582031 C97.59748749 97.02122253 97.60513123 97.82662476 97.61300659 98.65643311 C97.55939392 104.44075189 96.620507 109.37017433 92.7175293 113.90332031 C87.18037993 118.08502166 83.02757425 118.31716866 76.28320312 118.33813477 C75.36902618 118.34470596 74.45484924 118.35127716 73.51296997 118.35804749 C70.48349933 118.37777901 67.4540783 118.38944371 64.42456055 118.39941406 C63.38920355 118.40348959 62.35384655 118.40756512 61.2871151 118.41176414 C55.80550714 118.43262575 50.32392422 118.44692625 44.84228516 118.45629883 C39.18752204 118.46735438 33.53315338 118.50174442 27.87852955 118.54147053 C23.5246865 118.56765095 19.17093716 118.57599202 14.81702232 118.57958031 C12.73308337 118.58444372 10.64914854 118.59605068 8.56528664 118.6146183 C5.64281866 118.6390363 2.72136746 118.63803954 -0.20117188 118.63110352 C-1.05601669 118.64391357 -1.91086151 118.65672363 -2.79161072 118.66992188 C-8.47509647 118.62095814 -13.25030185 117.7936189 -17.7824707 114.16113281 C-21.9496976 108.92273977 -22.36329283 103.31242256 -22.30004883 96.84277344 C-22.30705811 95.9473735 -22.31406738 95.05197357 -22.32128906 94.12944031 C-22.33878618 91.19176529 -22.32727579 88.25506635 -22.3137207 85.31738281 C-22.316418 83.2628969 -22.32030239 81.20841223 -22.32531738 79.15393066 C-22.33120122 74.85689083 -22.3226853 70.56018453 -22.30395508 66.26318359 C-22.28116641 60.7687754 -22.29429545 55.2751489 -22.31824493 49.78076935 C-22.33273296 45.54097659 -22.32808312 41.30136766 -22.31773376 37.06156921 C-22.31507479 35.03626919 -22.31830691 33.01095221 -22.32765198 30.985672 C-22.33786706 28.14983218 -22.32224733 25.31523966 -22.30004883 22.47949219 C-22.30814575 21.65120407 -22.31624268 20.82291595 -22.32458496 19.9695282 C-22.24305831 14.3175836 -21.0440579 9.84646612 -17.7824707 5.16113281 C-11.92192136 0.49661395 -7.26420116 0.00956003 0 0 Z M-4.7824707 17.16113281 C-4.7824707 44.88113281 -4.7824707 72.60113281 -4.7824707 101.16113281 C23.2675293 101.16113281 51.3175293 101.16113281 80.2175293 101.16113281 C80.2175293 73.44113281 80.2175293 45.72113281 80.2175293 17.16113281 C68.9975293 17.16113281 57.7775293 17.16113281 46.2175293 17.16113281 C46.0077912 24.87902351 46.0077912 24.87902351 45.82958984 32.59765625 C45.79647705 33.56219727 45.76336426 34.52673828 45.72924805 35.52050781 C45.70306396 36.5050293 45.67687988 37.48955078 45.64990234 38.50390625 C45.15312513 41.55694023 44.35348709 42.94953509 42.2175293 45.16113281 C38.52641004 46.36475866 36.92153979 46.50531572 33.4050293 44.78613281 C31.2175293 43.16113281 31.2175293 43.16113281 30.2175293 42.16113281 C30.05966622 40.30938575 29.96645574 38.45204172 29.90112305 36.59472656 C29.84396118 35.07576782 29.84396118 35.07576782 29.78564453 33.52612305 C29.7425415 32.23005127 29.69943848 30.93397949 29.6550293 29.59863281 C29.4384668 23.44207031 29.4384668 23.44207031 29.2175293 17.16113281 C17.9975293 17.16113281 6.7775293 17.16113281 -4.7824707 17.16113281 Z " fill="#000000" transform="translate(73.782470703125,11.8388671875)"/>
<path d="M0 0 C0.8946698 -0.0065712 1.7893396 -0.0131424 2.71112061 -0.01991272 C5.67566003 -0.03964259 8.64014877 -0.05130863 11.60473633 -0.0612793 C12.6180282 -0.06535482 13.63132008 -0.06943035 14.67531776 -0.07362938 C20.04021628 -0.09449038 25.40508923 -0.10879108 30.77001953 -0.11816406 C36.30371825 -0.12921888 41.83701381 -0.16360821 47.37057018 -0.20333576 C51.6317671 -0.22951942 55.89286828 -0.23785755 60.15413857 -0.24144554 C62.19342072 -0.2463082 64.23269869 -0.25791302 66.27190208 -0.27648354 C69.13211074 -0.30090831 71.99128084 -0.2999036 74.8515625 -0.29296875 C75.68770584 -0.30577881 76.52384918 -0.31858887 77.3853302 -0.33178711 C83.06820697 -0.28178464 87.54153415 0.88955326 92.24926758 4.17700195 C96.91378644 10.0375513 97.40084036 14.6952715 97.41040039 21.95947266 C97.41784775 23.30629623 97.41784775 23.30629623 97.42544556 24.68032837 C97.44006558 27.65448775 97.44686906 30.62859378 97.45239258 33.6027832 C97.45814432 35.66920473 97.46390205 37.73562624 97.46966553 39.80204773 C97.48017517 44.13724008 97.48601803 48.47241389 97.48950195 52.80761719 C97.49498547 58.35937468 97.51901072 63.91088678 97.54747391 69.46256733 C97.566109 73.73226128 97.57130636 78.00189624 97.57283783 82.27162743 C97.57586309 84.31813078 97.58388735 86.36463314 97.59702301 88.41109657 C97.61410094 91.27636947 97.61219887 94.14104434 97.60571289 97.00634766 C97.61492767 97.84968155 97.62414246 98.69301544 97.63363647 99.56190491 C97.59373511 105.1964387 96.69178345 109.4991395 92.74926758 113.8215332 C87.21568145 118.13023698 83.09001111 118.32936967 76.28320312 118.33813477 C75.3658136 118.34309967 74.44842407 118.34806458 73.50323486 118.35317993 C70.46414442 118.36780124 67.42510618 118.37460363 64.38598633 118.38012695 C62.27472431 118.38587857 60.1634623 118.3916363 58.05220032 118.3973999 C53.62285112 118.4079099 49.19352007 118.41375253 44.76416016 118.41723633 C39.09133664 118.42272006 33.41875327 118.44674565 27.74600506 118.47520828 C23.38366497 118.49384169 19.02138264 118.49904065 14.65900612 118.5005722 C12.56784566 118.50359782 10.4766862 118.51162328 8.3855648 118.52475739 C5.45802983 118.54183182 2.53108034 118.53993408 -0.39648438 118.53344727 C-1.25851974 118.54266205 -2.12055511 118.55187683 -3.00871277 118.56137085 C-8.69840376 118.52192301 -12.9885242 117.6374012 -17.39526367 113.7121582 C-21.89404671 108.03977959 -21.90217952 103.64640607 -21.91186523 96.58813477 C-21.91683014 95.72257965 -21.92179504 94.85702454 -21.9269104 93.96524048 C-21.94150726 91.10352785 -21.94833035 88.24187068 -21.95385742 85.38012695 C-21.95961146 83.38718668 -21.96536916 81.39424641 -21.97113037 79.40130615 C-21.98163369 75.22171776 -21.98748056 71.04214856 -21.9909668 66.86254883 C-21.99644631 61.51839837 -22.02046565 56.17450335 -22.04893875 50.83043289 C-22.06760427 46.71249664 -22.07277285 42.5946214 -22.07430267 38.47664642 C-22.07732151 36.5071549 -22.08532398 34.53766426 -22.09848785 32.56821442 C-22.11562818 29.80643036 -22.11364853 27.04526359 -22.10717773 24.28344727 C-22.11639252 23.47692719 -22.1256073 22.6704071 -22.13510132 21.83944702 C-22.09023762 15.6970148 -21.09371812 9.98325982 -17.03198242 5.1184082 C-16.44416992 4.66336914 -15.85635742 4.20833008 -15.25073242 3.73950195 C-14.36901367 3.02987305 -14.36901367 3.02987305 -13.46948242 2.3059082 C-9.29096354 -0.43861897 -4.7985277 0.01524675 0 0 Z M-4.75073242 17.17700195 C-4.75073242 44.89700195 -4.75073242 72.61700195 -4.75073242 101.17700195 C23.29926758 101.17700195 51.34926758 101.17700195 80.24926758 101.17700195 C80.24926758 73.45700195 80.24926758 45.73700195 80.24926758 17.17700195 C69.02926758 17.17700195 57.80926758 17.17700195 46.24926758 17.17700195 C46.03939309 25.26905242 46.03939309 25.26905242 45.86132812 33.36181641 C45.81165894 34.87328247 45.81165894 34.87328247 45.76098633 36.4152832 C45.73480225 37.44693604 45.70861816 38.47858887 45.68164062 39.54150391 C45.19287947 42.52071152 44.66373473 43.42652221 42.24926758 45.17700195 C38.59298192 46.28978454 36.93387537 46.49648559 33.43676758 44.86450195 C31.24926758 43.17700195 31.24926758 43.17700195 30.24926758 41.17700195 C30.09619857 39.36529097 29.99980097 37.54862255 29.93286133 35.73168945 C29.87569946 34.27738525 29.87569946 34.27738525 29.81738281 32.79370117 C29.77427979 31.55894043 29.73117676 30.32417969 29.68676758 29.05200195 C29.54239258 25.13325195 29.39801758 21.21450195 29.24926758 17.17700195 C18.02926758 17.17700195 6.80926758 17.17700195 -4.75073242 17.17700195 Z " fill="#000000" transform="translate(362.750732421875,11.822998046875)"/>
<path d="M0 0 C0.76279266 -0.0049649 1.52558533 -0.00992981 2.31149292 -0.01504517 C4.84137873 -0.02968007 7.37120181 -0.03647142 9.90112305 -0.04199219 C11.65748598 -0.0477431 13.4138489 -0.05350084 15.17021179 -0.05926514 C18.85647881 -0.06977928 22.542724 -0.07561906 26.22900391 -0.07910156 C30.95024452 -0.08458335 35.6711963 -0.10860281 40.39234638 -0.13707352 C44.02205749 -0.15570814 47.65169919 -0.16090596 51.28145409 -0.16243744 C53.02176681 -0.16546327 54.76207833 -0.17348949 56.50234413 -0.18662262 C58.93928527 -0.2036985 61.37552312 -0.20179918 63.8125 -0.1953125 C64.53008987 -0.20452728 65.24767975 -0.21374207 65.98701477 -0.22323608 C70.35751636 -0.18683718 73.1235779 0.47667658 76.6003418 3.16113281 C78.09369704 6.1478433 77.75241832 8.87772679 77.77734375 12.20947266 C77.78391495 12.93485733 77.79048615 13.660242 77.79725647 14.40760803 C77.81699661 16.8124298 77.82865281 19.21718913 77.83862305 21.62207031 C77.84269857 22.44268574 77.8467741 23.26330116 77.85097313 24.10878372 C77.87183566 28.45110066 77.88613728 32.79338596 77.89550781 37.13574219 C77.90658042 41.62400954 77.9409892 46.1117822 77.98067951 50.5998745 C78.0068037 54.0485426 78.01519582 57.49709201 78.01878929 60.94585037 C78.02366516 62.60048392 78.03530759 64.25511181 78.05382729 65.9096489 C78.0781335 68.22483485 78.07727017 70.53872986 78.0703125 72.85400391 C78.07617874 74.17145599 78.08204498 75.48890808 78.08808899 76.84628296 C77.52292975 80.68724411 76.66138325 81.8583588 73.6003418 84.16113281 C70.85944952 84.88918232 68.37012974 84.73556522 65.6003418 84.16113281 C62.63176023 81.95372601 61.77168389 80.67515909 60.6003418 77.16113281 C60.51157005 75.21332452 60.48272872 73.26256999 60.48681641 71.31274414 C60.4869297 69.51121635 60.4869297 69.51121635 60.48704529 67.67329407 C60.49220657 66.37635117 60.49736786 65.07940826 60.50268555 63.74316406 C60.50455102 62.40223747 60.50597432 61.0613102 60.50697327 59.72038269 C60.51078824 56.19404208 60.52060981 52.66774277 60.53167725 49.14141846 C60.5419133 45.5418758 60.54647559 41.94232646 60.55151367 38.34277344 C60.562233 31.28220968 60.57929718 24.22167395 60.6003418 17.16113281 C59.73225891 17.17001526 58.86417603 17.17889771 57.9697876 17.18804932 C49.78891207 17.26819757 41.60816839 17.32909835 33.42699051 17.3683815 C29.22093202 17.38925643 25.01519795 17.41757181 20.80932617 17.46289062 C16.7503821 17.50635257 12.69175005 17.53027063 8.63259125 17.54064178 C7.08400307 17.54803261 5.53543197 17.56246533 3.98697662 17.58405304 C1.81768396 17.61309329 -0.35031961 17.6170888 -2.51977539 17.61523438 C-3.75443542 17.62411682 -4.98909546 17.63299927 -6.26116943 17.64215088 C-9.98303652 17.07172178 -11.14249329 16.11296865 -13.3996582 13.16113281 C-14.12737053 10.42150994 -13.97937397 7.92899142 -13.3996582 5.16113281 C-9.50626185 0.09971756 -6.0223407 0.00930285 0 0 Z " fill="#000000" transform="translate(427.399658203125,178.8388671875)"/>
<path d="M0 0 C0.76293869 -0.0049649 1.52587738 -0.00992981 2.31193542 -0.01504517 C4.83638409 -0.02965265 7.36076992 -0.0364662 9.88525391 -0.04199219 C11.6401876 -0.04774453 13.39512127 -0.05350226 15.15005493 -0.05926514 C18.83034559 -0.06977091 22.51061443 -0.07561644 26.19091797 -0.07910156 C30.9042828 -0.0845873 35.6173589 -0.10861873 40.33063316 -0.13707352 C43.95605307 -0.15570607 47.58140348 -0.16090581 51.20686722 -0.16243744 C52.94438888 -0.16546279 54.68190936 -0.17348737 56.419384 -0.18662262 C58.8514269 -0.20369725 61.28276506 -0.2017997 63.71484375 -0.1953125 C64.43086258 -0.20452728 65.14688141 -0.21374207 65.88459778 -0.22323608 C70.25110745 -0.18679166 73.01296768 0.48020839 76.48681641 3.16113281 C78.05152873 6.29055746 78.18383598 9.77195505 77.48681641 13.16113281 C75.2378057 16.12063798 74.06956373 17.07181849 70.34832764 17.64215088 C69.1136676 17.63326843 67.87900757 17.62438599 66.60693359 17.61523438 C65.58193253 17.61611053 65.58193253 17.61611053 64.53622437 17.61700439 C62.28485741 17.61422481 60.03482609 17.58314189 57.78369141 17.55175781 C56.21999841 17.5442949 54.65629604 17.5386022 53.09259033 17.53460693 C48.98240208 17.51935435 44.87278169 17.48007641 40.76281738 17.43579102 C36.56672853 17.39482982 32.37054768 17.37659415 28.17431641 17.35644531 C19.94488951 17.31358123 11.71592365 17.24533514 3.48681641 17.16113281 C3.49125763 17.90171432 3.49569885 18.64229584 3.50027466 19.40531921 C3.54039412 26.39390924 3.57082256 33.38248198 3.59044075 40.37115765 C3.60086582 43.96387849 3.61500156 47.55650396 3.63769531 51.14916992 C3.65946943 54.61806485 3.67139464 58.08686818 3.67657089 61.55582619 C3.68204975 63.51948189 3.69765544 65.4831009 3.71340942 67.44670105 C3.71356049 68.64756851 3.71371155 69.84843597 3.71386719 71.08569336 C3.71830841 72.14048386 3.72274963 73.19527435 3.72732544 74.2820282 C3.47240476 77.3336529 2.90295234 79.45116643 1.48681641 82.16113281 C-1.72754888 84.30404301 -3.68744968 84.46139072 -7.47802734 84.62207031 C-10.52573722 83.93180205 -11.59412367 82.60601925 -13.51318359 80.16113281 C-14.01438904 76.85974121 -14.01438904 76.85974121 -14.01489258 72.88574219 C-14.02029556 72.16006546 -14.02569855 71.43438873 -14.03126526 70.6867218 C-14.04375393 68.29235823 -14.02726192 65.89919684 -14.00927734 63.50488281 C-14.00943233 61.8386631 -14.01092125 60.17244301 -14.01368713 58.50622559 C-14.01507118 55.01586958 -14.00251247 51.52592447 -13.97973633 48.03564453 C-13.95135143 43.56314122 -13.95408882 39.09132061 -13.96682644 34.61876678 C-13.97378365 31.17863135 -13.9659939 27.73865352 -13.95356941 24.29853821 C-13.94905531 22.64952702 -13.94871776 21.00049892 -13.95263481 19.35148621 C-13.95554751 17.04614622 -13.93903848 14.74174478 -13.91723633 12.43652344 C-13.91183334 11.12510376 -13.90643036 9.81368408 -13.90086365 8.46252441 C-13.4920165 4.98087887 -13.00806279 3.57427463 -10.51318359 1.16113281 C-6.94996608 -0.02660636 -3.70868242 0.00575749 0 0 Z " fill="#000000" transform="translate(20.51318359375,178.8388671875)"/>
<path d="M0 0 C2.65487671 1.56298828 2.65487671 1.56298828 5 4 C5.50682489 6.66564799 5.68605129 8.70307477 5.64697266 11.3671875 C5.65573425 12.1026178 5.66449585 12.8380481 5.67352295 13.59576416 C5.69550048 16.02277921 5.68097205 18.44796698 5.6640625 20.875 C5.66743116 22.56364288 5.67228419 24.25228339 5.67855835 25.94091797 C5.68592738 29.47842514 5.6752238 33.01530068 5.65185547 36.55273438 C5.62336694 41.08607253 5.63977086 45.61793075 5.66971779 50.1512146 C5.68779038 53.63772726 5.68203308 57.12388934 5.66907883 60.6104126 C5.66574467 62.28176041 5.66983229 63.95314011 5.68147659 65.62445068 C5.69418567 67.96142806 5.67481227 70.29601326 5.64697266 72.6328125 C5.66215439 73.66779877 5.66215439 73.66779877 5.67764282 74.72369385 C5.60195689 78.15496947 5.18615877 79.77907865 2.95480347 82.42710876 C-0.7314829 84.38938056 -3.84700414 84.56981366 -7.92382812 84.53344727 C-8.70656601 84.54206284 -9.48930389 84.55067841 -10.29576111 84.55955505 C-12.87459693 84.58219678 -15.45234457 84.57548035 -18.03125 84.56640625 C-19.82816897 84.57164237 -21.62508518 84.5779188 -23.42199707 84.58518982 C-27.18462068 84.59559046 -30.94686601 84.59103705 -34.70947266 84.57641602 C-39.52846936 84.55922166 -44.34627448 84.58273272 -49.16513824 84.61790562 C-52.87469363 84.63987694 -56.58396371 84.63843895 -60.29356384 84.6301403 C-62.07015796 84.62932077 -63.84677301 84.63618467 -65.62330627 84.65091133 C-68.10833797 84.66835474 -70.59122601 84.65381935 -73.07617188 84.63110352 C-74.1735392 84.64864182 -74.1735392 84.64864182 -75.29307556 84.66653442 C-79.16637001 84.59458353 -80.87326019 84.09949483 -83.95617676 81.67930603 C-86 79 -86 79 -86.625 75.5 C-85.83025108 71.04940606 -84.49774789 69.80170069 -81 67 C-77.77922058 66.39872742 -77.77922058 66.39872742 -74.09838867 66.43237305 C-73.08779892 66.43127785 -73.08779892 66.43127785 -72.05679321 66.43016052 C-69.84301556 66.43362765 -67.63137597 66.47244028 -65.41796875 66.51171875 C-63.87812957 66.52105016 -62.3382755 66.52816473 -60.79841614 66.53315735 C-56.7554896 66.55220181 -52.71346848 66.60127906 -48.67089844 66.65667725 C-44.54179125 66.70792575 -40.41253703 66.73068325 -36.28320312 66.75585938 C-28.18838767 66.80940164 -20.09430662 66.89468188 -12 67 C-12.00999275 65.88912773 -12.00999275 65.88912773 -12.02018738 64.7558136 C-12.08036633 57.76725206 -12.1260089 50.77872939 -12.15543652 43.78997517 C-12.17107439 40.19719171 -12.19227779 36.60462285 -12.22631836 33.01196289 C-12.25897965 29.54305609 -12.27686714 26.07435536 -12.28463173 22.60530663 C-12.29285018 20.64161248 -12.31625892 18.67800092 -12.33988953 16.71443176 C-12.34011612 15.5135643 -12.34034271 14.31269684 -12.34057617 13.07543945 C-12.35056892 11.49325371 -12.35056892 11.49325371 -12.36076355 9.87910461 C-11.94126748 6.53128007 -11.00110523 4.69656337 -9 2 C-5.48746854 -0.34168764 -4.13530644 -0.49623677 0 0 Z " fill="#000000" transform="translate(500,416)"/>
<path d="M0 0 C3.33761045 2.15090451 4.73470933 3.20412799 6 7 C6.08877175 8.94780829 6.11761308 10.89856282 6.11352539 12.84838867 C6.11344986 14.0494072 6.11337433 15.25042572 6.11329651 16.48783875 C6.10813522 17.78478165 6.10297394 19.08172455 6.09765625 20.41796875 C6.09579077 21.75889534 6.09436748 23.09982261 6.09336853 24.44075012 C6.08955356 27.96709073 6.07973199 31.49339004 6.06866455 35.01971436 C6.0584285 38.61925701 6.05386621 42.21880635 6.04882812 45.81835938 C6.0381088 52.87892313 6.02104462 59.93945887 6 67 C6.8533342 66.98889694 7.7066684 66.97779388 8.58586121 66.96635437 C16.63394634 66.86610351 24.68182132 66.79001043 32.73038769 66.74093914 C36.86813718 66.71486253 41.00537008 66.67950115 45.14282227 66.62280273 C49.13695146 66.5684119 53.13058431 66.53856489 57.12505531 66.52561378 C58.6477267 66.51638641 60.17037139 66.49836684 61.69283104 66.47134972 C63.82861043 66.43496164 65.96234839 66.43005817 68.09838867 66.43237305 C69.3130632 66.42126999 70.52773773 66.41016693 71.77922058 66.39872742 C75.94266306 67.17598146 77.41557076 68.70983004 80 72 C80.625 75.5 80.625 75.5 80 79 C77.28769802 82.55563383 75.81315425 83.85977033 71.3572998 84.62818909 C69.93050298 84.65469348 68.50303263 84.65390783 67.07617188 84.63110352 C66.29343399 84.63825882 65.51069611 84.64541412 64.70423889 84.65278625 C62.12514304 84.66965083 59.54779104 84.65028534 56.96875 84.62890625 C55.17183285 84.62973516 53.37491578 84.63219539 51.57800293 84.63621521 C47.8152784 84.63907166 44.05314963 84.62438721 40.29052734 84.59692383 C35.4716341 84.56284108 30.65380599 84.56886057 25.83486176 84.5875864 C22.12529653 84.59816383 18.41597841 84.58921186 14.70643616 84.57420158 C12.92986281 84.56902475 11.15326361 84.56949552 9.37669373 84.57574654 C6.89184238 84.58120785 4.40850667 84.56079604 1.92382812 84.53344727 C0.8264608 84.54323608 0.8264608 84.54323608 -0.29307556 84.55322266 C-3.69262256 84.48972035 -5.94058815 84.03162592 -8.95480347 82.42710876 C-11.64825232 79.2306955 -11.70569272 76.63594334 -11.64697266 72.6328125 C-11.66011505 71.52966705 -11.66011505 71.52966705 -11.67352295 70.40423584 C-11.69550048 67.97722079 -11.68097205 65.55203302 -11.6640625 63.125 C-11.66743116 61.43635712 -11.67228419 59.74771661 -11.67855835 58.05908203 C-11.68592738 54.52157486 -11.6752238 50.98469932 -11.65185547 47.44726562 C-11.62336694 42.91392747 -11.63977086 38.38206925 -11.66971779 33.8487854 C-11.68779038 30.36227274 -11.68203308 26.87611066 -11.66907883 23.3895874 C-11.66574467 21.71823959 -11.66983229 20.04685989 -11.68147659 18.37554932 C-11.69418567 16.03857194 -11.67481227 13.70398674 -11.64697266 11.3671875 C-11.65709381 10.67719666 -11.66721497 9.98720581 -11.67764282 9.27630615 C-11.5970961 5.62466281 -11.2260562 4.23338314 -8.64706421 1.57080078 C-5.38583492 -0.36445319 -3.7341822 -0.6223637 0 0 Z " fill="#000000" transform="translate(18,416)"/>
</svg>
