<?xml version="1.0" encoding="UTF-8"?>
<svg version="1.1" xmlns="http://www.w3.org/2000/svg" width="512" height="512">
<path d="M0 0 C1.72040362 -0.00576172 1.72040362 -0.00576172 3.47556287 -0.01163983 C4.74644858 -0.01077335 6.01733429 -0.00990687 7.32673168 -0.00901413 C8.68195451 -0.01159641 10.03717658 -0.01460918 11.39239758 -0.01801753 C15.12934741 -0.02610697 18.86627805 -0.02787818 22.6032356 -0.028615 C26.62856049 -0.03046219 30.65387534 -0.03800782 34.67919445 -0.04475021 C43.4869807 -0.0583479 52.29476242 -0.0643605 61.10255742 -0.06876087 C66.59927197 -0.07152089 72.09598474 -0.0757578 77.5926981 -0.08026505 C92.80305687 -0.09245963 108.01341422 -0.10275854 123.22377777 -0.10614014 C124.19779382 -0.1063597 125.17180987 -0.10657927 126.17534156 -0.10680549 C127.63991815 -0.10713291 127.63991815 -0.10713291 129.13408214 -0.10746694 C131.11270193 -0.10791041 133.09132173 -0.10835697 135.06994152 -0.10880661 C136.54214608 -0.10913875 136.54214608 -0.10913875 138.04409214 -0.10947761 C153.95149667 -0.11342658 169.85885541 -0.13088276 185.76624224 -0.15416613 C202.08710064 -0.17786243 218.40793604 -0.1903412 234.72881192 -0.19150805 C243.89682583 -0.19242579 253.06478009 -0.19820283 262.2327776 -0.21632767 C270.03891926 -0.23170545 277.84498286 -0.2368629 285.65113679 -0.22858956 C289.63552823 -0.22467478 293.61976234 -0.22565282 297.60413456 -0.23964691 C301.25035865 -0.25233647 304.8963064 -0.25123222 308.54252984 -0.2390562 C310.48927046 -0.23615804 312.43601562 -0.24807238 314.38271886 -0.26047826 C316.11485734 -0.25059349 316.11485734 -0.25059349 317.88198853 -0.24050903 C318.87842969 -0.24110612 319.87487085 -0.24170321 320.9015072 -0.24231839 C324.1213631 0.19877363 326.00376232 1.24908033 328.62975597 3.13142776 C330.7704515 6.1900818 330.87431308 8.77443463 330.85680676 12.4507637 C330.85665569 13.51156143 330.85650463 14.57235916 330.85634899 15.66530228 C330.84602642 16.80396744 330.83570385 17.9426326 330.82506847 19.11580276 C330.82082363 20.87189865 330.82082363 20.87189865 330.81649303 22.66347122 C330.80529753 26.40289401 330.78019373 30.14207735 330.75475597 33.88142776 C330.74472538 36.41658056 330.73559967 38.9517371 330.72741222 41.48689651 C330.70536023 47.70182197 330.67188873 53.91660776 330.62975597 60.13142776 C332.26680744 60.1181041 332.26680744 60.1181041 333.93693066 60.10451126 C344.22189995 60.02342547 354.50680439 59.96346233 364.7920208 59.92417908 C370.07978353 59.90330416 375.36728823 59.87498799 380.65490246 59.82966995 C385.75774516 59.7862092 390.86033966 59.76228994 395.96335316 59.75191879 C397.91023001 59.74452786 399.85709328 59.73009511 401.80386448 59.70850754 C404.53087629 59.67947055 407.25686249 59.67547188 409.98400402 59.6773262 C411.19133694 59.65575455 411.19133694 59.65575455 412.42306042 59.6337471 C416.18651435 59.66143802 418.36904389 59.96351167 421.56522655 62.02206802 C423.65257245 64.15473969 425.22495085 66.20108468 426.79381847 68.73689651 C427.35246593 69.62868607 427.9111134 70.52047562 428.48668957 71.43928909 C429.07015148 72.38956985 429.6536134 73.33985062 430.25475597 74.31892776 C431.50939221 76.32709781 432.76460574 78.33490728 434.02038097 80.34236526 C434.94367199 81.82688187 434.94367199 81.82688187 435.88561535 83.3413887 C438.21654569 87.07009419 440.60381554 90.76007353 443.00475597 94.44392776 C447.57815397 101.48620447 452.10719225 108.55641643 456.62975597 115.63142776 C461.11210015 122.6429829 465.60031163 129.65019434 470.12975597 136.63142776 C475.35834934 144.69092237 480.53572734 152.78296488 485.7098341 160.87752151 C486.34598644 161.87267776 486.98213879 162.86783401 487.63756847 163.89314651 C488.23943981 164.86286896 488.84131115 165.8325914 489.46142101 166.83169937 C491.54844436 170.13271615 491.54844436 170.13271615 493.95128918 172.96789932 C502.37357654 183.90931025 501.88447367 194.51076433 501.68444347 207.88924026 C501.68034093 210.16893035 501.67951202 212.44862844 501.68178844 214.72832108 C501.6770337 219.47758552 501.64205361 224.22530318 501.58336926 228.9742012 C501.50929182 235.06318249 501.49773285 241.15031094 501.50672245 247.23967552 C501.50924455 251.93406375 501.48619454 256.62803931 501.45458889 261.3223114 C501.44119838 263.56859241 501.43412874 265.81492032 501.43349361 268.06124115 C501.42736973 271.18981164 501.38854757 274.31625042 501.34020519 277.44441605 C501.34404217 278.37116638 501.34787914 279.29791672 501.35183239 280.2527504 C501.20681456 286.4673226 501.20681456 286.4673226 498.3904829 289.70848465 C495.52724169 291.18426602 493.93585455 291.61990322 490.7476759 291.58552933 C489.80707821 291.5852272 488.86648052 291.58492508 487.89737988 291.5846138 C486.89511868 291.56396866 485.89285748 291.54332352 484.86022472 291.52205276 C483.82408535 291.51639297 482.78794598 291.51073318 481.72040844 291.50490189 C478.4188829 291.48255443 475.11845217 291.43235955 471.81725597 291.38142776 C469.57573522 291.36136072 467.33419741 291.34311031 465.0926466 291.32674026 C459.60464437 291.2826951 454.1172784 291.21579894 448.62975597 291.13142776 C448.42503674 293.00121292 448.42503674 293.00121292 448.21618176 294.90877151 C447.02187288 305.81688655 439.6157509 316.08835947 431.42272472 322.99080276 C419.533279 331.9799152 406.30885858 335.04783031 391.62975597 334.13142776 C375.78898188 331.64468078 363.70625667 323.48110405 354.16881847 310.66658401 C350.57079346 304.73988799 347.62975597 298.10547459 347.62975597 291.13142776 C285.25975597 291.13142776 222.88975597 291.13142776 158.62975597 291.13142776 C158.29975597 293.77142776 157.96975597 296.41142776 157.62975597 299.13142776 C156.17663097 302.76424026 156.17663097 302.76424026 154.37975597 306.25642776 C153.79709972 307.41400589 153.21444347 308.57158401 152.61413097 309.76424026 C145.46788525 321.89035013 133.95475715 329.25506379 120.62975597 333.13142776 C104.43145509 336.42170763 89.30886101 332.82748542 75.60241222 323.79549026 C66.91425334 316.97893023 60.75306507 306.61253232 57.62975597 296.13142776 C57.59806791 294.46506237 57.59343399 292.7976986 57.62975597 291.13142776 C56.83906216 291.14031021 56.04836834 291.14919266 55.2337141 291.15834427 C47.77422099 291.23856503 40.31493767 291.29942978 32.85512543 291.33867645 C29.02013051 291.35953215 25.18549266 291.38781192 21.35070324 291.43318558 C17.64836345 291.47671684 13.94636663 291.50058006 10.24379063 291.51093674 C8.83278728 291.51831518 7.42180225 291.5327239 6.01094532 291.55434799 C4.0316115 291.58347255 2.05193096 291.58506243 0.07238293 291.58552933 C-1.05346714 291.59441177 -2.17931721 291.60329422 -3.33928394 291.61244583 C-7.34645902 290.97650093 -8.66809275 290.19880351 -11.37024403 287.13142776 C-12.1395663 283.42313713 -12.03969744 279.74684751 -11.99843311 275.97151566 C-12.0055275 274.81935845 -12.01262189 273.66720125 -12.01993126 272.4801302 C-12.03450415 269.28131241 -12.02660152 266.08345351 -12.00920832 262.88467836 C-11.9958555 259.43538249 -12.01126383 255.98619978 -12.02303028 252.53691483 C-12.04142701 245.77953451 -12.03288119 239.022443 -12.01494206 232.26507163 C-12.00092674 226.77414263 -11.99702094 221.28329213 -12.00038433 215.79234695 C-12.00086177 215.01139194 -12.00133922 214.23043692 -12.00183113 213.4258166 C-12.00285744 211.83941164 -12.00391279 210.2530067 -12.00499689 208.66660178 C-12.01356806 194.63300936 -11.99687549 180.59955653 -11.96716785 166.56599808 C-11.93832941 152.94289155 -11.93124634 139.31998613 -11.94666004 125.69685745 C-11.96341417 110.86867187 -11.96746449 96.04058182 -11.94994968 81.21239376 C-11.94810526 79.63176538 -11.94627053 78.05113698 -11.94444561 76.47050858 C-11.94353352 75.69277228 -11.94262143 74.91503598 -11.9416817 74.11373192 C-11.93607138 68.62825065 -11.93938809 63.14281594 -11.94599056 57.65733719 C-11.95371533 50.97397855 -11.94700228 44.29081802 -11.92181552 37.60749936 C-11.90930033 34.19632822 -11.90319801 30.78546581 -11.91435719 27.37428284 C-11.92300138 23.67964049 -11.90717961 19.98590603 -11.88490772 16.29133987 C-11.89314849 15.2084723 -11.90138926 14.12560472 -11.90987974 13.00992298 C-11.8288534 5.76505529 -11.8288534 5.76505529 -9.46307755 2.49643326 C-6.02738105 0.25557437 -4.09622555 0.00512668 0 0 Z M6.62975597 18.13142776 C6.62975597 91.06142776 6.62975597 163.99142776 6.62975597 239.13142776 C20.48975597 239.13142776 34.34975597 239.13142776 48.62975597 239.13142776 C48.62975597 245.07142776 48.62975597 251.01142776 48.62975597 257.13142776 C34.76975597 257.13142776 20.90975597 257.13142776 6.62975597 257.13142776 C6.62975597 262.41142776 6.62975597 267.69142776 6.62975597 273.13142776 C23.45975597 273.13142776 40.28975597 273.13142776 57.62975597 273.13142776 C58.94975597 268.84142776 60.26975597 264.55142776 61.62975597 260.13142776 C69.05333857 246.47203579 79.41271323 237.49307497 94.42272472 232.99470901 C108.73517204 229.64892009 123.76223282 231.88458758 136.37975597 239.25642776 C148.80053268 247.79006183 154.5610733 258.8910384 158.62975597 273.13142776 C209.44975597 273.13142776 260.26975597 273.13142776 312.62975597 273.13142776 C312.62975597 267.85142776 312.62975597 262.57142776 312.62975597 257.13142776 C264.77975597 257.13142776 216.92975597 257.13142776 167.62975597 257.13142776 C167.62975597 251.19142776 167.62975597 245.25142776 167.62975597 239.13142776 C215.47975597 239.13142776 263.32975597 239.13142776 312.62975597 239.13142776 C312.62975597 177.42142776 312.62975597 115.71142776 312.62975597 52.13142776 C216.92975597 52.13142776 121.22975597 52.13142776 22.62975597 52.13142776 C22.62975597 46.19142776 22.62975597 40.25142776 22.62975597 34.13142776 C118.32975597 34.13142776 214.02975597 34.13142776 312.62975597 34.13142776 C312.62975597 28.85142776 312.62975597 23.57142776 312.62975597 18.13142776 C211.64975597 18.13142776 110.66975597 18.13142776 6.62975597 18.13142776 Z M330.62975597 78.13142776 C330.62975597 142.48142776 330.62975597 206.83142776 330.62975597 273.13142776 C336.23975597 273.13142776 341.84975597 273.13142776 347.62975597 273.13142776 C348.18663097 271.33705276 348.74350597 269.54267776 349.31725597 267.69392776 C354.09345319 253.51511233 362.12021669 243.02004357 375.62975597 236.13142776 C388.54873953 230.30149927 404.40082408 229.96841577 417.70788097 234.81502151 C431.57432829 241.06233802 441.08488946 250.91475362 446.62975597 265.13142776 C447.28975597 267.77142776 447.94975597 270.41142776 448.62975597 273.13142776 C459.84975597 273.13142776 471.06975597 273.13142776 482.62975597 273.13142776 C482.62975597 267.85142776 482.62975597 262.57142776 482.62975597 257.13142776 C474.37975597 257.13142776 466.12975597 257.13142776 457.62975597 257.13142776 C457.62975597 251.19142776 457.62975597 245.25142776 457.62975597 239.13142776 C465.87975597 239.13142776 474.12975597 239.13142776 482.62975597 239.13142776 C482.65265935 232.17134474 482.67258816 225.21139144 482.68468761 218.25130081 C482.68972939 215.88150465 482.69656262 213.51171161 482.70519543 211.14192581 C482.71726787 207.74388738 482.72298568 204.34588991 482.72741222 200.94783401 C482.73257351 199.88118011 482.73773479 198.81452621 482.74305248 197.71554947 C482.74312801 196.73460815 482.74320354 195.75366684 482.74328136 194.74300003 C482.74550198 193.87474091 482.74772259 193.00648178 482.75001049 192.11191177 C482.84930265 190.12999096 482.84930265 190.12999096 481.62975597 189.13142776 C479.97077855 189.03401755 478.307643 189.00678187 476.64580822 189.00685501 C475.56623348 189.00429199 474.48665874 189.00172897 473.37436962 188.99908829 C471.58217747 189.00223793 471.58217747 189.00223793 469.75377941 189.0054512 C468.50345425 189.00358307 467.25312908 189.00171494 465.96491528 188.99979019 C463.23878676 188.99577469 460.51270496 188.99343692 457.78657818 188.99332809 C453.47525225 188.99219004 449.16401242 188.97936791 444.8527174 188.96376419 C444.12575185 188.96119134 443.39878629 188.95861848 442.64979148 188.95596766 C441.16287765 188.95070075 439.67596389 188.94541527 438.1890502 188.94011164 C428.14827634 188.90497859 418.10760808 188.8784485 408.06676769 188.88093948 C401.29930965 188.88252817 394.53214373 188.86648828 387.76477933 188.83023286 C384.18240779 188.81176763 380.60052393 188.802434 377.01811504 188.81470871 C373.01944317 188.82827582 369.02190592 188.80321454 365.02331066 188.77498245 C363.83661282 188.78517914 362.64991497 188.79537582 361.42725658 188.8058815 C353.54331904 188.70583883 353.54331904 188.70583883 349.3955946 186.09791946 C347.16612462 182.35255786 346.9255676 179.26539855 346.98278332 175.02400589 C346.96964092 173.82063835 346.96964092 173.82063835 346.95623302 172.59296036 C346.93427973 169.94897778 346.94877631 167.30667644 346.96569347 164.66267776 C346.96232415 162.82091832 346.95747055 160.97916105 346.95119762 159.13740921 C346.94383184 155.28054475 346.95452215 151.42425992 346.97790051 147.56746292 C347.00638832 142.62737008 346.98998274 137.6886354 346.96003819 132.74859238 C346.94195713 128.94636708 346.9477269 125.14446299 346.96067715 121.34222794 C346.96400894 119.52098809 346.95993205 117.69971895 346.94827938 115.87851334 C346.93555697 113.33117485 346.95496473 110.78602533 346.98278332 108.23884964 C346.96760159 107.1134301 346.96760159 107.1134301 346.95211315 105.96527481 C347.02825309 102.19572249 347.53825069 100.25974063 349.74457836 97.16592789 C353.2595481 94.68732611 355.16410663 94.49580058 359.43957043 94.47200394 C360.10354336 94.46152023 360.76751629 94.45103653 361.45160961 94.44023514 C363.6325663 94.41157731 365.81192671 94.4177646 367.99303722 94.42439651 C369.51048799 94.41127563 371.02792131 94.39597019 372.54532909 94.37857437 C376.52874513 94.3387561 380.51170396 94.32853607 384.49529552 94.324543 C388.56434502 94.31520543 392.63312655 94.27778808 396.7020216 94.24275589 C404.67793803 94.17821254 412.65359061 94.14494596 420.62975597 94.13142776 C420.15924816 93.39537308 419.68874035 92.65931839 419.20397472 91.90095901 C418.27004894 90.43722855 418.27004894 90.43722855 417.31725597 88.94392776 C416.70237316 87.98099808 416.08749035 87.01806839 415.45397472 86.02595901 C413.80968495 83.41692534 412.21643499 80.77589279 410.62975597 78.13142776 C384.22975597 78.13142776 357.82975597 78.13142776 330.62975597 78.13142776 Z M364.62975597 112.13142776 C364.62975597 131.60142776 364.62975597 151.07142776 364.62975597 171.13142776 C399.27975597 171.13142776 433.92975597 171.13142776 469.62975597 171.13142776 C465.01910859 162.67857422 460.28446778 154.64395657 454.85094738 146.73541641 C451.28090936 141.46987903 448.15613764 136.32671815 445.56676769 130.50911331 C439.79647654 118.23426537 439.79647654 118.23426537 429.00432873 110.82320023 C419.51866971 108.84275836 409.59509487 109.72714795 400.00890636 110.414814 C395.31137346 110.71910519 390.60555528 110.83092669 385.90093517 110.9761467 C378.79377795 111.21656705 371.73959273 111.6948248 364.62975597 112.13142776 Z M80.62975597 262.13142776 C75.09017312 270.80926053 73.62182031 278.90484456 74.62975597 289.13142776 C77.7579528 300.12554692 83.16233946 306.76991213 92.86022472 312.65095901 C100.72782711 316.85663081 109.1468383 317.21802897 117.69225597 315.00642776 C126.76162117 311.98798579 134.53321441 305.05961501 138.95397472 296.59627151 C142.43378527 288.11041773 143.17525432 279.58031609 140.00475597 270.88142776 C135.75854183 261.61696055 129.37874192 254.59909475 120.06725597 250.25642776 C104.81560717 245.23270913 90.80271449 250.53353357 80.62975597 262.13142776 Z M381.62975597 253.13142776 C380.93366222 253.55552933 380.23756847 253.97963089 379.52038097 254.41658401 C371.62952049 259.7414316 366.48630273 267.80266391 364.62975597 277.13142776 C363.53276466 286.23239274 365.19069629 294.39511963 370.61803722 301.86970901 C377.70122709 310.12731378 384.86767329 315.24090757 395.78209972 316.35017776 C405.54326841 316.76189666 414.21022557 313.41168287 421.62975597 307.13142776 C428.22185261 300.30442346 431.79310159 292.16513776 432.12975597 282.69392776 C431.72451475 272.23133613 428.39063086 264.84453257 421.14538097 257.29939651 C410.3787811 248.02072737 393.92316363 245.36334931 381.62975597 253.13142776 Z " fill="#000000" transform="translate(11.370244026184082,105.86857223510742)"/>
<path d="M0 0 C39.6 0 79.2 0 120 0 C120 5.94 120 11.88 120 18 C80.4 18 40.8 18 0 18 C0 12.06 0 6.12 0 0 Z " fill="#000000" transform="translate(34,72)"/>
<path d="M0 0 C5.94 0 11.88 0 18 0 C18 5.94 18 11.88 18 18 C12.06 18 6.12 18 0 18 C0 12.06 0 6.12 0 0 Z " fill="#000000" transform="translate(401,379)"/>
<path d="M0 0 C5.94 0 11.88 0 18 0 C18 5.94 18 11.88 18 18 C12.06 18 6.12 18 0 18 C0 12.06 0 6.12 0 0 Z " fill="#000000" transform="translate(110,379)"/>
<path d="M0 0 C5.94 0 11.88 0 18 0 C18 5.94 18 11.88 18 18 C12.06 18 6.12 18 0 18 C0 12.06 0 6.12 0 0 Z " fill="#000000" transform="translate(0,72)"/>
</svg>
