{
  "accessors": [
    {
      "bufferView": 2,
      "componentType": 5126,
      "count": 12098,
      "max": [
        0.99034583568573,
        3.4169623851776123,
        1.0974795818328857
      ],
      "min": [
        -0.9032919406890869,
        9.117089211940765e-05,
        -0.5838888883590698
      ],
      "type": "VEC3"
    },
    {
      "bufferView": 2,
      "byteOffset": 145176,
      "componentType": 5126,
      "count": 12098,
      "max": [
        0.9998906254768372,
        0.9998284578323364,
        0.9998664855957031
      ],
      "min": [
        -0.9998980164527893,
        -1.0,
        -0.9999408721923828
      ],
      "type": "VEC3"
    },
    {
      "bufferView": 1,
      "componentType": 5126,
      "count": 12098,
      "max": [
        0.9943455457687378,
        0.992588222026825
      ],
      "min": [
        0.006698118057101965,
        0.005659580230712891
      ],
      "type": "VEC2"
    },
    {
      "bufferView": 1,
      "byteOffset": 96784,
      "componentType": 5126,
      "count": 12098,
      "max": [
        0.9943455457687378,
        0.992588222026825
      ],
      "min": [
        0.006698118057101965,
        0.005659580230712891
      ],
      "type": "VEC2"
    },
    {
      "bufferView": 1,
      "byteOffset": 193568,
      "componentType": 5126,
      "count": 12098,
      "max": [
        0.9943455457687378,
        0.992588222026825
      ],
      "min": [
        0.006698118057101965,
        0.005659580230712891
      ],
      "type": "VEC2"
    },
    {
      "bufferView": 0,
      "componentType": 5125,
      "count": 59280,
      "type": "SCALAR"
    }
  ],
  "asset": {
    "extras": {
      "author": "Julialovehearts (https://sketchfab.com/Julialovehearts)",
      "license": "CC-BY-4.0 (http://creativecommons.org/licenses/by/4.0/)",
      "source": "https://sketchfab.com/3d-models/rose-3d-4aad2c8cd1564bc49fddb00df80d5776",
      "title": "Rose 3D"
    },
    "generator": "Sketchfab-12.66.0",
    "version": "2.0"
  },
  "bufferViews": [
    {
      "buffer": 0,
      "byteLength": 237120,
      "name": "floatBufferViews",
      "target": 34963
    },
    {
      "buffer": 0,
      "byteLength": 290352,
      "byteOffset": 237120,
      "byteStride": 8,
      "name": "floatBufferViews",
      "target": 34962
    },
    {
      "buffer": 0,
      "byteLength": 290352,
      "byteOffset": 527472,
      "byteStride": 12,
      "name": "floatBufferViews",
      "target": 34962
    }
  ],
  "buffers": [
    {
      "byteLength": 817824,
      "uri": "scene.bin"
    }
  ],
  "extensionsRequired": [
    "KHR_materials_pbrSpecularGlossiness"
  ],
  "extensionsUsed": [
    "KHR_materials_pbrSpecularGlossiness"
  ],
  "images": [
    {
      "uri": "textures/material_diffuse.png"
    },
    {
      "uri": "textures/material_specularGlossiness.png"
    }
  ],
  "materials": [
    {
      "doubleSided": true,
      "extensions": {
        "KHR_materials_pbrSpecularGlossiness": {
          "diffuseFactor": [
            1.0,
            1.0,
            1.0,
            1.0
          ],
          "diffuseTexture": {
            "index": 0
          },
          "glossinessFactor": 1.0,
          "specularFactor": [
            1.0,
            1.0,
            1.0
          ],
          "specularGlossinessTexture": {
            "index": 1
          }
        }
      },
      "name": "material"
    }
  ],
  "meshes": [
    {
      "name": "Object_0",
      "primitives": [
        {
          "attributes": {
            "NORMAL": 1,
            "POSITION": 0,
            "TEXCOORD_0": 2,
            "TEXCOORD_1": 3,
            "TEXCOORD_2": 4
          },
          "indices": 5,
          "material": 0,
          "mode": 4
        }
      ]
    }
  ],
  "nodes": [
    {
      "children": [
        1
      ],
      "matrix": [
        1.0,
        0.0,
        0.0,
        0.0,
        0.0,
        2.220446049250313e-16,
        -1.0,
        0.0,
        0.0,
        1.0,
        2.220446049250313e-16,
        0.0,
        0.0,
        0.0,
        0.0,
        1.0
      ],
      "name": "Sketchfab_model"
    },
    {
      "children": [
        2
      ],
      "name": "root"
    },
    {
      "children": [
        3
      ],
      "matrix": [
        1.0,
        0.0,
        0.0,
        0.0,
        0.0,
        2.220446049250313e-16,
        1.0,
        0.0,
        0.0,
        -1.0,
        2.220446049250313e-16,
        0.0,
        0.0,
        0.0,
        0.0,
        1.0
      ],
      "name": "GLTF_SceneRootNode"
    },
    {
      "children": [
        4
      ],
      "name": "root_0"
    },
    {
      "children": [
        5
      ],
      "matrix": [
        0.10992186516523361,
        0.0,
        0.0,
        0.0,
        0.0,
        0.10992186516523361,
        0.0,
        0.0,
        0.0,
        0.0,
        0.10992186516523361,
        0.0,
        0.02109174057841301,
        -0.1000465378165245,
        0.2613351047039032,
        1.0
      ],
      "name": "node_id30_1"
    },
    {
      "mesh": 0,
      "name": "Object_5"
    }
  ],
  "samplers": [
    {
      "magFilter": 9729,
      "minFilter": 9987,
      "wrapS": 10497,
      "wrapT": 10497
    }
  ],
  "scene": 0,
  "scenes": [
    {
      "name": "Sketchfab_Scene",
      "nodes": [
        0
      ]
    }
  ],
  "textures": [
    {
      "sampler": 0,
      "source": 0
    },
    {
      "sampler": 0,
      "source": 1
    }
  ]
}
