<?xml version="1.0" encoding="UTF-8"?>
<svg version="1.1" xmlns="http://www.w3.org/2000/svg" width="512" height="512">
<path d="M0 0 C0.71267029 -0.00794586 1.42534058 -0.01589172 2.15960693 -0.02407837 C24.07020212 -0.21164209 43.08741523 4.38658608 59.5625 19.6875 C68.96251373 29.62722744 74.10868079 42.16161677 76.8125 55.375 C77.90602783 55.3843457 78.99955566 55.39369141 80.1262207 55.40332031 C84.23241033 55.44357344 88.33787818 55.50942504 92.44360352 55.58251953 C94.21141194 55.61052633 95.97934086 55.63184045 97.74731445 55.64599609 C112.04594274 55.76727369 124.10888965 56.80861543 134.8125 67.375 C141.89986518 75.48385375 147.77487722 85.06118184 147.12109375 96.1953125 C145.75979225 105.81058129 141.20142069 112.05406541 133.6640625 118.09765625 C121.93410038 125.92430333 106.7196772 128.5917252 92.875 128.4375 C92.09576172 128.43298828 91.31652344 128.42847656 90.51367188 128.42382812 C88.61324732 128.41216908 86.71286294 128.39423877 84.8125 128.375 C84.85890625 129.5403125 84.9053125 130.705625 84.953125 131.90625 C85.64168031 157.30921059 81.40398186 187.5732673 64.375 207.6875 C63.529375 208.574375 62.68375 209.46125 61.8125 210.375 C65.76723214 219.19909678 75.64857999 229.36403612 84.29248047 233.58642578 C89.05698109 235.20660569 93.82421241 235.85835593 98.8125 236.375 C99.4725 236.705 100.1325 237.035 100.8125 237.375 C100.80250725 236.29505013 100.80250725 236.29505013 100.79231262 235.19328308 C100.73221543 228.41012593 100.6865327 221.62700854 100.65706348 214.84365368 C100.64140365 211.35618424 100.6201602 207.86893468 100.58618164 204.3815918 C100.5473672 200.37286257 100.5327935 196.36436452 100.51953125 192.35546875 C100.50404739 191.10227341 100.48856354 189.84907806 100.47261047 188.5579071 C100.47227058 186.81644157 100.47227058 186.81644157 100.47192383 185.03979492 C100.46193108 183.50424202 100.46193108 183.50424202 100.45173645 181.93766785 C100.87847248 178.9063674 101.45230031 178.23829091 103.8125 176.375 C105.67449564 175.99780184 105.67449564 175.99780184 107.80931759 175.99468327 C108.62445511 175.98624332 109.43959263 175.97780338 110.27943128 175.96910769 C111.17455523 175.97511773 112.06967918 175.98112778 112.9919281 175.98731995 C113.94313681 175.98193441 114.89434552 175.97654887 115.87437874 175.97100013 C119.07580624 175.95664217 122.27682482 175.96384362 125.47827148 175.97094727 C127.76776463 175.9652478 130.05725494 175.9582852 132.34674072 175.95014954 C138.57601256 175.93215623 144.80514402 175.93339811 151.03443408 175.93909192 C156.22855402 175.94217487 161.42264664 175.93610131 166.6167627 175.93005317 C179.56809386 175.91518439 192.51933681 175.91883853 205.47066648 175.93091648 C216.72282605 175.94084934 227.9748212 175.9279091 239.22695541 175.90398229 C250.77581915 175.87960921 262.32458757 175.87037909 273.87347847 175.87663502 C280.35924575 175.88001279 286.84487716 175.87753513 293.33062553 175.86038399 C299.42833058 175.84496384 305.52572071 175.84881566 311.62341309 175.86768913 C313.86480205 175.87138869 316.10621409 175.86822706 318.34758186 175.85780334 C321.400785 175.84468534 324.45293146 175.85605953 327.50608826 175.87379456 C328.8454281 175.85938705 328.8454281 175.85938705 330.21182531 175.84468848 C333.85837107 175.88845303 336.17130919 176.00375618 339.36282539 177.85161591 C341.49236457 181.55841001 341.36075846 185.09259897 341.31370544 189.25035095 C341.31923984 190.15678945 341.32477424 191.06322794 341.33047634 191.99713427 C341.34411381 195.04125392 341.32909664 198.08455807 341.31420898 201.12866211 C341.31799105 203.30830738 341.32349017 205.48795026 341.33058167 207.66758728 C341.34456889 213.59321877 341.33334306 219.51856095 341.31687045 225.44417644 C341.30304162 231.63983446 341.30947762 237.83547531 341.31300354 244.03114319 C341.31588089 255.10473837 341.29931895 266.17820699 341.27458281 277.25177158 C341.25263063 287.29085083 341.24870016 297.32979952 341.25854492 307.36889648 C341.27113657 320.2699522 341.26866093 333.17091035 341.25288582 346.07196236 C341.24712256 350.99969696 341.24721141 355.92738053 341.25195122 360.85511589 C341.25671905 366.65733268 341.24662713 372.45933809 341.22499657 378.26151466 C341.21942566 380.39282391 341.21896617 382.52415347 341.22394943 384.65546417 C341.22989246 387.56143353 341.21741565 390.46675451 341.20018005 393.37266541 C341.20919512 394.64241216 341.20919512 394.64241216 341.21839231 395.93781036 C341.16359284 401.0074612 340.57417394 404.61332606 336.8125 408.375 C334.9406906 408.46886381 333.0653194 408.49243804 331.19116211 408.48852539 C329.38940773 408.48841209 329.38940773 408.48841209 327.55125427 408.48829651 C326.2439888 408.48313522 324.93672333 408.47797394 323.58984375 408.47265625 C322.24605868 408.47079198 320.90227293 408.46936812 319.55848694 408.46836853 C316.01567723 408.46454402 312.4729083 408.45471432 308.93011475 408.44366455 C305.31734773 408.43344899 301.70457416 408.4288706 298.09179688 408.42382812 C290.9986812 408.41309198 283.90559326 408.39601636 276.8125 408.375 C276.7206694 409.4064212 276.7206694 409.4064212 276.62698364 410.4586792 C276.50055984 411.81089569 276.50055984 411.81089569 276.37158203 413.19042969 C276.24881393 414.53122589 276.24881393 414.53122589 276.12356567 415.89910889 C275.35971538 421.9788866 272.15359214 427.47770898 267.75 431.6875 C259.4527656 438.10645936 249.50419138 440.51735886 239.234375 440.53271484 C238.48709137 440.53779556 237.73980774 440.54287628 236.96987915 440.54811096 C235.34994668 440.55878684 233.72999971 440.56741786 232.11004639 440.57423019 C229.52462375 440.58611156 226.93936133 440.60559624 224.35400391 440.62734985 C217.00331183 440.68859199 209.65263122 440.74254866 202.30175781 440.77636719 C175.76348896 440.69177497 175.76348896 440.69177497 149.453125 443.74072266 C146.45897594 444.2623696 143.83450539 444.51405389 140.8125 444.375 C140.82821045 445.49994873 140.8439209 446.62489746 140.86010742 447.78393555 C140.91451216 451.96778165 140.94888836 456.15159662 140.97729492 460.33569336 C140.99235755 462.14466617 141.01281177 463.9536026 141.03881836 465.76245117 C141.0753132 468.36646515 141.09225157 470.9699952 141.10546875 473.57421875 C141.12095261 474.37961594 141.13643646 475.18501312 141.15238953 476.01481628 C141.15377388 480.66050315 140.7456115 483.55244853 137.8125 487.375 C136.24308802 488.94441198 134.67115006 488.6199847 132.5 488.6875 C131.72011719 488.72488281 130.94023437 488.76226562 130.13671875 488.80078125 C126.82280602 488.19369472 125.84451702 487.05276389 123.8125 484.375 C123.46326404 481.55482573 123.34400791 479.13779737 123.421875 476.328125 C123.42753479 475.55692322 123.43319458 474.78572144 123.43902588 473.9911499 C123.46136411 471.53512721 123.51155237 469.08057945 123.5625 466.625 C123.58256846 464.95705237 123.60081863 463.28908179 123.6171875 461.62109375 C123.66122008 457.53849677 123.73022717 453.45699819 123.8125 449.375 C123.16723862 449.60335541 122.52197723 449.83171082 121.85716248 450.06698608 C-7.91088414 495.97319596 -7.91088414 495.97319596 -37.32421875 482.7734375 C-48.06573384 477.5272405 -59.10591619 470.19350968 -66.1875 460.375 C-66.20208252 460.98496826 -66.21666504 461.59493652 -66.23168945 462.22338867 C-66.30644775 465.00371064 -66.40301482 467.78286824 -66.5 470.5625 C-66.52255859 471.52220703 -66.54511719 472.48191406 -66.56835938 473.47070312 C-66.90727437 482.37492436 -66.90727437 482.37492436 -70.1875 486.375 C-72.88281332 488.49274618 -74.25964132 488.37246873 -77.75 488.25 C-81.1875 487.375 -81.1875 487.375 -82.88105774 485.62982178 C-84.41381495 482.9843973 -84.55157967 481.46263719 -84.52807617 478.42285156 C-84.52773628 476.95177948 -84.52773628 476.95177948 -84.52738953 475.45098877 C-84.51190567 474.39981873 -84.49642181 473.34864868 -84.48046875 472.265625 C-84.47622391 471.18367859 -84.47197906 470.10173218 -84.46760559 468.98699951 C-84.45081845 465.5327461 -84.41316527 462.07907696 -84.375 458.625 C-84.35995325 456.28256051 -84.34626483 453.94011187 -84.33398438 451.59765625 C-84.30091481 445.85657162 -84.25071466 440.11582755 -84.1875 434.375 C-85.44014648 434.38490967 -86.69279297 434.39481934 -87.98339844 434.4050293 C-91.61487531 434.43375786 -94.88891047 434.02819987 -98.4375 433.1875 C-99.43265625 432.96707031 -100.4278125 432.74664062 -101.453125 432.51953125 C-107.17839311 430.1230976 -109.53830788 424.14643152 -112.22167969 418.85351562 C-112.60265305 418.11288879 -112.9836264 417.37226196 -113.37614441 416.60919189 C-114.62766181 414.17010128 -115.8696102 411.72633366 -117.109375 409.28125 C-117.74927746 408.02165718 -117.74927746 408.02165718 -118.40210724 406.73661804 C-120.65939161 402.29034417 -122.90855162 397.84006119 -125.15185547 393.38671875 C-127.45916207 388.81082929 -129.79600279 384.25071591 -132.13984299 379.69345856 C-133.94687744 376.16572512 -135.73046013 372.62650229 -137.50815582 369.08390808 C-138.358921 367.39873676 -139.21842382 365.71794481 -140.08712006 364.04194641 C-145.86557865 352.86948107 -149.04275156 344.37157162 -146.41015625 331.60546875 C-135.80533788 303.79013707 -115.75475426 283.75265987 -95 263.125 C-93.55640469 261.68643464 -92.11304381 260.24763399 -90.66992188 258.80859375 C-87.17847048 255.3280182 -83.68388804 251.85061615 -80.1875 248.375 C-80.9609375 246.8590625 -80.9609375 246.8590625 -81.75 245.3125 C-83.43489734 241.27174928 -83.52713674 238.64162893 -82.1875 234.375 C-80.24110441 231.66390039 -77.93928172 229.42611883 -75.52734375 227.12890625 C-74.86287735 226.47292953 -74.19841095 225.81695282 -73.5138092 225.14109802 C-71.39792044 223.05867174 -69.26210055 220.99812952 -67.125 218.9375 C-65.68287642 217.52548474 -64.24210475 216.11208733 -62.80273438 214.69726562 C-59.27978253 211.24030362 -55.73880998 207.80281369 -52.1875 204.375 C-52.69117851 203.47483658 -52.69117851 203.47483658 -53.20503235 202.55648804 C-53.8717823 201.36136093 -53.8717823 201.36136093 -54.55200195 200.14208984 C-54.99091263 199.3563559 -55.4298233 198.57062195 -55.8820343 197.76107788 C-57.81690997 194.22458969 -59.60021949 190.61875323 -61.375 187 C-64.12147844 180.14797706 -64.12147844 180.14797706 -69.21875 175.5234375 C-70.0334375 175.26820313 -70.848125 175.01296875 -71.6875 174.75 C-79.38079779 171.80647737 -86.09838735 166.48053675 -89.8125 159 C-92.8387175 149.80606301 -92.89266664 137.41740713 -89.25 128.4375 C-88.56394413 127.08260113 -87.87662442 125.72834073 -87.1875 124.375 C-86.3781192 122.36869522 -86.3781192 122.36869522 -86.1875 120.375 C-88.02723235 117.2820643 -88.02723235 117.2820643 -90.1875 114.375 C-91.21754874 111.28485377 -91.32630007 109.12452819 -91.34863281 105.88476562 C-91.35824036 104.75929321 -91.3678479 103.6338208 -91.37774658 102.47424316 C-91.38199646 101.25555542 -91.38624634 100.03686768 -91.390625 98.78125 C-91.39632507 97.52421265 -91.40202515 96.26717529 -91.40789795 94.9720459 C-91.41735538 92.30554591 -91.42424747 89.63915861 -91.42773438 86.97265625 C-91.4331836 83.58485588 -91.45713538 80.19746467 -91.48570633 76.80979156 C-91.5090329 73.55030954 -91.51079719 70.29080372 -91.515625 67.03125 C-91.5279718 65.8287561 -91.5403186 64.62626221 -91.55303955 63.3873291 C-91.51382302 48.35081795 -86.89289293 34.43425698 -76.375 23.3984375 C-55.56472961 4.14893739 -27.13412174 0.15847385 0 0 Z M-14.08203125 30.12109375 C-23.22984204 39.91383368 -26.18454147 52.70735863 -27.59765625 65.6953125 C-28.24654033 68.64322297 -28.69001945 69.7081295 -31.1875 71.375 C-33.37890625 71.73828125 -33.37890625 71.73828125 -35.75 71.6875 C-36.53503906 71.68363281 -37.32007813 71.67976563 -38.12890625 71.67578125 C-40.1875 71.375 -40.1875 71.375 -42.1875 69.375 C-44.1709973 51.64879782 -39.10085901 36.8512836 -29.1875 22.375 C-28.8575 21.715 -28.5275 21.055 -28.1875 20.375 C-42.20185675 21.21586141 -55.98616261 27.56087908 -65.625 37.75 C-76.11789743 50.49597356 -75.52265152 66.47052923 -75.44824219 82.17089844 C-75.4374086 84.89800684 -75.44825336 87.62447257 -75.4609375 90.3515625 C-75.45961765 92.09895978 -75.45705889 93.84635665 -75.453125 95.59375 C-75.45717346 96.40211304 -75.46122192 97.21047607 -75.46539307 98.04333496 C-75.42135734 103.34140971 -75.11016063 107.45233937 -71.1875 111.375 C-63.22549749 114.24808109 -52.37281893 113.48560158 -44.8125 110 C-36.04984997 104.90818985 -29.98628441 97.72558161 -24.3125 89.5 C-13.60638759 73.99982309 0.95583771 61.55295588 19.8125 57.375 C21.15460855 57.26674894 22.50056019 57.20027136 23.84667969 57.16967773 C24.62718689 57.14973251 25.40769409 57.12978729 26.21185303 57.10923767 C27.04428528 57.09252518 27.87671753 57.07581268 28.734375 57.05859375 C29.59436096 57.03781265 30.45434692 57.01703156 31.34039307 56.99562073 C34.08101598 56.93036261 36.82173275 56.87135083 39.5625 56.8125 C41.4231867 56.76929219 43.28386398 56.72567718 45.14453125 56.68164062 C49.70042523 56.57470558 54.2564134 56.47337149 58.8125 56.375 C57.36190553 45.08352597 52.14583765 35.40919146 43.22265625 28.31640625 C36.14583439 23.24824867 29.2672781 20.34070799 20.8125 18.375 C20.09449219 18.189375 19.37648438 18.00375 18.63671875 17.8125 C6.73785832 15.44750911 -5.70331381 22.29038193 -14.08203125 30.12109375 Z M-10.00390625 97.73828125 C-16.468011 104.49088035 -16.468011 104.49088035 -20.1875 112.375 C-14.56831172 112.5247324 -8.95031608 112.63286031 -3.32958984 112.70458984 C-1.42280823 112.73452918 0.48383847 112.77529664 2.39013672 112.82763672 C15.89778115 113.18887944 24.85147216 112.52716785 35.85546875 104.0234375 C40.82468237 98.75552798 45.18811741 93.29014042 49.4296875 87.421875 C52.84797931 83.05094449 56.7228172 79.29226787 60.72265625 75.45703125 C61.41230469 74.76996094 62.10195312 74.08289063 62.8125 73.375 C62.8125 73.045 62.8125 72.715 62.8125 72.375 C58.19013884 72.29991166 53.56814553 72.24596338 48.9453125 72.21020508 C47.37819217 72.19527248 45.81111246 72.17491885 44.24414062 72.14868164 C20.21135597 71.75684276 5.89918254 79.68076332 -10.00390625 97.73828125 Z M78.8125 82.375 C79.43512277 85.68795129 80.06104237 89.0002719 80.6875 92.3125 C80.86152344 93.23869141 81.03554687 94.16488281 81.21484375 95.11914062 C82.30977022 100.89791924 83.50671122 106.64011685 84.8125 112.375 C98.98502111 111.99807125 115.56574856 111.10996815 126.8125 101.375 C128.94141459 98.34994988 129.79112697 96.92001234 129.9375 93.1875 C127.78180258 85.88208097 123.50492287 80.11606002 117.25 75.75 C103.97766434 68.64990554 90.2652282 74.98861371 78.8125 82.375 Z M63.8125 95.375 C62.45021541 97.14475364 61.12392564 98.94223618 59.8125 100.75 C51.18105492 112.40522179 40.76619241 125.29295272 25.48592186 127.74895096 C23.02739469 127.88746264 20.59584361 127.91284326 18.13354492 127.88916016 C17.21206665 127.89628525 16.29058838 127.90341034 15.34118652 127.91075134 C12.32489031 127.92989959 9.30930476 127.92178024 6.29296875 127.9140625 C4.18548058 127.92397623 2.07800107 127.93592004 -0.02946472 127.94979858 C-5.55658682 127.98206809 -11.08351075 127.99254558 -16.61071777 127.99664307 C-25.47429293 128.00542204 -34.3377063 128.04085248 -43.20114708 128.0888176 C-46.29446335 128.10140957 -49.38757453 128.10064478 -52.48091125 128.09854126 C-54.37244832 128.10511988 -56.26398396 128.1121258 -58.15551758 128.11962891 C-59.01531723 128.11550491 -59.87511688 128.11138092 -60.76097107 128.10713196 C-61.55280792 128.1125148 -62.34464478 128.11789764 -63.16047668 128.1234436 C-63.84566281 128.12377909 -64.53084894 128.12411457 -65.23679829 128.12446022 C-67.6022595 128.42826993 -69.16469209 129.1191799 -71.1875 130.375 C-75.23347367 136.68708591 -74.96223647 143.1183017 -74.1875 150.375 C-72.61907968 154.98750491 -69.39395912 157.17275963 -65.1875 159.375 C-62.11334432 160.0936338 -59.04428256 160.62799838 -55.9296875 161.140625 C-53.1875 162.375 -53.1875 162.375 -51.515625 165.50390625 C-51.05849505 166.78923253 -50.61620638 168.07991612 -50.1875 169.375 C-49.69454757 170.63273198 -49.19182035 171.88667404 -48.6796875 173.13671875 C-48.42010254 173.77480469 -48.16051758 174.41289062 -47.89306641 175.0703125 C-41.06093258 191.45779398 -30.48675878 203.82821991 -14.1875 211.375 C-13.30835938 211.79007812 -12.42921875 212.20515625 -11.5234375 212.6328125 C1.60198077 217.91995282 17.17907005 216.85872887 30.25390625 211.91796875 C45.44897578 205.32954672 55.09001861 194.08521808 61.25390625 178.80078125 C67.29278986 161.5494033 69.29076368 144.3500959 68.5625 126.125 C68.51875244 124.95928467 68.47500488 123.79356934 68.42993164 122.5925293 C68.00949312 113.32944316 66.83992528 104.4155316 64.8125 95.375 C64.4825 95.375 64.1525 95.375 63.8125 95.375 Z M196.8125 192.375 C196.8125 206.235 196.8125 220.095 196.8125 234.375 C202.7416691 232.3986103 207.72550234 229.82536784 213.1796875 226.8359375 C218.18551326 224.82284198 222.07848148 224.35083725 227.10009766 226.23193359 C229.51300258 227.36826958 231.84930754 228.59226839 234.1875 229.875 C235.77698374 230.72187694 237.36805452 231.5657841 238.9609375 232.40625 C239.65364746 232.78330078 240.34635742 233.16035156 241.06005859 233.54882812 C242.7911032 234.51714269 242.7911032 234.51714269 244.8125 234.375 C244.8125 220.515 244.8125 206.655 244.8125 192.375 C228.9725 192.375 213.1325 192.375 196.8125 192.375 Z M116.8125 192.375 C116.8125 252.765 116.8125 313.155 116.8125 375.375 C125.48022874 373.81511282 125.48022874 373.81511282 133.95184422 371.8033371 C143.36064659 369.32870124 152.25265594 368.78354393 161.94140625 368.84375 C163.51220437 368.84104408 165.08300084 368.83715264 166.65379333 368.83215332 C169.90844031 368.82632535 173.16264194 368.83461081 176.41723633 368.85351562 C180.56962891 368.87647457 184.7209965 368.86303421 188.873353 368.83922577 C192.10175736 368.82473034 195.3299206 368.82938785 198.55833244 368.83973694 C200.08961043 368.84238504 201.62091103 368.83920275 203.15216255 368.82981873 C212.12405776 368.78681458 219.27134697 368.83230479 226.5014801 374.75964355 C231.95180852 380.1825664 231.7535878 384.1393512 233.8125 392.375 C263.8425 392.375 293.8725 392.375 324.8125 392.375 C324.8125 326.375 324.8125 260.375 324.8125 192.375 C303.6925 192.375 282.5725 192.375 260.8125 192.375 C260.56283744 211.98583664 260.56283744 211.98583664 260.33447266 231.59692383 C260.29927668 234.0503042 260.26335655 236.50367433 260.2265625 238.95703125 C260.20952271 240.87727112 260.20952271 240.87727112 260.19213867 242.83630371 C260.17207764 244.05410522 260.1520166 245.27190674 260.13134766 246.52661133 C260.11802399 247.58584305 260.10470032 248.64507477 260.0909729 249.73640442 C259.8125 252.375 259.8125 252.375 257.8125 255.375 C249.69731119 256.84264053 243.63583353 252.5993027 236.6875 248.8125 C234.40124807 247.56719518 232.10719298 246.33608367 229.8046875 245.12109375 C228.79776855 244.57122803 227.79084961 244.0213623 226.75341797 243.45483398 C222.16821288 241.77125752 219.21062706 242.76033393 214.83984375 244.68188477 C213.82019531 245.22127686 212.80054688 245.76066895 211.75 246.31640625 C210.62335938 246.89970703 209.49671875 247.48300781 208.3359375 248.08398438 C205.98536768 249.32050919 203.63640759 250.56009881 201.2890625 251.80273438 C200.16242188 252.38474609 199.03578125 252.96675781 197.875 253.56640625 C196.85535156 254.10467041 195.83570313 254.64293457 194.78515625 255.19750977 C191.45412865 256.51695343 189.35775516 256.90045746 185.8125 256.375 C183.06594997 254.25749814 181.94157082 253.06112608 181.29351807 249.6161499 C181.28463562 248.55913879 181.27575317 247.50212769 181.26660156 246.41308594 C181.23687256 244.58656494 181.23687256 244.58656494 181.20654297 242.72314453 C181.20485107 240.81057861 181.20485107 240.81057861 181.203125 238.859375 C181.18749512 237.68391113 181.17186523 236.50844727 181.15576172 235.29736328 C181.10316296 230.90678052 181.08489525 226.5158407 181.0625 222.125 C180.93875 207.39875 180.93875 207.39875 180.8125 192.375 C159.6925 192.375 138.5725 192.375 116.8125 192.375 Z M-45.2722168 222.11914062 C-46.05250244 222.91513672 -46.83278809 223.71113281 -47.63671875 224.53125 C-48.48427734 225.38847656 -49.33183594 226.24570313 -50.20507812 227.12890625 C-51.08615234 228.03511719 -51.96722656 228.94132813 -52.875 229.875 C-53.76767578 230.78121094 -54.66035156 231.68742188 -55.58007812 232.62109375 C-57.78939251 234.86585168 -59.99142533 237.11729998 -62.1875 239.375 C-60.31967738 243.55609998 -57.54033119 245.69113914 -53.9375 248.375 C-48.03501452 252.87489172 -42.3662293 257.57192984 -36.80761719 262.49023438 C-34.07732403 264.87823651 -31.56127802 266.98434516 -28.1875 268.375 C-21.39819571 259.79636505 -14.70541164 251.1621105 -8.1875 242.375 C-13.51619533 238.00090061 -19.21166232 234.21077315 -24.93554688 230.3828125 C-26.81829227 229.1211184 -28.69425239 227.84973128 -30.5703125 226.578125 C-31.76782339 225.77543596 -32.96572648 224.97333167 -34.1640625 224.171875 C-35.24768066 223.44323242 -36.33129883 222.71458984 -37.44775391 221.96386719 C-40.84756056 219.99220957 -42.18233201 219.53404437 -45.2722168 222.11914062 Z M49.8125 227.375 C49.3175 228.591875 48.8225 229.80875 48.3125 231.0625 C48.0340625 231.74699219 47.755625 232.43148437 47.46875 233.13671875 C46.66008261 235.89485216 46.3530223 237.50535288 46.8125 240.375 C48.36606598 242.99107527 50.24739261 245.28717059 52.1875 247.625 C52.69539062 248.26179688 53.20328125 248.89859375 53.7265625 249.5546875 C56.35239556 252.94925874 56.35239556 252.94925874 59.8125 255.375 C60.84822896 253.63377451 61.8656252 251.88163405 62.875 250.125 C63.44347656 249.15046875 64.01195312 248.1759375 64.59765625 247.171875 C65.94748352 244.06423409 65.95214303 243.43369286 64.8125 240.375 C63.55397338 238.67572874 63.55397338 238.67572874 61.94140625 237.140625 C61.07999023 236.28017578 61.07999023 236.28017578 60.20117188 235.40234375 C59.2972168 234.52255859 59.2972168 234.52255859 58.375 233.625 C57.77623047 233.02300781 57.17746094 232.42101562 56.56054688 231.80078125 C53.68676693 228.50773734 53.68676693 228.50773734 49.8125 227.375 Z M24.3125 230.3125 C19.16658309 231.37018846 14.04494804 231.95195101 8.8125 232.375 C9.39515625 233.34566406 9.9778125 234.31632813 10.578125 235.31640625 C12.968286 239.499188 14.77843687 243.84468525 16.5625 248.3125 C16.87832031 249.09173828 17.19414062 249.87097656 17.51953125 250.67382812 C18.28828979 252.57242876 19.05103017 254.47346437 19.8125 256.375 C22.57686187 253.98735067 23.63331226 251.75725838 24.85546875 248.33984375 C25.20673828 247.36595703 25.55800781 246.39207031 25.91992188 245.38867188 C26.27634766 244.37353516 26.63277344 243.35839844 27 242.3125 C27.55204102 240.78399414 27.55204102 240.78399414 28.11523438 239.22460938 C30.04233651 234.41414233 30.04233651 234.41414233 30.8125 229.375 C28.51939545 229.375 26.55536387 229.82630957 24.3125 230.3125 Z M79.8125 250.375 C78.22774955 253.37425342 76.64496479 256.37454008 75.0625 259.375 C74.6190625 260.21417969 74.175625 261.05335938 73.71875 261.91796875 C71.62994997 265.88054527 69.57181551 269.84817402 67.609375 273.875 C65.8125 277.375 65.8125 277.375 63.8125 279.375 C60.60692239 280.38479083 58.02473604 280.35220129 54.8125 279.375 C51.2068113 276.14127919 48.55121468 272.35087541 45.8125 268.375 C45.13574219 267.39917969 44.45898438 266.42335938 43.76171875 265.41796875 C42.56318525 263.68344511 41.38137882 261.93714913 40.22265625 260.17578125 C39.75730469 259.58152344 39.29195312 258.98726563 38.8125 258.375 C38.1525 258.375 37.4925 258.375 36.8125 258.375 C36.53575439 259.14690674 36.25900879 259.91881348 35.97387695 260.71411133 C34.708576 264.21192454 33.41717947 267.69953188 32.125 271.1875 C31.68994141 272.40244141 31.25488281 273.61738281 30.80664062 274.86914062 C30.37158203 276.03251953 29.93652344 277.19589844 29.48828125 278.39453125 C29.09552002 279.46807861 28.70275879 280.54162598 28.2980957 281.64770508 C26.55916307 284.84008247 25.08604348 285.87785808 21.8125 287.375 C18.98704223 287.46868883 16.61959594 286.89835687 13.8125 286.375 C13.53164551 285.50085449 13.25079102 284.62670898 12.96142578 283.72607422 C11.90956803 280.65811853 10.73075463 277.7269144 9.4296875 274.7578125 C8.76259766 273.23027344 8.76259766 273.23027344 8.08203125 271.671875 C7.62183594 270.62515625 7.16164062 269.5784375 6.6875 268.5 C6.21957031 267.43007813 5.75164062 266.36015625 5.26953125 265.2578125 C4.11950558 262.6291824 2.96709551 260.00162527 1.8125 257.375 C-2.36241752 261.37887807 -6.00186586 265.68294843 -9.625 270.1875 C-10.17220703 270.86103516 -10.71941406 271.53457031 -11.28320312 272.22851562 C-14.61064226 276.34351432 -17.8120588 280.52464799 -20.91040039 284.81518555 C-22.95096971 287.30748097 -24.40119068 287.41385285 -27.625 288 C-33.6594416 287.89166173 -37.35751437 283.66378166 -41.60888672 279.80029297 C-44.48187615 277.20633808 -47.43496468 274.7048365 -50.375 272.1875 C-50.96893555 271.67509766 -51.56287109 271.16269531 -52.17480469 270.63476562 C-56.38045108 267.01786282 -60.68379746 263.61766583 -65.1875 260.375 C-68.4128958 261.79777821 -70.60044713 263.52180877 -73.10717773 265.98828125 C-73.8657457 266.73086182 -74.62431366 267.47344238 -75.40586853 268.23852539 C-76.62615501 269.45076782 -76.62615501 269.45076782 -77.87109375 270.6875 C-78.722444 271.52982178 -79.57379425 272.37214355 -80.45094299 273.23999023 C-82.25836326 275.03288871 -84.06297199 276.82862524 -85.86499023 278.62695312 C-88.57133357 281.32156618 -91.29572354 283.9969263 -94.02148438 286.671875 C-118.49345842 310.6394487 -118.49345842 310.6394487 -130.35253906 341.98901367 C-130.02833723 346.67603223 -127.67781946 350.45800445 -125.4375 354.5 C-124.40922951 356.44934677 -123.38325718 358.39990723 -122.359375 360.3515625 C-121.83021484 361.34704102 -121.30105469 362.34251953 -120.75585938 363.36816406 C-118.26641538 368.14089012 -115.98058975 373.00571787 -113.6875 377.875 C-108.69789845 388.38751848 -103.53822489 398.81063282 -98.28125 409.19189453 C-97.32866777 411.09323165 -96.41119122 413.01207709 -95.5 414.93359375 C-94.42423485 417.49664911 -94.42423485 417.49664911 -92.1875 418.375 C-76.98004497 419.3054461 -64.03122993 418.34382503 -51.625 408.5703125 C-47.84983688 405.17024571 -44.92219354 401.64752376 -42.1875 397.375 C-41.28837891 396.12589844 -41.28837891 396.12589844 -40.37109375 394.8515625 C-38.58628443 391.91845417 -37.64124057 389.784793 -37.1875 386.375 C-38.59735591 382.01779099 -41.04508218 378.46851271 -43.60693359 374.72070312 C-46.96465625 369.73753982 -50.09559694 364.61310181 -53.25 359.5 C-53.94125977 358.42991699 -54.63251953 357.35983398 -55.34472656 356.25732422 C-60.73467251 347.57834483 -60.73467251 347.57834483 -60.30859375 342.7421875 C-59.1875 339.375 -59.1875 339.375 -56.1875 337.375 C-50.49280973 336.74225664 -50.49280973 336.74225664 -48.1875 337.375 C-45.38647989 340.57510444 -43.17266862 343.90974581 -41.078125 347.6015625 C-40.49603271 348.62080811 -39.91394043 349.64005371 -39.31420898 350.69018555 C-38.69489502 351.78242432 -38.07558105 352.87466309 -37.4375 354 C-36.1013871 356.33268775 -34.76427831 358.66477606 -33.42578125 360.99609375 C-33.08140518 361.59664078 -32.73702911 362.19718781 -32.38221741 362.81593323 C-28.83726165 368.99476493 -25.26740076 375.15861481 -21.6583252 381.30023193 C-20.64825912 383.02283311 -19.64581355 384.74989547 -18.64355469 386.47705078 C-12.335991 397.50611006 -12.335991 397.50611006 -2.5625 405.25 C-1.82773438 405.63929688 -1.09296875 406.02859375 -0.3359375 406.4296875 C13.91381495 412.69957858 28.73618095 405.88679822 42.25 401 C45.38223974 399.89406149 48.51701906 398.7955288 51.65185547 397.69697571 C53.73545882 396.96594289 55.81814909 396.23230224 57.89990234 395.49601746 C67.59642555 392.07077283 77.365856 388.90344295 87.17282104 385.81158447 C88.97779352 385.24217456 90.78189462 384.67000456 92.5859375 384.09765625 C93.58028809 383.78578369 94.57463867 383.47391113 95.59912109 383.15258789 C97.75840031 382.57335375 97.75840031 382.57335375 98.8125 381.375 C98.90855864 379.74276544 98.93437821 378.1063561 98.93275452 376.47129822 C98.93412918 375.40974014 98.93550385 374.34818207 98.93692017 373.25445557 C98.93332489 372.07985779 98.92972961 370.90526001 98.92602539 369.69506836 C98.92624443 367.85142448 98.92624443 367.85142448 98.9264679 365.97053528 C98.92588892 362.59051328 98.92085964 359.21055171 98.91389394 355.83054042 C98.90765988 352.30178806 98.90705656 348.77303497 98.90586853 345.24427795 C98.90275537 338.55776881 98.89454218 331.87127594 98.88451904 325.18477398 C98.87335744 317.57425697 98.86784733 309.9637392 98.86282361 302.35321605 C98.85235956 286.69380126 98.83476041 271.03440273 98.8125 255.375 C95.83391136 254.53959098 92.8545365 253.70702151 89.875 252.875 C89.02486328 252.63652344 88.17472656 252.39804687 87.29882812 252.15234375 C86.48994141 251.92675781 85.68105469 251.70117188 84.84765625 251.46875 C83.72435913 251.15454102 83.72435913 251.15454102 82.57836914 250.83398438 C80.95528375 250.33307314 80.95528375 250.33307314 79.8125 250.375 Z M137.8125 387.375 C136.10960815 387.81900146 136.10960815 387.81900146 134.37231445 388.27197266 C130.91459563 389.22546856 127.48921575 390.25319466 124.0625 391.3125 C122.7758267 391.70492966 121.48912324 392.09726041 120.20239258 392.48950195 C100.2254021 398.61882141 80.4555853 405.40637705 60.69140625 412.18359375 C59.7615239 412.50218857 58.83164154 412.82078339 57.87358093 413.14903259 C53.33533567 414.70431771 48.79850983 416.26349613 44.2644043 417.83081055 C42.6085892 418.40030928 40.95274741 418.96973043 39.296875 419.5390625 C38.18506615 419.9257737 38.18506615 419.9257737 37.05079651 420.32029724 C22.23119903 425.40127489 7.52733937 426.82781891 -7.1875 420.375 C-14.33815493 416.67599769 -19.71614372 411.19559178 -25.1875 405.375 C-27.7447024 407.88217018 -30.13631863 410.44507269 -32.4375 413.1875 C-41.35570566 423.35010645 -51.45356634 428.96709989 -64.1875 433.375 C-59.29972195 447.55464779 -43.88087068 460.25553173 -31.1875 467.375 C-5.3181712 479.43570059 26.54606632 465.44190194 51.75 457.0625 C53.85452054 456.37092875 55.95917884 455.67977658 58.06396484 454.98901367 C69.10828293 451.34931669 80.10845666 447.59639255 91.07421875 443.7265625 C92.15797287 443.34528702 93.24172699 442.96401154 94.35832214 442.57118225 C99.53129644 440.74964058 104.69813388 438.913649 109.85522461 437.04760742 C122.98389575 432.35249418 136.07930007 428.81366159 149.8125 426.375 C150.53634888 426.24340485 151.26019775 426.11180969 152.00598145 425.97622681 C168.61917108 423.12253942 185.89461246 424.22688 202.6875 424.375 C208.11642189 424.42264794 213.54522427 424.46321686 218.97430801 424.48687744 C221.11454276 424.49961237 223.25438874 424.5245971 225.39450073 424.55029297 C236.51626456 424.63456831 248.0258791 424.69424341 257.125 417.5625 C259.21029051 414.85934564 259.35261262 412.71259854 259.8125 409.375 C259.06383163 409.36469254 258.31516327 409.35438507 257.54380798 409.34376526 C250.4674507 409.24554167 243.39117214 409.14299337 236.31494808 409.03566074 C232.67752369 408.98063864 229.04009102 408.92725341 225.40258789 408.87768555 C221.88824013 408.82973439 218.37398227 408.77738353 214.85974312 408.72205925 C212.87520244 408.69194284 210.89059533 408.66631188 208.9059906 408.64076233 C192.81536288 408.37786288 192.81536288 408.37786288 189.8125 405.375 C189.546875 403.0625 189.546875 403.0625 189.5625 400.375 C189.55476563 399.0446875 189.55476563 399.0446875 189.546875 397.6875 C189.8125 395.375 189.8125 395.375 191.8125 393.375 C194.33447266 393.05615234 194.33447266 393.05615234 197.4765625 392.9609375 C198.59804688 392.92226563 199.71953125 392.88359375 200.875 392.84375 C202.050625 392.8128125 203.22625 392.781875 204.4375 392.75 C205.62085938 392.71132813 206.80421875 392.67265625 208.0234375 392.6328125 C210.95296691 392.53831155 213.88248597 392.45275442 216.8125 392.375 C216.10114254 389.12020406 215.44977752 387.50510877 212.8125 385.375 C209.79486753 384.36912251 207.74150591 384.23679615 204.58520508 384.21386719 C202.9812664 384.19945587 202.9812664 384.19945587 201.34492493 384.18475342 C200.18567001 384.18050354 199.0264151 384.17625366 197.83203125 384.171875 C196.03085091 384.16332489 196.03085091 384.16332489 194.19328308 384.15460205 C191.64196657 384.14514183 189.09063779 384.13861403 186.53930664 384.13476562 C182.68548242 384.12515089 178.83221254 384.0941749 174.97851562 384.0625 C162.24740516 384.00585084 150.16928537 384.10009244 137.8125 387.375 Z " fill="#000000" transform="translate(163.1875,7.625)"/>
<path d="M0 0 C0.83096191 -0.00945648 1.66192383 -0.01891296 2.51806641 -0.02865601 C3.41187012 -0.02258331 4.30567383 -0.01651062 5.2265625 -0.01025391 C6.14743652 -0.01312408 7.06831055 -0.01599426 8.01708984 -0.01895142 C9.96387344 -0.02099272 11.91067752 -0.01545824 13.85742188 -0.00292969 C16.84030949 0.01312303 19.82184211 -0.00277613 22.8046875 -0.02197266 C24.6953155 -0.01999024 26.58594265 -0.01614659 28.4765625 -0.01025391 C29.37036621 -0.0163266 30.26416992 -0.02239929 31.18505859 -0.02865601 C32.43150146 -0.01447128 32.43150146 -0.01447128 33.703125 0 C34.79874756 0.00358017 34.79874756 0.00358017 35.91650391 0.00723267 C38.41180605 0.49847757 39.30541684 1.40401553 40.8515625 3.38818359 C41.25 5.76318359 41.25 5.76318359 41.2265625 8.38818359 C41.23816406 9.68755859 41.23816406 9.68755859 41.25 11.01318359 C40.76813411 13.88548225 40.10449008 14.60100851 37.8515625 16.38818359 C35.91650391 16.76913452 35.91650391 16.76913452 33.703125 16.77636719 C32.45668213 16.79055191 32.45668213 16.79055191 31.18505859 16.80502319 C30.29125488 16.7989505 29.39745117 16.79287781 28.4765625 16.78662109 C27.09525146 16.79092636 27.09525146 16.79092636 25.68603516 16.7953186 C23.73925156 16.79735991 21.79244748 16.79182543 19.84570312 16.77929688 C16.86281551 16.76324415 13.88128289 16.77914331 10.8984375 16.79833984 C9.0078095 16.79635742 7.11718235 16.79251377 5.2265625 16.78662109 C4.33275879 16.79269379 3.43895508 16.79876648 2.51806641 16.80502319 C1.68710449 16.79556671 0.85614258 16.78611023 0 16.77636719 C-0.73041504 16.77398041 -1.46083008 16.77159363 -2.21337891 16.76913452 C-4.70868105 16.27788962 -5.60229184 15.37235166 -7.1484375 13.38818359 C-7.546875 11.01318359 -7.546875 11.01318359 -7.5234375 8.38818359 C-7.53117187 7.52193359 -7.53890625 6.65568359 -7.546875 5.76318359 C-6.79810824 1.29994642 -4.30481448 0.01406686 0 0 Z " fill="#000000" transform="translate(311.1484375,343.61181640625)"/>
<path d="M0 0 C1.14984375 -0.00386719 2.2996875 -0.00773437 3.484375 -0.01171875 C4.68578125 -0.00011719 5.8871875 0.01148438 7.125 0.0234375 C8.32640625 0.01183594 9.5278125 0.00023437 10.765625 -0.01171875 C12.49039062 -0.00591797 12.49039062 -0.00591797 14.25 0 C15.83167969 0.00507568 15.83167969 0.00507568 17.4453125 0.01025391 C20.125 0.3984375 20.125 0.3984375 21.96728516 1.77490234 C23.57456373 4.02888853 23.52450596 5.65377045 23.5 8.3984375 C23.51160156 9.6978125 23.51160156 9.6978125 23.5234375 11.0234375 C23.03434796 13.93879475 22.47620888 14.64172989 20.125 16.3984375 C17.4453125 16.78662109 17.4453125 16.78662109 14.25 16.796875 C13.10015625 16.80074219 11.9503125 16.80460937 10.765625 16.80859375 C9.56421875 16.79699219 8.3628125 16.78539062 7.125 16.7734375 C5.92359375 16.78503906 4.7221875 16.79664063 3.484375 16.80859375 C1.75960938 16.80279297 1.75960938 16.80279297 0 16.796875 C-1.05445313 16.79349121 -2.10890625 16.79010742 -3.1953125 16.78662109 C-5.875 16.3984375 -5.875 16.3984375 -7.71728516 15.02197266 C-9.32456373 12.76798647 -9.27450596 11.14310455 -9.25 8.3984375 C-9.25773437 7.5321875 -9.26546875 6.6659375 -9.2734375 5.7734375 C-8.36230848 0.34239395 -4.95634198 0.01590513 0 0 Z " fill="#000000" transform="translate(312.875,319.6015625)"/>
</svg>
