<?xml version="1.0" standalone="no"?>
<!DOCTYPE svg PUBLIC "-//W3C//DTD SVG 20010904//EN"
 "http://www.w3.org/TR/2001/REC-SVG-20010904/DTD/svg10.dtd">
<svg version="1.0" xmlns="http://www.w3.org/2000/svg"
 width="512.000000pt" height="512.000000pt" viewBox="0 0 512.000000 512.000000"
 preserveAspectRatio="xMidYMid meet">

<g transform="translate(0.000000,512.000000) scale(0.100000,-0.100000)"
fill="#000000" stroke="none">
<path d="M478 4450 c-73 -39 -105 -134 -70 -211 10 -24 83 -137 161 -251 77
-115 141 -210 141 -213 0 -3 -31 -5 -70 -5 -38 0 -80 -5 -94 -11 -51 -23 -55
-103 -7 -128 11 -6 77 -11 150 -11 l129 0 91 -134 c50 -74 91 -137 91 -140 0
-3 -205 -6 -456 -6 -412 0 -459 -2 -485 -17 -62 -37 -59 40 -59 -1328 0 -1368
-3 -1291 59 -1328 27 -16 132 -17 1505 -17 l1476 0 38 34 37 34 3 169 c3 160
2 170 -18 196 -27 34 -80 37 -110 7 -18 -18 -20 -33 -20 -155 l0 -135 -670 0
-670 0 0 560 0 560 179 0 180 0 3 -195 c3 -193 3 -195 29 -220 47 -47 82 -44
187 20 l94 56 92 -55 c96 -59 120 -65 165 -42 45 24 51 51 51 251 l0 185 180
0 180 0 0 -280 c0 -267 1 -281 20 -300 30 -30 83 -27 109 6 20 26 21 38 21
321 0 326 -3 347 -62 383 -32 19 -49 20 -730 20 l-698 0 0 420 0 420 166 0
166 0 -34 -44 c-18 -24 -61 -81 -95 -126 -68 -88 -77 -123 -48 -180 29 -57 47
-60 343 -60 148 0 294 4 323 10 34 6 113 39 211 90 l158 80 436 0 c303 0 449
4 475 12 78 23 159 121 159 191 l0 27 430 0 c277 0 448 4 482 11 223 47 358
251 303 456 -15 53 -34 88 -105 182 -48 64 -127 177 -177 251 -99 147 -160
214 -233 254 -106 57 -75 56 -1171 56 -944 0 -1008 -1 -1028 -17 -31 -26 -37
-73 -13 -103 l20 -25 1029 -5 1028 -5 40 -22 40 -22 -68 -1 c-75 0 -122 -16
-152 -50 -16 -18 -21 -39 -23 -114 -5 -121 18 -186 93 -261 85 -84 125 -95
355 -95 187 0 190 0 205 -23 8 -13 18 -44 21 -70 9 -64 -15 -125 -71 -176 -76
-70 -88 -71 -598 -71 l-449 0 -42 31 c-24 17 -60 36 -80 43 l-36 12 112 60
c62 32 125 69 140 82 35 30 45 79 24 120 -34 66 14 62 -797 62 l-736 0 -33
-22 c-18 -13 -97 -104 -174 -203 l-142 -180 -224 0 -225 0 -5 107 c-5 101 -7
109 -33 135 l-27 28 -192 5 -192 5 -94 138 -93 137 156 0 c91 0 165 4 176 11
46 24 42 105 -7 128 -16 7 -98 11 -227 11 l-202 1 -178 264 c-98 146 -175 270
-172 275 4 6 105 10 270 10 l263 0 154 -113 c84 -62 191 -141 236 -175 l84
-62 282 0 c282 0 283 0 304 23 29 31 28 72 -3 102 l-24 25 -255 0 -255 0 -208
155 c-114 85 -224 163 -243 172 -31 16 -71 18 -335 20 -281 2 -302 1 -337 -17z
m4266 -790 l74 -110 -124 0 c-105 0 -131 3 -164 20 -52 27 -90 91 -90 153 l0
47 114 0 115 0 75 -110z m-1119 -378 c-365 -199 -1130 -600 -1170 -614 -41
-14 -88 -17 -272 -18 -123 0 -223 3 -223 6 0 3 116 154 257 335 l258 329 610
0 610 0 -70 -38z m-3115 -283 l0 -191 29 -29 c46 -45 86 -40 192 25 l87 53 86
-53 c93 -58 136 -67 181 -38 38 25 45 65 45 250 l0 174 175 0 175 0 0 -560 0
-560 -665 0 -665 0 0 560 0 560 180 0 180 0 0 -191z m470 66 c0 -69 -3 -125
-6 -125 -3 0 -31 16 -62 34 -92 57 -100 56 -214 -13 l-38 -23 0 126 0 126 160
0 160 0 0 -125z m2737 -97 c32 -30 31 -81 -2 -113 l-24 -25 -292 0 c-161 0
-289 3 -286 7 4 3 69 39 145 79 l137 73 149 1 c140 0 151 -1 173 -22z m-3207
-1240 c0 -207 3 -219 57 -247 38 -20 65 -12 160 45 l92 56 82 -51 c45 -29 93
-54 108 -57 38 -8 78 11 101 48 18 30 20 51 20 216 l0 182 175 0 175 0 0 -560
0 -560 -665 0 -665 0 0 560 0 560 180 0 180 0 0 -192z m470 61 c0 -102 -3
-128 -12 -122 -142 88 -156 90 -245 33 l-63 -39 0 129 0 130 160 0 160 0 0
-131z m1480 1 l0 -129 -62 39 c-90 57 -104 55 -245 -33 -10 -6 -13 20 -13 122
l0 131 160 0 160 0 0 -130z"/>
</g>
</svg>
