<?xml version="1.0" encoding="UTF-8"?>
<svg version="1.1" xmlns="http://www.w3.org/2000/svg" width="512" height="512">
<path d="M0 0 C5.22769352 5.01309198 7.99106302 11.49622522 11.125 17.9375 C11.69629639 19.09556152 12.26759277 20.25362305 12.85620117 21.44677734 C16.84054793 29.54833779 20.74188964 37.68923018 24.6015625 45.85083008 C27.39523254 51.73120185 30.27315353 57.56372053 33.20703125 63.375 C33.57159927 64.09823456 33.9361673 64.82146912 34.31178284 65.56661987 C36.12722265 69.16596711 37.94964785 72.76152463 39.7824707 76.35205078 C40.45154919 77.67469618 41.12042267 78.9974453 41.7890625 80.3203125 C42.38412598 81.48836426 42.97918945 82.65641602 43.59228516 83.85986328 C44.83938001 86.64171102 45.56861201 88.99858114 46 92 C47.26851807 92.17539307 48.53703613 92.35078613 49.84399414 92.53149414 C72.98034777 95.73436584 96.11333486 98.9645611 119.22238159 102.35958862 C121.27653246 102.66066068 123.33099661 102.95960325 125.38577271 103.25637817 C128.25420889 103.67134007 131.12135116 104.09430507 133.98828125 104.51953125 C134.83191223 104.64011902 135.67554321 104.76070679 136.54473877 104.88494873 C141.37195228 105.61211196 145.65951459 106.46657853 149.8125 109.1875 C151.8692856 112.32680434 151.60119071 114.33273665 151 118 C146.01898306 125.31895666 138.63535359 131.51706739 132.37573242 137.75463867 C130.56639067 139.55862085 128.76245681 141.36788665 126.95898438 143.17773438 C120.07270323 150.07013027 113.16373993 156.7434488 105.48364258 162.75756836 C88.00221283 175.6971409 88.00221283 175.6971409 78.04199219 193.98876953 C78.00344888 202.19950927 80.31600159 209.84738588 82.68566895 217.65380859 C85.91982764 228.51277255 87.56157089 239.69762771 89.39081192 250.85959435 C90.14195845 255.44190968 90.93117426 260.01632865 91.74023438 264.58886719 C91.95632355 265.81943344 92.17241272 267.04999969 92.39505005 268.31785583 C92.80307616 270.64027164 93.21425088 272.96213727 93.62911987 275.28334045 C95.95514741 288.7315249 95.95514741 288.7315249 94 293.375 C91.00007451 295.81243946 87.75550559 296.05871535 84 296 C81.28157499 295.03678716 79.14494878 294.10935508 76.66796875 292.73046875 C75.99831589 292.37883667 75.32866302 292.02720459 74.63871765 291.66491699 C72.47771542 290.5245517 70.33308469 289.35657279 68.1875 288.1875 C66.69192717 287.39173645 65.19533747 286.59788117 63.69775391 285.8059082 C60.76221031 284.24976051 57.83264694 282.68328136 54.90869141 281.10546875 C50.97757892 278.98430131 47.02649111 276.90310206 43.06762695 274.83422852 C40.89305651 273.69694343 38.72339181 272.55076959 36.5546875 271.40234375 C30.11223523 267.99647053 23.64331501 264.64093402 17.17529297 261.28393555 C15.82008545 260.57877808 15.82008545 260.57877808 14.4375 259.859375 C13.54546875 259.39853516 12.6534375 258.93769531 11.734375 258.46289062 C9.82555715 257.44167307 7.94133527 256.37371773 6.078125 255.27148438 C5.12421875 254.71267578 4.1703125 254.15386719 3.1875 253.578125 C2.33542969 253.0615332 1.48335937 252.54494141 0.60546875 252.01269531 C-2.74991979 250.70852068 -4.55180096 251.05182915 -8 252 C-10.70199336 253.15124114 -10.70199336 253.15124114 -13.359375 254.66796875 C-14.3788623 255.22411865 -15.39834961 255.78026855 -16.44873047 256.35327148 C-17.53814941 256.95856689 -18.62756836 257.5638623 -19.75 258.1875 C-21.50191168 259.14611871 -23.25383041 260.10472484 -25.00619507 261.06251526 C-26.81775712 262.05402833 -28.62727735 263.0491901 -30.43652344 264.04492188 C-35.89625331 267.04568379 -41.38649469 269.9898054 -46.875 272.9375 C-53.14989772 276.30874971 -59.42325296 279.68228969 -65.67797852 283.09083557 C-68.22732386 284.47885313 -70.77961611 285.8613958 -73.33233643 287.24319458 C-74.55418764 287.9062986 -75.77472598 288.57182841 -76.99383545 289.23995972 C-89.37951188 296.02547988 -89.37951188 296.02547988 -95 297 C-99.05030837 295.54800266 -100.60038861 294.59941709 -103 291 C-103.40211732 280.98796239 -100.84789429 270.62286607 -99.05520058 260.82092094 C-98.54033551 258.00139023 -98.03482163 255.18032136 -97.53178406 252.35865784 C-96.10214502 244.34695703 -94.65855541 236.33782112 -93.20288086 228.33081055 C-92.30884473 223.40946916 -91.42749914 218.48599322 -90.55403709 213.56096077 C-90.21963609 211.69055156 -89.880292 209.82101908 -89.53591347 207.95242119 C-89.05670902 205.35103315 -88.59360473 202.74725104 -88.1340332 200.14233398 C-87.98815262 199.37297516 -87.84227203 198.60361633 -87.69197083 197.8109436 C-87.18952882 194.88596891 -86.81907749 192.5698621 -87.72779846 189.70761108 C-89.12246991 187.8356149 -90.56741692 186.18556772 -92.22119141 184.53588867 C-92.87592438 183.87807907 -93.53065735 183.22026947 -94.20523071 182.54252625 C-94.9135202 181.84142227 -95.62180969 181.1403183 -96.3515625 180.41796875 C-97.08442474 179.68556473 -97.81728699 178.95316071 -98.57235718 178.19856262 C-100.12513829 176.64880153 -101.68034803 175.10147055 -103.23779297 173.55639648 C-105.60043828 171.21187332 -107.95511735 168.85958252 -110.30859375 166.50585938 C-111.82244833 164.99692583 -113.33675717 163.48844785 -114.8515625 161.98046875 C-115.89577866 160.93792183 -115.89577866 160.93792183 -116.96109009 159.87431335 C-120.88085886 155.99166727 -124.90165455 152.2890381 -129.07626343 148.68254089 C-134.08669929 144.3003072 -138.81599352 139.60843235 -143.56640625 134.94848633 C-144.86193897 133.68485119 -146.16545264 132.42935009 -147.4765625 131.18188477 C-149.38934541 129.3603115 -151.27462767 127.51383478 -153.15625 125.66015625 C-153.74361938 125.11094009 -154.33098877 124.56172394 -154.93615723 123.99586487 C-157.83351784 121.08429027 -159.38447399 119.01929576 -159.61523438 114.83374023 C-158.92124826 110.50927041 -158.34726062 109.64422437 -155 107 C-152.26850891 106.17121887 -152.26850891 106.17121887 -149.0871582 105.70239258 C-147.88616989 105.51706467 -146.68518158 105.33173676 -145.44779968 105.14079285 C-144.1411586 104.95640152 -142.83451752 104.77201019 -141.48828125 104.58203125 C-140.10519508 104.37488705 -138.72232998 104.16626205 -137.3396759 103.95625305 C-134.40536909 103.51369015 -131.46980557 103.08140042 -128.53277588 102.6572876 C-124.05742213 102.0108257 -119.58591229 101.34025768 -115.11474609 100.66552734 C-106.90147552 99.42960886 -98.68415617 98.22234276 -90.46575928 97.02105713 C-87.36236273 96.56669267 -84.25937627 96.10955957 -81.15638256 95.65245342 C-78.14809624 95.20956951 -75.13960221 94.76811088 -72.13103676 94.32712746 C-70.70638743 94.11818415 -69.28179426 93.90885759 -67.85725975 93.69913292 C-65.89747989 93.41087578 -63.93739502 93.1246945 -61.97729492 92.83862305 C-60.31219124 92.59477119 -60.31219124 92.59477119 -58.6134491 92.34599304 C-56 92 -56 92 -54 92 C-53.61585938 90.74203613 -53.23171875 89.48407227 -52.8359375 88.18798828 C-50.94200774 82.52070183 -48.3334812 77.30764224 -45.625 71.9921875 C-44.83814819 70.42840866 -44.83814819 70.42840866 -44.03540039 68.83303833 C-42.36264248 65.5107759 -40.68182831 62.19267858 -39 58.875 C-36.8092418 54.54070101 -34.62228952 50.20449792 -32.4375 45.8671875 C-31.89883301 44.79925964 -31.36016602 43.73133179 -30.80517578 42.63104248 C-26.64764627 34.36058207 -22.62217976 26.03209628 -18.68920898 17.65255737 C-9.12396178 -2.61389175 -9.12396178 -2.61389175 0 0 Z " fill="#000000" transform="translate(260,108)"/>
<path d="M0 0 C13.33558994 6.05345881 22.68048781 20.90581616 28 34 C31.82030214 45.11360623 32.73355768 56.0613123 28 67 C27.67 67.66 27.34 68.32 27 69 C27.41886475 69.56509277 27.83772949 70.13018555 28.26928711 70.71240234 C30.16028764 73.26542376 32.04892064 75.8201871 33.9375 78.375 C34.59685547 79.26445313 35.25621094 80.15390625 35.93554688 81.0703125 C36.56396484 81.92109375 37.19238281 82.771875 37.83984375 83.6484375 C38.42113037 84.43395996 39.00241699 85.21948242 39.60131836 86.02880859 C41 88 41 88 42 90 C42.12955078 88.25976562 42.12955078 88.25976562 42.26171875 86.484375 C43.19493171 75.55312173 44.28191496 64.60015339 52.1875 56.25 C55 54 55 54 57 54 C67.06292222 70.75003507 74.19213298 87.81547378 70.25 107.875 C68.82112397 113.27856639 66.7841167 118.31232204 62.6875 122.1875 C62.130625 122.785625 61.57375 123.38375 61 124 C61.49075195 128.90751954 63.48145886 133.6647526 65.0625 138.3125 C65.34416016 139.14845703 65.62582031 139.98441406 65.91601562 140.84570312 C66.60795182 142.89805624 67.30360709 144.94915483 68 147 C69.92312111 144.11531833 70.88491304 141.67480895 72.0625 138.4375 C75.60126766 129.79997538 81.70456035 122.45121152 90 118 C90.66 118 91.32 118 92 118 C92.65177969 120.18573562 93.29614674 122.3736823 93.9375 124.5625 C94.29714844 125.78066406 94.65679687 126.99882812 95.02734375 128.25390625 C98.76815722 142.66129627 98.10930505 158.46658895 91.3125 171.875 C87.65879241 178.0589001 82.97023908 183.01984061 77 187 C76.59402276 189.48679797 76.59402276 189.48679797 76.75 192.375 C76.78867187 193.97214844 76.78867187 193.97214844 76.828125 195.6015625 C77.08838842 200.7476801 77.49091522 205.87278901 78 211 C78.47308594 210.28714844 78.94617188 209.57429687 79.43359375 208.83984375 C85.16593882 200.53744144 91.45587088 193.81765165 101 190 C102.99566316 189.64161523 104.99547983 189.30497541 107 189 C107.70421063 208.93999479 106.27328771 226.78734928 91.9921875 242.2109375 C86.888086 246.79462081 81.71013979 249.65797204 75 251 C74.01 258.59 73.02 266.18 72 274 C73.44375 272.783125 74.8875 271.56625 76.375 270.3125 C84.71555393 263.63057896 92.26981055 259.7936502 103 260 C99.98024524 278.37017476 91.27440076 292.83071731 76.875 304.5625 C70.32702614 309.09262885 63.8494725 310.42815305 56 310 C55.62875 311.2375 55.2575 312.475 54.875 313.75 C52.87666889 319.80291599 49.94698158 325.36354009 47 331 C47.81082031 330.65066406 48.62164062 330.30132812 49.45703125 329.94140625 C59.39455567 325.85765058 67.72686771 323.89703131 78.3203125 326.234375 C78.87460937 326.48703125 79.42890625 326.7396875 80 327 C81 330 81 330 79.953125 332.49609375 C71.23885123 347.54620418 59.14396509 360.38808242 42.4375 366.25 C38.39072573 367.24366339 34.6320548 366.77847347 30.5 366.5 C25.0212768 366.36178697 25.0212768 366.36178697 20.4296875 369.0078125 C18.40795926 371.58301768 16.71787216 374.21532138 15 377 C13.38514785 379.04994185 11.70138383 381.01989118 10 383 C11.25554687 383.01417969 12.51109375 383.02835937 13.8046875 383.04296875 C31.04438673 383.45765759 31.04438673 383.45765759 39 389 C39 393 39 393 37.99609375 394.5703125 C25.14674669 407.38745568 7.63955984 417.18965967 -10.75 417.1875 C-11.46373779 417.19322021 -12.17747559 417.19894043 -12.9128418 417.20483398 C-16.82709923 417.187465 -20.11989539 416.83581194 -23.8125 415.5625 C-26.91107714 414.68565599 -27.79151376 414.89412111 -30.73828125 416.390625 C-32.65300261 417.6653786 -34.55067396 418.96614443 -36.4296875 420.29296875 C-39.7187755 422.47736306 -42.05243262 423.15182951 -46 423 C-50.25249171 421.77470578 -52.46062269 420.59469806 -55.4375 417.3125 C-57.34423225 413.27022763 -57.82006194 410.38248154 -57 406 C-55.42679853 402.32919658 -53.98758288 400.46972184 -50.35546875 398.7421875 C-46.94869159 397.10800606 -44.61495389 395.75413692 -42 393 C-40.54332723 388.46340632 -40.60165197 383.64469386 -40.35546875 378.921875 C-39.50734874 363.53072876 -30.87357306 349.42066461 -21 338 C-16.37798387 339.81579205 -14.09704269 342.81754405 -11.89453125 347.19921875 C-9.32596332 353.10599771 -8.27313417 358.58134698 -8 365 C-6.3719224 363.3989569 -4.74764115 361.79405264 -3.125 360.1875 C-2.22007812 359.29417969 -1.31515625 358.40085937 -0.3828125 357.48046875 C2.09831514 355.04361667 2.09831514 355.04361667 4 352 C3.66209049 349.04329183 2.80790733 346.3394065 1.9765625 343.48046875 C0.7409838 338.48988914 0.61646775 333.62294186 0.625 328.5 C0.62632935 327.05947266 0.62632935 327.05947266 0.62768555 325.58984375 C0.80638909 314.689835 2.83779864 304.70316358 8 295 C13.85344354 296.53304474 18.04151199 299.05120308 21.3828125 304.08203125 C23.94416374 308.58356771 25.98821258 313.23432489 28 318 C29.20250158 315.75692972 30.3869162 313.5071209 31.5625 311.25 C31.90474609 310.61578125 32.24699219 309.9815625 32.59960938 309.328125 C34.48123656 305.73798443 34.48123656 305.73798443 34.88671875 301.78125 C33.86634303 299.73150847 32.65433848 298.05971454 31.25 296.25 C28.31733791 291.99587331 26.69531963 287.76808881 25.1875 282.875 C24.8776416 281.87194824 24.8776416 281.87194824 24.56152344 280.84863281 C22.55857097 274.01839657 21.86043867 267.5361484 21.875 260.4375 C21.87113281 258.54837891 21.87113281 258.54837891 21.8671875 256.62109375 C21.9883692 253.31711034 22.37077045 250.24103157 23 247 C31.30157414 247.59296958 37.13631322 249.66105965 42.875 255.875 C45.49942005 259.06734694 47.08027075 261.91231445 48 266 C48.66 266 49.32 266 50 266 C50.06058594 265.39414062 50.12117188 264.78828125 50.18359375 264.1640625 C50.30927734 262.90722656 50.30927734 262.90722656 50.4375 261.625 C50.55738281 260.25988281 50.55738281 260.25988281 50.6796875 258.8671875 C51 256 51 256 51.5703125 253.3203125 C52.06957178 250.71306958 52.36891075 248.63310046 52 246 C50.29245067 244.13004789 48.47141971 243.00575364 46.32421875 241.66796875 C34.45344766 233.14894479 28.66042765 215.80292463 26 202 C25.94106868 200.00086841 25.92055206 197.99842138 26 196 C33.46265706 194.19047077 39.75179557 196.01316669 46.3125 199.8125 C50.05108503 202.11744581 52.96215104 204.83310967 56 208 C55.85953745 205.04132082 55.71287776 202.08317736 55.5625 199.125 C55.52318359 198.28324219 55.48386719 197.44148437 55.44335938 196.57421875 C55.40146484 195.76855469 55.35957031 194.96289062 55.31640625 194.1328125 C55.27974854 193.38918457 55.24309082 192.64555664 55.20532227 191.87939453 C55.10044135 189.91135688 55.10044135 189.91135688 54 188 C52.39494767 187.40180706 50.76424842 186.87188267 49.125 186.375 C33.92431461 181.0193181 24.07375265 168.8855108 16.53125 155.19921875 C15.17723396 152.37029239 14.41692925 150.08643457 14 147 C19.88767593 143.35109467 28.14775795 144.23844566 34.70703125 145.53515625 C39.36903781 146.98855864 42.96599998 149.22662499 47 152 C46.65066406 150.81921875 46.30132812 149.6384375 45.94140625 148.421875 C45.48172754 146.86459611 45.02209452 145.30730374 44.5625 143.75 C44.33240234 142.97269531 44.10230469 142.19539062 43.86523438 141.39453125 C43.64287109 140.64042969 43.42050781 139.88632813 43.19140625 139.109375 C42.88505249 138.07248535 42.88505249 138.07248535 42.57250977 137.01464844 C42.00535746 135.01885279 41.49201996 133.01550346 41 131 C40.34515625 131.04640625 39.6903125 131.0928125 39.015625 131.140625 C24.91367455 131.69832926 13.30904181 125.81728659 2.875 116.6875 C-1.73530505 112.39816556 -5.93408247 107.80414278 -10 103 C-8.9900089 100.26843315 -8.32692912 99.18389763 -5.75 97.734375 C5.11930265 93.84365871 13.08610791 94.51419416 24 98 C17.94369754 88.6679289 17.94369754 88.6679289 11 80 C10.18208984 80.2165625 10.18208984 80.2165625 9.34765625 80.4375 C-6.81247155 84.41537761 -24.52433807 80.23066901 -38.82226562 71.94384766 C-42.3163046 69.77009718 -45.68310983 67.43362146 -49 65 C-47.01468573 61.28777745 -45.22508148 59.09146009 -41.6875 56.8125 C-40.57955078 56.07966797 -40.57955078 56.07966797 -39.44921875 55.33203125 C-34.14515196 52.44736335 -29.0893993 51.65241392 -23.125 51.375 C-22.43664062 51.33632812 -21.74828125 51.29765625 -21.0390625 51.2578125 C-19.35976754 51.16451834 -17.67992233 51.08121762 -16 51 C-24.06920716 43.74940806 -32.68166454 37.70737841 -41.7878418 31.82373047 C-42.662229 31.25541504 -43.53661621 30.68709961 -44.4375 30.1015625 C-45.21996094 29.59963379 -46.00242187 29.09770508 -46.80859375 28.58056641 C-50.53070632 25.89596784 -52.69965524 24.03243511 -54 19.5625 C-54 16 -54 16 -52.1875 13.125 C-49.64311529 10.65331199 -48.60709806 10.10558227 -45.125 9.5 C-31.12023428 9.81698029 -13.20124925 28.41059055 -3 37 C-3.144375 36.28457031 -3.28875 35.56914063 -3.4375 34.83203125 C-5.5001958 23.7593656 -6.67888052 12.58113807 -2 2 C-1.34 1.34 -0.68 0.68 0 0 Z " fill="#000000" transform="translate(405,43)"/>
<path d="M0 0 C6.1189597 10.87208018 5.3050237 24.61677726 2.4375 36.4453125 C2.293125 36.95835938 2.14875 37.47140625 2 38 C2.51304688 37.50113281 3.02609375 37.00226563 3.5546875 36.48828125 C31.18042245 10.58334124 31.18042245 10.58334124 44.15625 9.8125 C47.06426351 10.00423715 48.60569788 10.37529499 51 12 C53.4915904 15.7373856 53.45793285 17.57331583 53 22 C50.17654405 26.366027 46.71709177 28.57138588 42.25 31 C32.72757042 36.4202044 23.75854476 43.24145524 16 51 C16.81082031 51.02578125 17.62164062 51.0515625 18.45703125 51.078125 C30.61063059 51.70066094 39.36540846 54.19222181 48 63 C46.52068848 67.28523144 43.47093842 68.86937601 39.6875 70.9375 C39.06447998 71.28377441 38.44145996 71.63004883 37.79956055 71.98681641 C21.13637025 81.02683399 5.71678663 83.33959833 -13 81 C-16.63 86.28 -20.26 91.56 -24 97 C-21.2055695 97 -19.18949892 96.59677652 -16.5 95.9375 C-6.4170477 93.91504736 1.22222044 95.83996039 10 101 C3.92696906 114.26091781 -10.59061978 124.42150229 -23.875 129.375 C-29.96032026 131.28752922 -35.67328693 131.40383275 -42 131 C-42.10957031 131.54527344 -42.21914063 132.09054688 -42.33203125 132.65234375 C-43.37190111 137.59806626 -44.69353748 142.30195008 -46.4140625 147.0546875 C-47.14420304 149.14014733 -47.14420304 149.14014733 -47 152 C-46.25556641 151.49339844 -46.25556641 151.49339844 -45.49609375 150.9765625 C-37.20466238 145.53285234 -29.85297225 144.29134916 -20 145 C-16.25 146 -16.25 146 -14 147 C-19.73382458 163.41796975 -29.81065639 175.98259925 -44.98046875 184.66015625 C-48 186 -48 186 -56 188 C-56 194.6 -56 201.2 -56 208 C-52.535 204.535 -52.535 204.535 -49 201 C-41.65294376 196.10554819 -34.65611363 195.3202005 -26 196 C-27.52947191 213.11426323 -33.57437849 229.59794769 -46.35546875 241.62890625 C-48.43456279 243.36230769 -50.5949323 244.76102573 -53 246 C-52.54240047 252.5508985 -51.7899856 258.6753842 -50 265 C-49.443125 264.29875 -48.88625 263.5975 -48.3125 262.875 C-47.549375 261.92625 -46.78625 260.9775 -46 260 C-45.2575 259.01 -44.515 258.02 -43.75 257 C-38.46118751 250.74372181 -31.93144116 248.23010777 -24 247 C-19.56563178 260.30310466 -22.69472831 277.83865163 -28.49609375 290.18359375 C-32.22959083 297.34334252 -32.22959083 297.34334252 -34.74609375 299.48828125 C-36.26562818 300.9722102 -36.26562818 300.9722102 -35.875 303.328125 C-34.88024243 306.36568828 -33.56609318 308.96416118 -32 311.75 C-31.195625 313.19632812 -31.195625 313.19632812 -30.375 314.671875 C-29.19878872 316.88429796 -29.19878872 316.88429796 -28 318 C-27.75765625 317.34773438 -27.5153125 316.69546875 -27.265625 316.0234375 C-24.09991525 307.76824054 -20.49072127 301.04309524 -13 296 C-10.78125 295.33203125 -10.78125 295.33203125 -9 295 C-4.17001974 303.8272053 -1.58066228 312.94728433 -1 323 C-0.95875 323.69351562 -0.9175 324.38703125 -0.875 325.1015625 C-0.64887253 332.8746943 -1.45141316 341.26740075 -4.4375 348.46484375 C-5.33807417 351.80799039 -5.33807417 351.80799039 -4.03564453 353.77148438 C-2.49298914 355.6199978 -0.86779324 357.27669813 0.875 358.9375 C1.45636719 359.52595703 2.03773437 360.11441406 2.63671875 360.72070312 C4.07132491 362.16706836 5.5331745 363.58632035 7 365 C7.17015625 364.0821875 7.3403125 363.164375 7.515625 362.21875 C9.57486421 351.79111317 11.22347911 344.38292428 20 338 C31.14789461 350.60067875 40.05589056 366.1731108 40.11254883 383.37182617 C39.93911356 389.80568561 39.93911356 389.80568561 43.1015625 395.1328125 C45.6816633 396.58649761 48.30180176 397.78455776 51 399 C53.88624255 401.20600477 55.70117527 403.50587633 56.43359375 407.16796875 C56.65747999 411.21827435 56.15276325 413.68272247 54.375 417.375 C51.24235905 420.83739263 48.71583761 422.73415025 43.96484375 423.19921875 C37.75672587 422.99118658 34.22922069 420.3299977 29.65234375 416.30078125 C26.33111592 414.67196112 24.58891076 415.35247056 21.14819336 416.41186523 C6.77945251 420.34575507 -8.48902247 415.31675079 -21.1484375 408.703125 C-25.81885521 405.91367004 -29.8922019 402.54828767 -34 399 C-34.70640625 398.42636719 -35.4128125 397.85273438 -36.140625 397.26171875 C-40.87098089 393.38705732 -40.87098089 393.38705732 -42 390 C-40.58671871 389.18162558 -39.16921654 388.37053781 -37.75 387.5625 C-36.96109375 387.11003906 -36.1721875 386.65757812 -35.359375 386.19140625 C-31.69242271 384.33971677 -28.53843896 383.87474028 -24.453125 383.90234375 C-23.60878906 383.90556641 -22.76445313 383.90878906 -21.89453125 383.91210938 C-21.02183594 383.92048828 -20.14914063 383.92886719 -19.25 383.9375 C-18.36183594 383.94201172 -17.47367187 383.94652344 -16.55859375 383.95117188 C-14.37232671 383.962926 -12.18619821 383.97935751 -10 384 C-10.46438477 383.55470947 -10.92876953 383.10941895 -11.40722656 382.65063477 C-16.63986707 377.63023263 -16.63986707 377.63023263 -18.390625 374.56640625 C-20.05337522 371.7114093 -21.31934578 369.96581309 -24 368 C-27.66204636 367.19278499 -31.35634688 367.25811349 -35.09082031 367.23535156 C-46.50263508 367.11857081 -54.50248008 362.28602612 -63 355 C-64.485 353.9171875 -64.485 353.9171875 -66 352.8125 C-72.58156122 347.27884098 -78.42190454 338.80675374 -82 331 C-81.9375 328.625 -81.9375 328.625 -81 327 C-70.07360658 323.35786886 -57.46557399 326.28480416 -47 330 C-50.718634 317.50197336 -50.718634 317.50197336 -58.953125 308.40234375 C-62.0002211 308.00936573 -62.0002211 308.00936573 -65.0859375 308.0390625 C-73.85580354 307.92150397 -81.217591 299.83043565 -87 294 C-95.04769412 285.4910744 -101.69460593 272.39833692 -102.125 260.5625 C-102.08375 259.716875 -102.0425 258.87125 -102 258 C-90.07898999 257.42317694 -81.60009614 260.97164343 -72 268 C-70.9879949 268.98784901 -69.9855841 269.98578898 -69 271 C-69.2165625 269.75863281 -69.433125 268.51726562 -69.65625 267.23828125 C-69.93771684 265.59639133 -70.21895482 263.95446215 -70.5 262.3125 C-70.64308594 261.49587891 -70.78617188 260.67925781 -70.93359375 259.83789062 C-71.61165962 255.85021752 -72.19858392 252.06269596 -72 248 C-72.92619141 247.79697266 -72.92619141 247.79697266 -73.87109375 247.58984375 C-83.30888908 245.19089121 -89.44712799 240.77579918 -94.8125 232.625 C-95.90419613 230.76684747 -96.9689606 228.89248224 -98 227 C-98.60134766 225.90365234 -98.60134766 225.90365234 -99.21484375 224.78515625 C-105.31062211 212.43257898 -105.41103447 199.42712601 -105 186 C-93.77529158 187.81043684 -85.75813729 192.85465999 -79 202 C-77.65453682 203.99186009 -76.31880595 205.99039093 -75 208 C-74.59827688 204.12893147 -74.29095118 200.25584117 -74 196.375 C-73.88527344 195.28058594 -73.77054688 194.18617188 -73.65234375 193.05859375 C-73.09120732 187.10833665 -73.09120732 187.10833665 -75.67089844 182.02172852 C-77.71653659 180.52367678 -79.80181071 179.25904155 -82 178 C-92.37343728 167.27386585 -94.45267261 153.29529357 -94.26171875 138.9296875 C-93.71743186 130.75726046 -92.273524 122.54333792 -89 115 C-80.82197578 117.30006931 -75.58439428 123.98154845 -71.421875 130.984375 C-69.27813361 135.53099135 -67.66082317 140.25925631 -66 145 C-64.47699129 141.35697034 -63.04420993 137.6845734 -61.625 134 C-61.19316406 132.97003906 -60.76132812 131.94007813 -60.31640625 130.87890625 C-58.03310294 125.29602458 -58.03310294 125.29602458 -59.02880859 119.63183594 C-60.57552689 117.61149726 -62.22214624 115.81709879 -64 114 C-70.10665381 103.61542293 -69.7032195 88.42997137 -66.8125 77 C-66.2487333 75.3192376 -65.64328718 73.65196148 -65 72 C-64.45472656 70.51113281 -64.45472656 70.51113281 -63.8984375 68.9921875 C-61.34167995 62.41059872 -58.17830935 56.68594674 -54 51 C-48.19796383 53.40602796 -45.35860694 58.73068291 -43.01953125 64.359375 C-40.8586271 71.07243763 -39.92895659 78.02736111 -39 85 C-37.20410736 82.41958111 -35.41404504 79.83517009 -33.625 77.25 C-33.11710937 76.52039063 -32.60921875 75.79078125 -32.0859375 75.0390625 C-31.59609375 74.33007812 -31.10625 73.62109375 -30.6015625 72.890625 C-29.92601318 71.91657715 -29.92601318 71.91657715 -29.23681641 70.92285156 C-27.97841011 68.96643467 -26.84371172 67.17172597 -26 65 C-27.27487535 61.95009373 -27.27487535 61.95009373 -29 59 C-32.61874913 47.75775272 -29.31694365 35.21976051 -24.5625 24.87109375 C-20.41407712 17.22243906 -9.7026069 0 0 0 Z " fill="#000000" transform="translate(106,46)"/>
</svg>
