<?xml version="1.0" encoding="UTF-8"?>
<svg version="1.1" xmlns="http://www.w3.org/2000/svg" width="512" height="512">
<path d="M0 0 C1.27866943 -0.0112793 2.55733887 -0.02255859 3.87475586 -0.03417969 C5.28955305 -0.02640266 6.704348 -0.01821 8.11914062 -0.00964355 C9.61076542 -0.01506435 11.10238485 -0.02218677 12.59399414 -0.03088379 C16.6436169 -0.04912547 20.69283223 -0.04204633 24.74246216 -0.02936745 C28.97936099 -0.01924407 33.21622481 -0.02863128 37.453125 -0.03491211 C44.56842312 -0.04219046 51.68355521 -0.03259594 58.79882812 -0.0135498 C67.02641862 0.00821938 75.25361265 0.00116814 83.48119354 -0.02085543 C90.54373317 -0.03900413 97.6061534 -0.04157037 104.6687088 -0.03110075 C108.88752237 -0.02486287 113.10614956 -0.02403817 117.32495117 -0.0372467 C121.29119435 -0.04879699 125.25692611 -0.04079505 129.22311401 -0.01766968 C130.6791804 -0.01237811 132.1352898 -0.01390409 133.59133911 -0.02272034 C135.57780425 -0.03363977 137.56436338 -0.01752243 139.55078125 0 C141.21880798 0.00226215 141.21880798 0.00226215 142.92053223 0.00457001 C146.51444153 0.63824297 147.6838611 1.53765002 149.77539062 4.50793457 C150.26758194 7.18655777 150.26758194 7.18655777 150.25640869 10.30389404 C150.26465668 12.07911438 150.26465668 12.07911438 150.27307129 13.89019775 C150.25149963 15.83228119 150.25149963 15.83228119 150.22949219 17.81359863 C150.22836365 19.19348111 150.22899769 20.57336599 150.23126221 21.95324707 C150.23241008 25.69690298 150.20888953 29.44004646 150.18096638 33.18358326 C150.15596461 37.09666663 150.1536117 41.00976168 150.14886475 44.9229126 C150.13643133 52.33191307 150.1036049 59.74067751 150.06346679 67.14957404 C150.01876036 75.5847813 149.9967649 84.01999981 149.97668505 92.45529604 C149.93487248 109.80631209 149.86451345 127.15709837 149.77539062 144.50793457 C150.61841736 144.49905212 151.46144409 144.49016968 152.33001709 144.48101807 C160.27543256 144.40086407 168.22071221 144.33996616 176.16643906 144.30068588 C180.25143432 144.27981246 184.33609547 144.25149994 188.42089844 144.20617676 C192.36313408 144.16270927 196.3050484 144.13879562 200.24750519 144.1284256 C201.75143747 144.12103575 203.25535219 144.1066049 204.75914764 144.08501434 C206.86618522 144.05596645 208.97189591 144.05197886 211.07910156 144.05383301 C212.27823181 144.04495056 213.47736206 144.03606812 214.71282959 144.0269165 C217.77539062 144.50793457 217.77539062 144.50793457 220.16384506 146.13610458 C222.27246809 149.23951998 222.2684378 151.1702638 222.25640869 154.91131592 C222.26465668 156.88847595 222.26465668 156.88847595 222.27307129 158.90557861 C222.25891544 160.3645056 222.24437622 161.8234289 222.22949219 163.28234863 C222.2283638 164.81986461 222.2289974 166.35738274 222.23126221 167.89489746 C222.23241063 172.06826987 222.20888086 176.24118311 222.18096638 180.41444874 C222.15597394 184.77597035 222.15361243 189.1375023 222.14886475 193.49908447 C222.13642861 201.75805644 222.10359841 210.01681681 222.06346679 218.27569556 C222.0187689 227.67823975 221.99676703 237.08079401 221.97668505 246.48341799 C221.9348663 265.82504352 221.86450188 285.16647203 221.77539062 304.50793457 C222.61841736 304.49905212 223.46144409 304.49016968 224.33001709 304.48101807 C232.27543256 304.40086407 240.22071221 304.33996616 248.16643906 304.30068588 C252.25143432 304.27981246 256.33609547 304.25149994 260.42089844 304.20617676 C264.36313408 304.16270927 268.3050484 304.13879562 272.24750519 304.1284256 C273.75143747 304.12103575 275.25535219 304.1066049 276.75914764 304.08501434 C278.86618522 304.05596645 280.97189591 304.05197886 283.07910156 304.05383301 C284.27823181 304.04495056 285.47736206 304.03606812 286.71282959 304.0269165 C289.77539062 304.50793457 289.77539062 304.50793457 292.16216278 306.10931396 C294.32881403 309.33078968 294.27857737 311.46764087 294.2833252 315.33996582 C294.29268514 316.36991417 294.29268514 316.36991417 294.30223417 317.42066956 C294.31818631 319.72094078 294.3055523 322.02015554 294.29296875 324.32043457 C294.29838892 325.96969216 294.30551099 327.61894491 294.31420898 329.26818848 C294.33245788 333.74753673 294.32536843 338.22651682 294.31269264 342.70587158 C294.30257306 347.39120483 294.31195542 352.07650634 294.3182373 356.76184082 C294.32551675 364.63038804 294.31591822 372.49878514 294.296875 380.36730957 C294.27510567 389.46739228 294.28215683 398.56711653 294.30418062 407.66719055 C294.32232617 415.47706676 294.32489709 423.28683499 294.31442595 431.09672546 C294.30818635 435.76266354 294.30736815 440.42843307 294.3205719 445.09436035 C294.33211751 449.48082274 294.32412849 453.86682251 294.30099487 458.25323486 C294.29570085 459.86410758 294.29723343 461.47501915 294.30604553 463.08587646 C294.31695802 465.28307958 294.30329203 467.47879531 294.2833252 469.67590332 C294.28106304 471.52091431 294.28106304 471.52091431 294.27875519 473.40319824 C293.65612524 477.24355958 292.85414307 478.17813438 289.77539062 480.50793457 C287.18236471 480.90031143 285.01345819 481.04624467 282.42272949 481.01129913 C281.67642808 481.0171129 280.93012667 481.02292666 280.16121006 481.0289166 C277.64621174 481.04358065 275.13217962 481.02960214 272.6171875 481.01586914 C270.80166879 481.02047554 268.98615381 481.02682669 267.17064667 481.03477812 C262.17061317 481.05153049 257.17088367 481.04319831 252.17084885 481.03083324 C246.78290459 481.02180918 241.39501382 481.03573931 236.00708008 481.04675293 C225.44773474 481.06457106 214.88850291 481.06068351 204.32915306 481.04910237 C195.74994345 481.04008126 187.17076572 481.03883831 178.59155273 481.04319763 C177.37209064 481.04381056 176.15262855 481.0444235 174.89621305 481.045055 C172.41916211 481.04633386 169.94211116 481.04763071 167.46506023 481.04894537 C144.21922432 481.06036082 120.97345143 481.04722233 97.72762585 481.0257439 C77.76695337 481.00787206 57.80637393 481.0109759 37.84570312 481.02941895 C14.68497433 481.05080862 -8.47569917 481.05926209 -31.63643646 481.04696989 C-34.10454813 481.04569565 -36.5726598 481.04443817 -39.04077148 481.04319763 C-40.86247006 481.04227198 -40.86247006 481.04227198 -42.72097063 481.04132763 C-51.29324193 481.03786901 -59.86547826 481.04371407 -68.43774414 481.05311584 C-78.87966241 481.06431608 -89.32146036 481.06133744 -99.76336479 481.03999287 C-105.094457 481.02945583 -110.42534834 481.02540571 -115.75643921 481.03858948 C-120.63187759 481.05046437 -125.50692797 481.04403221 -130.38233089 481.02267927 C-132.15077294 481.01819232 -133.91924743 481.02052604 -135.6876688 481.03018242 C-138.08290142 481.0422633 -140.47678719 481.02995768 -142.87194824 481.01129913 C-143.56620879 481.0206638 -144.26046934 481.03002846 -144.97576809 481.0396769 C-148.28551959 480.98778123 -149.98234118 480.69126743 -152.65269041 478.67052031 C-154.87195247 475.61734481 -154.7279418 473.42941289 -154.73254395 469.67590332 C-154.73878391 468.98927109 -154.74502387 468.30263885 -154.75145292 467.59519958 C-154.76740506 465.29492837 -154.75477105 462.9957136 -154.7421875 460.69543457 C-154.74760767 459.04617698 -154.75472974 457.39692423 -154.76342773 455.74768066 C-154.78167663 451.26833241 -154.77458718 446.78935232 -154.76191139 442.30999756 C-154.75179181 437.62466431 -154.76117417 432.9393628 -154.76745605 428.25402832 C-154.7747355 420.3854811 -154.76513697 412.517084 -154.74609375 404.64855957 C-154.72432442 395.54847686 -154.73137558 386.44875261 -154.75339937 377.34867859 C-154.77154492 369.53880238 -154.77411584 361.72903415 -154.7636447 353.91914368 C-154.7574051 349.2532056 -154.7565869 344.58743607 -154.76979065 339.92150879 C-154.78133626 335.5350464 -154.77334724 331.14904663 -154.75021362 326.76263428 C-154.7449196 325.15176156 -154.74645218 323.54084999 -154.75526428 321.92999268 C-154.76617677 319.73278956 -154.75251078 317.53707383 -154.73254395 315.33996582 C-154.73103584 314.1099585 -154.72952774 312.87995117 -154.72797394 311.6126709 C-154.22460938 308.50793457 -154.22460938 308.50793457 -152.61138153 306.10931396 C-149.42545389 303.97174969 -147.35267193 304.02550448 -143.52832031 304.05383301 C-142.86449341 304.0532489 -142.2006665 304.05266479 -141.51672363 304.05206299 C-139.33027199 304.05484192 -137.14519675 304.08592129 -134.95898438 304.11730957 C-133.44013209 304.12477273 -131.92127015 304.13046531 -130.40240479 304.13446045 C-126.41057612 304.14971116 -122.4193324 304.18898734 -118.42773438 304.23327637 C-114.35229403 304.27424168 -110.27675889 304.29247411 -106.20117188 304.31262207 C-98.20871636 304.35548282 -90.21673569 304.42372653 -82.22460938 304.50793457 C-82.22829655 303.7076395 -82.23198372 302.90734444 -82.23578262 302.082798 C-82.32407476 282.62042467 -82.39029027 263.15809125 -82.43185806 243.69556046 C-82.45249364 234.28366153 -82.48063322 224.8718962 -82.52636719 215.46008301 C-82.56620452 207.2578643 -82.59203494 199.05574232 -82.60096335 190.85342956 C-82.60618339 186.50930417 -82.61847285 182.16545555 -82.6475296 177.82141876 C-82.67464981 173.73383942 -82.68306134 169.64665124 -82.6770401 165.55899048 C-82.67814187 164.05774562 -82.68611623 162.55648788 -82.70143127 161.05532074 C-82.72130193 159.00741505 -82.71417088 156.95930018 -82.70562744 154.91131592 C-82.70931461 153.76460545 -82.71300179 152.61789497 -82.71680069 151.4364357 C-82.22460937 148.50793457 -82.22460937 148.50793457 -80.61306381 146.13610458 C-77.42668525 143.96400285 -75.37121645 144.02536711 -71.52832031 144.05383301 C-70.86449341 144.0532489 -70.2006665 144.05266479 -69.51672363 144.05206299 C-67.33027199 144.05484192 -65.14519675 144.08592129 -62.95898438 144.11730957 C-61.44013209 144.12477273 -59.92127015 144.13046531 -58.40240479 144.13446045 C-54.41057612 144.14971116 -50.4193324 144.18898734 -46.42773438 144.23327637 C-42.35229403 144.27424168 -38.27675889 144.29247411 -34.20117188 144.31262207 C-26.20871636 144.35548282 -18.21673569 144.42372653 -10.22460938 144.50793457 C-10.22829655 143.79009922 -10.23198372 143.07226387 -10.23578262 142.33267593 C-10.32408664 124.87315082 -10.39029601 107.41368236 -10.43185806 89.95398331 C-10.45249096 81.51062251 -10.48062533 73.06741069 -10.52636719 64.62414551 C-10.56621284 57.2657301 -10.5920369 49.90742257 -10.60096335 42.54890227 C-10.60618201 38.65189368 -10.61846244 34.75519375 -10.6475296 30.858284 C-10.67466309 27.19093006 -10.68305874 23.52401216 -10.6770401 19.85656738 C-10.67866667 17.86772098 -10.70020032 15.87892215 -10.72229004 13.89019775 C-10.71679138 12.70671753 -10.71129272 11.5232373 -10.70562744 10.30389404 C-10.70931461 9.27517307 -10.71300179 8.2464521 -10.71680069 7.18655777 C-9.5807398 1.00384187 -5.732284 0.00777404 0 0 Z M5.77539062 16.50793457 C5.77539062 58.74793457 5.77539062 100.98793457 5.77539062 144.50793457 C48.01539063 144.50793457 90.25539063 144.50793457 133.77539062 144.50793457 C133.77539062 102.26793457 133.77539062 60.02793457 133.77539062 16.50793457 C120.57539063 16.50793457 107.37539063 16.50793457 93.77539062 16.50793457 C93.56547757 25.58732779 93.56547757 25.58732779 93.38745117 34.6673584 C93.33778198 36.36154907 93.33778198 36.36154907 93.28710938 38.08996582 C93.26092529 39.24730225 93.23474121 40.40463867 93.20776367 41.5970459 C92.72328755 44.85871098 92.30591267 45.53394651 89.77539062 47.50793457 C86.72676538 47.80641451 83.88678967 47.92815302 80.83789062 47.90637207 C79.96140869 47.90924225 79.08492676 47.91211243 78.18188477 47.91506958 C76.32925775 47.91711055 74.4766092 47.91157835 72.62402344 47.89904785 C69.78596884 47.88299441 66.94933836 47.89889512 64.11132812 47.91809082 C62.31184581 47.91610839 60.51236438 47.91226473 58.71289062 47.90637207 C57.86283447 47.91244476 57.01277832 47.91851746 56.13696289 47.92477417 C50.2190464 47.85401778 50.2190464 47.85401778 48.05461121 46.16560364 C46.07352231 43.59842341 46.33601216 41.28740656 46.26367188 38.08996582 C46.23055908 36.96050537 46.19744629 35.83104492 46.16333008 34.6673584 C46.13843506 33.23287354 46.11354004 31.79838867 46.08789062 30.32043457 C45.98476562 25.76230957 45.88164062 21.20418457 45.77539062 16.50793457 C32.57539063 16.50793457 19.37539062 16.50793457 5.77539062 16.50793457 Z M61.77539062 16.50793457 C61.77539062 21.78793457 61.77539062 27.06793457 61.77539062 32.50793457 C67.05539063 32.50793457 72.33539063 32.50793457 77.77539062 32.50793457 C77.77539062 27.22793457 77.77539062 21.94793457 77.77539062 16.50793457 C72.49539063 16.50793457 67.21539062 16.50793457 61.77539062 16.50793457 Z M-66.22460938 160.50793457 C-66.22460938 208.02793457 -66.22460938 255.54793457 -66.22460938 304.50793457 C-23.98460937 304.50793457 18.25539063 304.50793457 61.77539062 304.50793457 C61.77539062 256.98793457 61.77539062 209.46793457 61.77539062 160.50793457 C48.57539063 160.50793457 35.37539062 160.50793457 21.77539062 160.50793457 C21.73800781 163.64937988 21.700625 166.7908252 21.66210938 170.02746582 C21.61591502 173.06570451 21.56467373 176.10381897 21.51293945 179.14196777 C21.47965935 181.25549793 21.4516371 183.36911763 21.42895508 185.48278809 C21.3954659 188.51890263 21.34315298 191.55419432 21.28710938 194.58996582 C21.28071945 195.53692825 21.27432953 196.48389069 21.26774597 197.45954895 C21.24795181 198.34023544 21.22815765 199.22092194 21.20776367 200.1282959 C21.19666061 200.90328934 21.18555756 201.67828278 21.17411804 202.47676086 C20.66437423 205.07346776 19.90407693 205.96096423 17.77539062 207.50793457 C14.72676538 207.80641451 11.88678967 207.92815302 8.83789062 207.90637207 C7.96140869 207.90924225 7.08492676 207.91211243 6.18188477 207.91506958 C4.32925775 207.91711055 2.4766092 207.91157835 0.62402344 207.89904785 C-2.21403116 207.88299441 -5.05066164 207.89889512 -7.88867188 207.91809082 C-9.68815419 207.91610839 -11.48763562 207.91226473 -13.28710938 207.90637207 C-14.13716553 207.91244476 -14.98722168 207.91851746 -15.86303711 207.92477417 C-21.74784178 207.85441368 -21.74784178 207.85441368 -23.94538879 206.25740051 C-25.54641873 204.06782712 -25.61833557 202.82584624 -25.65698242 200.1282959 C-25.67677658 199.24760941 -25.69657074 198.36692291 -25.71696472 197.45954895 C-25.72335464 196.51258652 -25.72974457 195.56562408 -25.73632812 194.58996582 C-25.75427933 193.61758469 -25.77223053 192.64520355 -25.79072571 191.64335632 C-25.84493405 188.53575993 -25.87875835 185.42831805 -25.91210938 182.32043457 C-25.94527313 180.21429323 -25.9797619 178.1081723 -26.015625 176.0020752 C-26.10316292 170.83733811 -26.16314203 165.6733114 -26.22460938 160.50793457 C-39.42460937 160.50793457 -52.62460938 160.50793457 -66.22460938 160.50793457 Z M-10.22460938 160.50793457 C-10.22460938 171.06793457 -10.22460938 181.62793457 -10.22460938 192.50793457 C-4.94460937 192.50793457 0.33539063 192.50793457 5.77539062 192.50793457 C5.77539062 181.94793457 5.77539062 171.38793457 5.77539062 160.50793457 C0.49539062 160.50793457 -4.78460938 160.50793457 -10.22460938 160.50793457 Z M77.77539062 160.50793457 C77.77539062 208.02793457 77.77539062 255.54793457 77.77539062 304.50793457 C120.01539063 304.50793457 162.25539063 304.50793457 205.77539062 304.50793457 C205.77539062 256.98793457 205.77539062 209.46793457 205.77539062 160.50793457 C192.57539063 160.50793457 179.37539063 160.50793457 165.77539062 160.50793457 C165.73800781 163.64937988 165.700625 166.7908252 165.66210938 170.02746582 C165.61591502 173.06570451 165.56467373 176.10381897 165.51293945 179.14196777 C165.47965935 181.25549793 165.4516371 183.36911763 165.42895508 185.48278809 C165.3954659 188.51890263 165.34315298 191.55419432 165.28710938 194.58996582 C165.28071945 195.53692825 165.27432953 196.48389069 165.26774597 197.45954895 C165.24795181 198.34023544 165.22815765 199.22092194 165.20776367 200.1282959 C165.19666061 200.90328934 165.18555756 201.67828278 165.17411804 202.47676086 C164.66437423 205.07346776 163.90407693 205.96096423 161.77539062 207.50793457 C158.72676538 207.80641451 155.88678967 207.92815302 152.83789062 207.90637207 C151.96140869 207.90924225 151.08492676 207.91211243 150.18188477 207.91506958 C148.32925775 207.91711055 146.4766092 207.91157835 144.62402344 207.89904785 C141.78596884 207.88299441 138.94933836 207.89889512 136.11132812 207.91809082 C134.31184581 207.91610839 132.51236438 207.91226473 130.71289062 207.90637207 C129.86283447 207.91244476 129.01277832 207.91851746 128.13696289 207.92477417 C122.25215822 207.85441368 122.25215822 207.85441368 120.05461121 206.25740051 C118.45358127 204.06782712 118.38166443 202.82584624 118.34301758 200.1282959 C118.32322342 199.24760941 118.30342926 198.36692291 118.28303528 197.45954895 C118.27664536 196.51258652 118.27025543 195.56562408 118.26367188 194.58996582 C118.24572067 193.61758469 118.22776947 192.64520355 118.20927429 191.64335632 C118.15506595 188.53575993 118.12124165 185.42831805 118.08789062 182.32043457 C118.05472687 180.21429323 118.0202381 178.1081723 117.984375 176.0020752 C117.89683708 170.83733811 117.83685797 165.6733114 117.77539062 160.50793457 C104.57539063 160.50793457 91.37539063 160.50793457 77.77539062 160.50793457 Z M133.77539062 160.50793457 C133.77539062 171.06793457 133.77539062 181.62793457 133.77539062 192.50793457 C139.05539062 192.50793457 144.33539063 192.50793457 149.77539062 192.50793457 C149.77539062 181.94793457 149.77539062 171.38793457 149.77539062 160.50793457 C144.49539063 160.50793457 139.21539062 160.50793457 133.77539062 160.50793457 Z M-138.22460938 320.50793457 C-138.22460938 368.02793457 -138.22460938 415.54793457 -138.22460938 464.50793457 C-95.98460937 464.50793457 -53.74460937 464.50793457 -10.22460938 464.50793457 C-10.22460938 416.98793457 -10.22460938 369.46793457 -10.22460938 320.50793457 C-23.42460937 320.50793457 -36.62460938 320.50793457 -50.22460938 320.50793457 C-50.26199219 323.64937988 -50.299375 326.7908252 -50.33789062 330.02746582 C-50.38408498 333.06570451 -50.43532627 336.10381897 -50.48706055 339.14196777 C-50.52034065 341.25549793 -50.5483629 343.36911763 -50.57104492 345.48278809 C-50.6045341 348.51890263 -50.65684702 351.55419432 -50.71289062 354.58996582 C-50.71928055 355.53692825 -50.72567047 356.48389069 -50.73225403 357.45954895 C-50.75204819 358.34023544 -50.77184235 359.22092194 -50.79223633 360.1282959 C-50.80333939 360.90328934 -50.81444244 361.67828278 -50.82588196 362.47676086 C-51.33562577 365.07346776 -52.09592307 365.96096423 -54.22460938 367.50793457 C-57.27323462 367.80641451 -60.11321033 367.92815302 -63.16210938 367.90637207 C-64.03859131 367.90924225 -64.91507324 367.91211243 -65.81811523 367.91506958 C-67.67074225 367.91711055 -69.5233908 367.91157835 -71.37597656 367.89904785 C-74.21403116 367.88299441 -77.05066164 367.89889512 -79.88867188 367.91809082 C-81.68815419 367.91610839 -83.48763562 367.91226473 -85.28710938 367.90637207 C-86.13716553 367.91244476 -86.98722168 367.91851746 -87.86303711 367.92477417 C-93.74784178 367.85441368 -93.74784178 367.85441368 -95.94538879 366.25740051 C-97.54641873 364.06782712 -97.61833557 362.82584624 -97.65698242 360.1282959 C-97.67677658 359.24760941 -97.69657074 358.36692291 -97.71696472 357.45954895 C-97.72335464 356.51258652 -97.72974457 355.56562408 -97.73632812 354.58996582 C-97.75427933 353.61758469 -97.77223053 352.64520355 -97.79072571 351.64335632 C-97.84493405 348.53575993 -97.87875835 345.42831805 -97.91210938 342.32043457 C-97.94527313 340.21429323 -97.9797619 338.1081723 -98.015625 336.0020752 C-98.10316292 330.83733811 -98.16314203 325.6733114 -98.22460938 320.50793457 C-111.42460938 320.50793457 -124.62460938 320.50793457 -138.22460938 320.50793457 Z M-82.22460938 320.50793457 C-82.22460938 331.06793457 -82.22460938 341.62793457 -82.22460938 352.50793457 C-76.94460937 352.50793457 -71.66460937 352.50793457 -66.22460938 352.50793457 C-66.22460938 341.94793457 -66.22460938 331.38793457 -66.22460938 320.50793457 C-71.50460938 320.50793457 -76.78460938 320.50793457 -82.22460938 320.50793457 Z M5.77539062 320.50793457 C5.77539062 368.02793457 5.77539062 415.54793457 5.77539062 464.50793457 C48.01539063 464.50793457 90.25539063 464.50793457 133.77539062 464.50793457 C133.77539062 416.98793457 133.77539062 369.46793457 133.77539062 320.50793457 C120.57539063 320.50793457 107.37539063 320.50793457 93.77539062 320.50793457 C93.73800781 323.64937988 93.700625 326.7908252 93.66210938 330.02746582 C93.61591502 333.06570451 93.56467373 336.10381897 93.51293945 339.14196777 C93.47965935 341.25549793 93.4516371 343.36911763 93.42895508 345.48278809 C93.3954659 348.51890263 93.34315298 351.55419432 93.28710938 354.58996582 C93.28071945 355.53692825 93.27432953 356.48389069 93.26774597 357.45954895 C93.24795181 358.34023544 93.22815765 359.22092194 93.20776367 360.1282959 C93.19666061 360.90328934 93.18555756 361.67828278 93.17411804 362.47676086 C92.66437423 365.07346776 91.90407693 365.96096423 89.77539062 367.50793457 C86.72676538 367.80641451 83.88678967 367.92815302 80.83789062 367.90637207 C79.96140869 367.90924225 79.08492676 367.91211243 78.18188477 367.91506958 C76.32925775 367.91711055 74.4766092 367.91157835 72.62402344 367.89904785 C69.78596884 367.88299441 66.94933836 367.89889512 64.11132812 367.91809082 C62.31184581 367.91610839 60.51236438 367.91226473 58.71289062 367.90637207 C57.86283447 367.91244476 57.01277832 367.91851746 56.13696289 367.92477417 C50.25215822 367.85441368 50.25215822 367.85441368 48.05461121 366.25740051 C46.45358127 364.06782712 46.38166443 362.82584624 46.34301758 360.1282959 C46.32322342 359.24760941 46.30342926 358.36692291 46.28303528 357.45954895 C46.27664536 356.51258652 46.27025543 355.56562408 46.26367188 354.58996582 C46.24572067 353.61758469 46.22776947 352.64520355 46.20927429 351.64335632 C46.15506595 348.53575993 46.12124165 345.42831805 46.08789062 342.32043457 C46.05472687 340.21429323 46.0202381 338.1081723 45.984375 336.0020752 C45.89683708 330.83733811 45.83685797 325.6733114 45.77539062 320.50793457 C32.57539063 320.50793457 19.37539062 320.50793457 5.77539062 320.50793457 Z M61.77539062 320.50793457 C61.77539062 331.06793457 61.77539062 341.62793457 61.77539062 352.50793457 C67.05539063 352.50793457 72.33539063 352.50793457 77.77539062 352.50793457 C77.77539062 341.94793457 77.77539062 331.38793457 77.77539062 320.50793457 C72.49539063 320.50793457 67.21539062 320.50793457 61.77539062 320.50793457 Z M149.77539062 320.50793457 C149.77539062 368.02793457 149.77539062 415.54793457 149.77539062 464.50793457 C192.01539063 464.50793457 234.25539063 464.50793457 277.77539062 464.50793457 C277.77539062 416.98793457 277.77539062 369.46793457 277.77539062 320.50793457 C264.57539063 320.50793457 251.37539063 320.50793457 237.77539062 320.50793457 C237.73800781 323.64937988 237.700625 326.7908252 237.66210938 330.02746582 C237.61591502 333.06570451 237.56467373 336.10381897 237.51293945 339.14196777 C237.47965935 341.25549793 237.4516371 343.36911763 237.42895508 345.48278809 C237.3954659 348.51890263 237.34315298 351.55419432 237.28710938 354.58996582 C237.28071945 355.53692825 237.27432953 356.48389069 237.26774597 357.45954895 C237.24795181 358.34023544 237.22815765 359.22092194 237.20776367 360.1282959 C237.19666061 360.90328934 237.18555756 361.67828278 237.17411804 362.47676086 C236.66437423 365.07346776 235.90407693 365.96096423 233.77539062 367.50793457 C230.72676538 367.80641451 227.88678967 367.92815302 224.83789062 367.90637207 C223.96140869 367.90924225 223.08492676 367.91211243 222.18188477 367.91506958 C220.32925775 367.91711055 218.4766092 367.91157835 216.62402344 367.89904785 C213.78596884 367.88299441 210.94933836 367.89889512 208.11132812 367.91809082 C206.31184581 367.91610839 204.51236438 367.91226473 202.71289062 367.90637207 C201.86283447 367.91244476 201.01277832 367.91851746 200.13696289 367.92477417 C194.25215822 367.85441368 194.25215822 367.85441368 192.05461121 366.25740051 C190.45358127 364.06782712 190.38166443 362.82584624 190.34301758 360.1282959 C190.32322342 359.24760941 190.30342926 358.36692291 190.28303528 357.45954895 C190.27664536 356.51258652 190.27025543 355.56562408 190.26367188 354.58996582 C190.24572067 353.61758469 190.22776947 352.64520355 190.20927429 351.64335632 C190.15506595 348.53575993 190.12124165 345.42831805 190.08789062 342.32043457 C190.05472687 340.21429323 190.0202381 338.1081723 189.984375 336.0020752 C189.89683708 330.83733811 189.83685797 325.6733114 189.77539062 320.50793457 C176.57539063 320.50793457 163.37539063 320.50793457 149.77539062 320.50793457 Z M205.77539062 320.50793457 C205.77539062 331.06793457 205.77539062 341.62793457 205.77539062 352.50793457 C211.05539062 352.50793457 216.33539063 352.50793457 221.77539062 352.50793457 C221.77539062 341.94793457 221.77539062 331.38793457 221.77539062 320.50793457 C216.49539063 320.50793457 211.21539062 320.50793457 205.77539062 320.50793457 Z " fill="#000000" transform="translate(186.224609375,15.4920654296875)"/>
<path d="M0 0 C1.051875 -0.00515625 2.10375 -0.0103125 3.1875 -0.015625 C4.280625 -0.00015625 5.37375 0.0153125 6.5 0.03125 C8.1396875 0.00804687 8.1396875 0.00804687 9.8125 -0.015625 C10.864375 -0.01046875 11.91625 -0.0053125 13 0 C14.43859375 0.00676758 14.43859375 0.00676758 15.90625 0.01367188 C19.21298564 0.673525 20.40908706 1.94238555 22.5 4.53125 C23.03125 6.53125 23.03125 6.53125 23 8.53125 C23.0103125 9.19125 23.020625 9.85125 23.03125 10.53125 C22.2561666 13.44921104 20.80895833 14.6243588 18.5 16.53125 C15.90625 17.04882812 15.90625 17.04882812 13 17.0625 C11.948125 17.06765625 10.89625 17.0728125 9.8125 17.078125 C8.719375 17.06265625 7.62625 17.0471875 6.5 17.03125 C4.8603125 17.05445313 4.8603125 17.05445313 3.1875 17.078125 C2.135625 17.07296875 1.08375 17.0678125 0 17.0625 C-0.9590625 17.05798828 -1.918125 17.05347656 -2.90625 17.04882812 C-6.21298564 16.388975 -7.40908706 15.12011445 -9.5 12.53125 C-10.03125 10.53125 -10.03125 10.53125 -10 8.53125 C-10.01546875 7.54125 -10.01546875 7.54125 -10.03125 6.53125 C-8.65240655 1.34030994 -4.94094259 0.02324368 0 0 Z " fill="#000000" transform="translate(353.5,455.46875)"/>
<path d="M0 0 C1.051875 -0.00515625 2.10375 -0.0103125 3.1875 -0.015625 C4.280625 -0.00015625 5.37375 0.0153125 6.5 0.03125 C8.1396875 0.00804687 8.1396875 0.00804687 9.8125 -0.015625 C10.864375 -0.01046875 11.91625 -0.0053125 13 0 C14.43859375 0.00676758 14.43859375 0.00676758 15.90625 0.01367188 C19.21298564 0.673525 20.40908706 1.94238555 22.5 4.53125 C23.03125 6.53125 23.03125 6.53125 23 8.53125 C23.0103125 9.19125 23.020625 9.85125 23.03125 10.53125 C22.2561666 13.44921104 20.80895833 14.6243588 18.5 16.53125 C15.90625 17.04882812 15.90625 17.04882812 13 17.0625 C11.948125 17.06765625 10.89625 17.0728125 9.8125 17.078125 C8.719375 17.06265625 7.62625 17.0471875 6.5 17.03125 C4.8603125 17.05445313 4.8603125 17.05445313 3.1875 17.078125 C2.135625 17.07296875 1.08375 17.0678125 0 17.0625 C-0.9590625 17.05798828 -1.918125 17.05347656 -2.90625 17.04882812 C-6.21298564 16.388975 -7.40908706 15.12011445 -9.5 12.53125 C-10.03125 10.53125 -10.03125 10.53125 -10 8.53125 C-10.01546875 7.54125 -10.01546875 7.54125 -10.03125 6.53125 C-8.65240655 1.34030994 -4.94094259 0.02324368 0 0 Z " fill="#000000" transform="translate(209.5,455.46875)"/>
<path d="M0 0 C1.051875 -0.00515625 2.10375 -0.0103125 3.1875 -0.015625 C4.280625 -0.00015625 5.37375 0.0153125 6.5 0.03125 C8.1396875 0.00804687 8.1396875 0.00804687 9.8125 -0.015625 C10.864375 -0.01046875 11.91625 -0.0053125 13 0 C14.43859375 0.00676758 14.43859375 0.00676758 15.90625 0.01367188 C19.21298564 0.673525 20.40908706 1.94238555 22.5 4.53125 C23.03125 6.53125 23.03125 6.53125 23 8.53125 C23.0103125 9.19125 23.020625 9.85125 23.03125 10.53125 C22.2561666 13.44921104 20.80895833 14.6243588 18.5 16.53125 C15.90625 17.04882812 15.90625 17.04882812 13 17.0625 C11.948125 17.06765625 10.89625 17.0728125 9.8125 17.078125 C8.719375 17.06265625 7.62625 17.0471875 6.5 17.03125 C4.8603125 17.05445313 4.8603125 17.05445313 3.1875 17.078125 C2.135625 17.07296875 1.08375 17.0678125 0 17.0625 C-0.9590625 17.05798828 -1.918125 17.05347656 -2.90625 17.04882812 C-6.21298564 16.388975 -7.40908706 15.12011445 -9.5 12.53125 C-10.03125 10.53125 -10.03125 10.53125 -10 8.53125 C-10.01546875 7.54125 -10.01546875 7.54125 -10.03125 6.53125 C-8.65240655 1.34030994 -4.94094259 0.02324368 0 0 Z " fill="#000000" transform="translate(65.5,455.46875)"/>
<path d="M0 0 C1.051875 -0.00515625 2.10375 -0.0103125 3.1875 -0.015625 C4.280625 -0.00015625 5.37375 0.0153125 6.5 0.03125 C8.1396875 0.00804687 8.1396875 0.00804687 9.8125 -0.015625 C10.864375 -0.01046875 11.91625 -0.0053125 13 0 C14.43859375 0.00676758 14.43859375 0.00676758 15.90625 0.01367188 C19.21298564 0.673525 20.40908706 1.94238555 22.5 4.53125 C23.03125 6.53125 23.03125 6.53125 23 8.53125 C23.0103125 9.19125 23.020625 9.85125 23.03125 10.53125 C22.2561666 13.44921104 20.80895833 14.6243588 18.5 16.53125 C15.90625 17.04882812 15.90625 17.04882812 13 17.0625 C11.948125 17.06765625 10.89625 17.0728125 9.8125 17.078125 C8.719375 17.06265625 7.62625 17.0471875 6.5 17.03125 C4.8603125 17.05445313 4.8603125 17.05445313 3.1875 17.078125 C2.135625 17.07296875 1.08375 17.0678125 0 17.0625 C-0.9590625 17.05798828 -1.918125 17.05347656 -2.90625 17.04882812 C-6.21298564 16.388975 -7.40908706 15.12011445 -9.5 12.53125 C-10.03125 10.53125 -10.03125 10.53125 -10 8.53125 C-10.01546875 7.54125 -10.01546875 7.54125 -10.03125 6.53125 C-8.65240655 1.34030994 -4.94094259 0.02324368 0 0 Z " fill="#000000" transform="translate(353.5,431.46875)"/>
<path d="M0 0 C1.051875 -0.00515625 2.10375 -0.0103125 3.1875 -0.015625 C4.280625 -0.00015625 5.37375 0.0153125 6.5 0.03125 C8.1396875 0.00804687 8.1396875 0.00804687 9.8125 -0.015625 C10.864375 -0.01046875 11.91625 -0.0053125 13 0 C14.43859375 0.00676758 14.43859375 0.00676758 15.90625 0.01367188 C19.21298564 0.673525 20.40908706 1.94238555 22.5 4.53125 C23.03125 6.53125 23.03125 6.53125 23 8.53125 C23.0103125 9.19125 23.020625 9.85125 23.03125 10.53125 C22.2561666 13.44921104 20.80895833 14.6243588 18.5 16.53125 C15.90625 17.04882812 15.90625 17.04882812 13 17.0625 C11.948125 17.06765625 10.89625 17.0728125 9.8125 17.078125 C8.719375 17.06265625 7.62625 17.0471875 6.5 17.03125 C4.8603125 17.05445313 4.8603125 17.05445313 3.1875 17.078125 C2.135625 17.07296875 1.08375 17.0678125 0 17.0625 C-0.9590625 17.05798828 -1.918125 17.05347656 -2.90625 17.04882812 C-6.21298564 16.388975 -7.40908706 15.12011445 -9.5 12.53125 C-10.03125 10.53125 -10.03125 10.53125 -10 8.53125 C-10.01546875 7.54125 -10.01546875 7.54125 -10.03125 6.53125 C-8.65240655 1.34030994 -4.94094259 0.02324368 0 0 Z " fill="#000000" transform="translate(209.5,431.46875)"/>
<path d="M0 0 C1.051875 -0.00515625 2.10375 -0.0103125 3.1875 -0.015625 C4.280625 -0.00015625 5.37375 0.0153125 6.5 0.03125 C8.1396875 0.00804687 8.1396875 0.00804687 9.8125 -0.015625 C10.864375 -0.01046875 11.91625 -0.0053125 13 0 C14.43859375 0.00676758 14.43859375 0.00676758 15.90625 0.01367188 C19.21298564 0.673525 20.40908706 1.94238555 22.5 4.53125 C23.03125 6.53125 23.03125 6.53125 23 8.53125 C23.0103125 9.19125 23.020625 9.85125 23.03125 10.53125 C22.2561666 13.44921104 20.80895833 14.6243588 18.5 16.53125 C15.90625 17.04882812 15.90625 17.04882812 13 17.0625 C11.948125 17.06765625 10.89625 17.0728125 9.8125 17.078125 C8.719375 17.06265625 7.62625 17.0471875 6.5 17.03125 C4.8603125 17.05445313 4.8603125 17.05445313 3.1875 17.078125 C2.135625 17.07296875 1.08375 17.0678125 0 17.0625 C-0.9590625 17.05798828 -1.918125 17.05347656 -2.90625 17.04882812 C-6.21298564 16.388975 -7.40908706 15.12011445 -9.5 12.53125 C-10.03125 10.53125 -10.03125 10.53125 -10 8.53125 C-10.01546875 7.54125 -10.01546875 7.54125 -10.03125 6.53125 C-8.65240655 1.34030994 -4.94094259 0.02324368 0 0 Z " fill="#000000" transform="translate(65.5,431.46875)"/>
<path d="M0 0 C1.051875 -0.00515625 2.10375 -0.0103125 3.1875 -0.015625 C4.280625 -0.00015625 5.37375 0.0153125 6.5 0.03125 C8.1396875 0.00804687 8.1396875 0.00804687 9.8125 -0.015625 C10.864375 -0.01046875 11.91625 -0.0053125 13 0 C14.43859375 0.00676758 14.43859375 0.00676758 15.90625 0.01367188 C19.21298564 0.673525 20.40908706 1.94238555 22.5 4.53125 C23.03125 6.53125 23.03125 6.53125 23 8.53125 C23.0103125 9.19125 23.020625 9.85125 23.03125 10.53125 C22.2561666 13.44921104 20.80895833 14.6243588 18.5 16.53125 C15.90625 17.04882812 15.90625 17.04882812 13 17.0625 C11.948125 17.06765625 10.89625 17.0728125 9.8125 17.078125 C8.719375 17.06265625 7.62625 17.0471875 6.5 17.03125 C4.8603125 17.05445313 4.8603125 17.05445313 3.1875 17.078125 C2.135625 17.07296875 1.08375 17.0678125 0 17.0625 C-0.9590625 17.05798828 -1.918125 17.05347656 -2.90625 17.04882812 C-6.21298564 16.388975 -7.40908706 15.12011445 -9.5 12.53125 C-10.03125 10.53125 -10.03125 10.53125 -10 8.53125 C-10.01546875 7.54125 -10.01546875 7.54125 -10.03125 6.53125 C-8.65240655 1.34030994 -4.94094259 0.02324368 0 0 Z " fill="#000000" transform="translate(281.5,295.46875)"/>
<path d="M0 0 C1.051875 -0.00515625 2.10375 -0.0103125 3.1875 -0.015625 C4.280625 -0.00015625 5.37375 0.0153125 6.5 0.03125 C8.1396875 0.00804687 8.1396875 0.00804687 9.8125 -0.015625 C10.864375 -0.01046875 11.91625 -0.0053125 13 0 C14.43859375 0.00676758 14.43859375 0.00676758 15.90625 0.01367188 C19.21298564 0.673525 20.40908706 1.94238555 22.5 4.53125 C23.03125 6.53125 23.03125 6.53125 23 8.53125 C23.0103125 9.19125 23.020625 9.85125 23.03125 10.53125 C22.2561666 13.44921104 20.80895833 14.6243588 18.5 16.53125 C15.90625 17.04882812 15.90625 17.04882812 13 17.0625 C11.948125 17.06765625 10.89625 17.0728125 9.8125 17.078125 C8.719375 17.06265625 7.62625 17.0471875 6.5 17.03125 C4.8603125 17.05445313 4.8603125 17.05445313 3.1875 17.078125 C2.135625 17.07296875 1.08375 17.0678125 0 17.0625 C-0.9590625 17.05798828 -1.918125 17.05347656 -2.90625 17.04882812 C-6.21298564 16.388975 -7.40908706 15.12011445 -9.5 12.53125 C-10.03125 10.53125 -10.03125 10.53125 -10 8.53125 C-10.01546875 7.54125 -10.01546875 7.54125 -10.03125 6.53125 C-8.65240655 1.34030994 -4.94094259 0.02324368 0 0 Z " fill="#000000" transform="translate(137.5,295.46875)"/>
<path d="M0 0 C1.051875 -0.00515625 2.10375 -0.0103125 3.1875 -0.015625 C4.280625 -0.00015625 5.37375 0.0153125 6.5 0.03125 C8.1396875 0.00804687 8.1396875 0.00804687 9.8125 -0.015625 C10.864375 -0.01046875 11.91625 -0.0053125 13 0 C14.43859375 0.00676758 14.43859375 0.00676758 15.90625 0.01367188 C19.21298564 0.673525 20.40908706 1.94238555 22.5 4.53125 C23.03125 6.53125 23.03125 6.53125 23 8.53125 C23.0103125 9.19125 23.020625 9.85125 23.03125 10.53125 C22.2561666 13.44921104 20.80895833 14.6243588 18.5 16.53125 C15.90625 17.04882812 15.90625 17.04882812 13 17.0625 C11.948125 17.06765625 10.89625 17.0728125 9.8125 17.078125 C8.719375 17.06265625 7.62625 17.0471875 6.5 17.03125 C4.8603125 17.05445313 4.8603125 17.05445313 3.1875 17.078125 C2.135625 17.07296875 1.08375 17.0678125 0 17.0625 C-0.9590625 17.05798828 -1.918125 17.05347656 -2.90625 17.04882812 C-6.21298564 16.388975 -7.40908706 15.12011445 -9.5 12.53125 C-10.03125 10.53125 -10.03125 10.53125 -10 8.53125 C-10.01546875 7.54125 -10.01546875 7.54125 -10.03125 6.53125 C-8.65240655 1.34030994 -4.94094259 0.02324368 0 0 Z " fill="#000000" transform="translate(281.5,271.46875)"/>
<path d="M0 0 C1.051875 -0.00515625 2.10375 -0.0103125 3.1875 -0.015625 C4.280625 -0.00015625 5.37375 0.0153125 6.5 0.03125 C8.1396875 0.00804687 8.1396875 0.00804687 9.8125 -0.015625 C10.864375 -0.01046875 11.91625 -0.0053125 13 0 C14.43859375 0.00676758 14.43859375 0.00676758 15.90625 0.01367188 C19.21298564 0.673525 20.40908706 1.94238555 22.5 4.53125 C23.03125 6.53125 23.03125 6.53125 23 8.53125 C23.0103125 9.19125 23.020625 9.85125 23.03125 10.53125 C22.2561666 13.44921104 20.80895833 14.6243588 18.5 16.53125 C15.90625 17.04882812 15.90625 17.04882812 13 17.0625 C11.948125 17.06765625 10.89625 17.0728125 9.8125 17.078125 C8.719375 17.06265625 7.62625 17.0471875 6.5 17.03125 C4.8603125 17.05445313 4.8603125 17.05445313 3.1875 17.078125 C2.135625 17.07296875 1.08375 17.0678125 0 17.0625 C-0.9590625 17.05798828 -1.918125 17.05347656 -2.90625 17.04882812 C-6.21298564 16.388975 -7.40908706 15.12011445 -9.5 12.53125 C-10.03125 10.53125 -10.03125 10.53125 -10 8.53125 C-10.01546875 7.54125 -10.01546875 7.54125 -10.03125 6.53125 C-8.65240655 1.34030994 -4.94094259 0.02324368 0 0 Z " fill="#000000" transform="translate(137.5,271.46875)"/>
<path d="M0 0 C1.051875 -0.00515625 2.10375 -0.0103125 3.1875 -0.015625 C4.280625 -0.00015625 5.37375 0.0153125 6.5 0.03125 C8.1396875 0.00804687 8.1396875 0.00804687 9.8125 -0.015625 C10.864375 -0.01046875 11.91625 -0.0053125 13 0 C14.43859375 0.00676758 14.43859375 0.00676758 15.90625 0.01367188 C19.21298564 0.673525 20.40908706 1.94238555 22.5 4.53125 C23.03125 6.53125 23.03125 6.53125 23 8.53125 C23.0103125 9.19125 23.020625 9.85125 23.03125 10.53125 C22.2561666 13.44921104 20.80895833 14.6243588 18.5 16.53125 C15.90625 17.04882812 15.90625 17.04882812 13 17.0625 C11.948125 17.06765625 10.89625 17.0728125 9.8125 17.078125 C8.719375 17.06265625 7.62625 17.0471875 6.5 17.03125 C4.8603125 17.05445313 4.8603125 17.05445313 3.1875 17.078125 C2.135625 17.07296875 1.08375 17.0678125 0 17.0625 C-0.9590625 17.05798828 -1.918125 17.05347656 -2.90625 17.04882812 C-6.21298564 16.388975 -7.40908706 15.12011445 -9.5 12.53125 C-10.03125 10.53125 -10.03125 10.53125 -10 8.53125 C-10.01546875 7.54125 -10.01546875 7.54125 -10.03125 6.53125 C-8.65240655 1.34030994 -4.94094259 0.02324368 0 0 Z " fill="#000000" transform="translate(209.5,135.46875)"/>
<path d="M0 0 C1.051875 -0.00515625 2.10375 -0.0103125 3.1875 -0.015625 C4.280625 -0.00015625 5.37375 0.0153125 6.5 0.03125 C8.1396875 0.00804688 8.1396875 0.00804688 9.8125 -0.015625 C10.864375 -0.01046875 11.91625 -0.0053125 13 0 C14.43859375 0.00676758 14.43859375 0.00676758 15.90625 0.01367188 C19.21298564 0.673525 20.40908706 1.94238555 22.5 4.53125 C23.03125 6.53125 23.03125 6.53125 23 8.53125 C23.0103125 9.19125 23.020625 9.85125 23.03125 10.53125 C22.2561666 13.44921104 20.80895833 14.6243588 18.5 16.53125 C15.90625 17.04882812 15.90625 17.04882812 13 17.0625 C11.948125 17.06765625 10.89625 17.0728125 9.8125 17.078125 C8.719375 17.06265625 7.62625 17.0471875 6.5 17.03125 C4.8603125 17.05445313 4.8603125 17.05445313 3.1875 17.078125 C2.135625 17.07296875 1.08375 17.0678125 0 17.0625 C-0.9590625 17.05798828 -1.918125 17.05347656 -2.90625 17.04882812 C-6.21298564 16.388975 -7.40908706 15.12011445 -9.5 12.53125 C-10.03125 10.53125 -10.03125 10.53125 -10 8.53125 C-10.01546875 7.54125 -10.01546875 7.54125 -10.03125 6.53125 C-8.65240655 1.34030994 -4.94094259 0.02324368 0 0 Z " fill="#000000" transform="translate(209.5,111.46875)"/>
</svg>
