<?xml version="1.0" encoding="UTF-8"?>
<svg version="1.1" xmlns="http://www.w3.org/2000/svg" width="512" height="512">
<path d="M0 0 C0.69802748 -0.00367669 1.39605496 -0.00735338 2.11523479 -0.01114148 C4.45410424 -0.02215384 6.79292922 -0.02601803 9.13182068 -0.02983093 C10.80912415 -0.03609757 12.48642623 -0.04274455 14.16372681 -0.04974365 C19.67318254 -0.07076742 25.18263849 -0.08114633 30.69212341 -0.09111023 C32.59131828 -0.09515879 34.490513 -0.09927575 36.38970757 -0.10346031 C45.31552156 -0.12251043 54.2413273 -0.13674031 63.16715771 -0.14507228 C73.45616703 -0.15483619 83.74496074 -0.18113435 94.03389412 -0.22157317 C101.99501682 -0.2517843 109.95607789 -0.266546 117.91725677 -0.26985329 C122.6678515 -0.2721986 127.41821584 -0.28109088 132.16874886 -0.30631447 C136.64299695 -0.32968697 141.11686447 -0.33379174 145.59115791 -0.32355309 C147.22652455 -0.32305979 148.86191051 -0.32931879 150.49721909 -0.34310913 C161.83080435 -0.43327695 172.88795699 0.13945992 181.56712341 8.38154602 C187.17892592 15.00435211 190.57184112 23.22608181 190.31712341 31.97138977 C189.15145491 41.96027221 184.78815174 48.7931099 177.55149841 55.53388977 C175.06321716 57.14717102 175.06321716 57.14717102 166.06321716 60.14717102 C166.06321716 82.58717102 166.06321716 105.02717102 166.06321716 128.14717102 C180.25321716 128.14717102 194.44321716 128.14717102 209.06321716 128.14717102 C208.94496498 119.86049179 208.94496498 119.86049179 208.79295349 111.57441711 C208.74143784 104.41872704 208.93802744 99.50548982 214.00071716 94.06513977 C214.68134216 93.49408508 215.36196716 92.9230304 216.06321716 92.33467102 C216.74384216 91.75072571 217.42446716 91.1667804 218.12571716 90.56513977 C223.08065498 86.93884455 229.38684621 87.88478958 235.25071716 87.83467102 C236.36253357 87.80566711 237.47434998 87.77666321 238.61985779 87.7467804 C245.29835305 87.69537694 250.58107576 88.08546153 256.06321716 92.14717102 C258.12181091 94.26045227 258.12181091 94.26045227 259.50071716 96.45967102 C259.9738031 97.17767883 260.44688904 97.89568665 260.93431091 98.63545227 C263.73868589 104.874944 263.187981 111.87946143 263.12571716 118.58467102 C263.10509216 121.74029602 263.08446716 124.89592102 263.06321716 128.14717102 C274.61321716 128.14717102 286.16321716 128.14717102 298.06321716 128.14717102 C298.06321716 110.32717102 298.06321716 92.50717102 298.06321716 74.14717102 C293.77321716 73.81717102 289.48321716 73.48717102 285.06321716 73.14717102 C278.46256306 70.82299704 274.29462843 67.44533566 271.06321716 61.14717102 C269.30091482 55.43322145 268.70663913 50.23292587 268.75071716 44.27217102 C268.75563171 43.48495667 268.76054626 42.69774231 268.76560974 41.88667297 C268.91412727 34.49811612 269.62917898 28.17327255 274.37571716 22.27217102 C279.58373521 18.15420326 283.70174994 15.03692842 290.47024536 15 C291.37153671 14.9928447 292.27282806 14.98568939 293.20143127 14.97831726 C294.18795685 14.97562836 295.17448242 14.97293945 296.19090271 14.97016907 C297.23187607 14.96359787 298.27284943 14.95702667 299.34536743 14.95025635 C302.79689097 14.93051558 306.24837096 14.91885839 309.69993591 14.90888977 C311.46810637 14.90277648 311.46810637 14.90277648 313.27199745 14.89653969 C319.5122167 14.87567471 325.75241393 14.86137534 331.99266052 14.852005 C338.43434582 14.84094536 344.87568524 14.80655134 351.31724834 14.76683331 C356.27329139 14.74067093 361.22925202 14.73231343 366.18535805 14.72872353 C368.55956671 14.7238559 370.93377165 14.71223699 373.30791283 14.69368553 C376.63507242 14.66930525 379.96133715 14.67025767 383.28855896 14.67720032 C384.26496338 14.66439026 385.2413678 14.6515802 386.24736023 14.63838196 C393.30928103 14.6919511 398.87844462 16.10995551 404.08665466 21.07685852 C404.53267029 21.71881165 404.97868591 22.36076477 405.43821716 23.02217102 C405.89970154 23.6589679 406.36118591 24.29576477 406.83665466 24.95185852 C410.2968846 31.14500893 410.42885536 36.9694377 410.43821716 43.89717102 C410.46270935 44.83560852 410.48720154 45.77404602 410.51243591 46.74092102 C410.54294814 54.10453746 409.42055662 61.47205869 404.28343201 67.09541321 C397.03497631 73.63404284 390.80071681 74.14717102 381.06321716 74.14717102 C381.06321716 91.96717102 381.06321716 109.78717102 381.06321716 128.14717102 C387.66321716 128.14717102 394.26321716 128.14717102 401.06321716 128.14717102 C410.08511497 132.65811993 410.08511497 132.65811993 412.50071716 136.20967102 C412.9738031 136.88127258 413.44688904 137.55287415 413.93431091 138.24482727 C416.36916808 142.34785647 416.18166065 146.22578831 416.12571716 150.83467102 C416.12120544 151.53656555 416.11669373 152.23846008 416.11204529 152.96162415 C416.10028643 154.6901764 416.0823517 156.41868468 416.06321716 158.14717102 C416.6806781 158.1239679 417.29813904 158.10076477 417.93431091 158.07685852 C426.61509001 157.89187997 434.13449247 158.4502196 441.06321716 164.14717102 C448.06920008 171.20355669 450.16879253 177.88931728 450.20848083 187.8261261 C450.21805061 189.46361565 450.21805061 189.46361565 450.22781372 191.13418579 C450.22948296 192.88278145 450.22948296 192.88278145 450.23118591 194.66670227 C450.23451431 195.87984604 450.23784271 197.09298981 450.24127197 198.34289551 C450.24632682 200.90566123 450.24868074 203.46843352 450.2485199 206.03120422 C450.25070348 209.93520555 450.26886695 213.83892287 450.28782654 217.74287415 C450.2907614 220.23831589 450.29274557 222.73375898 450.29368591 225.22920227 C450.30087143 226.38886002 450.30805695 227.54851776 450.31546021 228.74331665 C450.29022957 237.77328145 449.99984289 245.92695054 444.06321716 253.14717102 C437.04081708 260.1194111 430.56440284 262.19574128 420.68821716 262.20967102 C419.16196716 262.18904602 417.63571716 262.16842102 416.06321716 262.14717102 C416.06321716 267.42717102 416.06321716 272.70717102 416.06321716 278.14717102 C418.37321716 278.47717102 420.68321716 278.80717102 423.06321716 279.14717102 C431.69404354 283.72679318 436.12046092 291.50254662 440.37571716 299.95967102 C440.87353699 300.93089905 441.37135681 301.90212708 441.88426208 302.90278625 C443.62414918 306.31082064 445.34581411 309.7277775 447.06321716 313.14717102 C447.40191833 313.82046448 447.74061951 314.49375793 448.08958435 315.18745422 C452.44330255 323.84230469 456.77940221 332.50587804 461.09197998 341.18130493 C462.75157281 344.5191063 464.41703844 347.85369783 466.09593201 351.18183899 C466.41881699 351.82314255 466.74170197 352.46444611 467.07437134 353.12518311 C467.95551794 354.87404635 468.83876313 356.62185179 469.72215271 358.36958313 C471.62391302 362.30847392 472.22130596 365.24945949 472.25071716 369.58467102 C472.26489685 370.53213196 472.27907654 371.4795929 472.29368591 372.45576477 C472.04834683 375.3208263 471.71802596 376.8065856 470.06321716 379.14717102 C459.30834499 386.8206308 440.47764075 380.85194282 428.39451599 378.94892883 C424.87556638 378.39714738 421.35363107 377.86881386 417.83079529 377.34248352 C415.56039659 376.99232128 413.29020627 376.64080476 411.02024841 376.28779602 C409.46513298 376.05627838 409.46513298 376.05627838 407.87860107 375.82008362 C398.45770479 374.30654648 388.81347218 372.26744002 382.06321716 365.14717102 C380.14258329 362.41199822 378.49339242 359.56958591 376.87571716 356.64717102 C376.45097107 355.90080383 376.02622498 355.15443665 375.58860779 354.38545227 C375.17417419 353.65713196 374.7597406 352.92881165 374.33274841 352.17842102 C373.93241394 351.48256897 373.53207947 350.78671692 373.11961365 350.06977844 C372.06321716 348.14717102 372.06321716 348.14717102 370.77415466 345.16670227 C369.08121746 342.73736599 369.08121746 342.73736599 365.27024841 342.44013977 C363.80619637 342.38051774 362.34093746 342.34618804 360.87571716 342.33467102 C360.12612732 342.3095343 359.37653748 342.28439758 358.60423279 342.25849915 C356.75779095 342.19969527 354.91044714 342.17055368 353.06321716 342.14717102 C353.04903748 342.70662415 353.03485779 343.26607727 353.02024841 343.84248352 C351.92344892 362.28057222 341.75874138 378.84447073 328.72337341 391.40107727 C311.77051904 405.81523465 291.05455374 411.50070795 269.06321716 410.14717102 C248.15631817 407.9247254 230.52445708 397.36907451 216.93821716 381.58467102 C208.80470356 370.93207325 201.06321716 355.89163203 201.06321716 342.14717102 C184.89321716 342.14717102 168.72321716 342.14717102 152.06321716 342.14717102 C151.73321716 345.44717102 151.40321716 348.74717102 151.06321716 352.14717102 C145.77763331 371.83649731 134.18980314 388.79967187 116.55540466 399.27217102 C97.98238126 409.85259612 77.19213542 413.312249 56.33494568 408.12397766 C44.19887392 404.72983575 33.36087094 398.62954545 24.06321716 390.14717102 C23.15056091 389.37179993 23.15056091 389.37179993 22.21946716 388.58076477 C9.72033266 377.24632235 3.03824199 360.35259083 0.06321716 344.14717102 C0.06321716 343.48717102 0.06321716 342.82717102 0.06321716 342.14717102 C-0.65221252 342.16288147 -1.36764221 342.17859192 -2.10475159 342.19477844 C-5.38201322 342.25757849 -8.65914774 342.29630405 -11.93678284 342.33467102 C-13.62481018 342.3723761 -13.62481018 342.3723761 -15.34693909 342.4108429 C-23.34723851 342.48102096 -29.49012384 342.06933843 -35.81178284 336.70967102 C-38.733931 333.18590411 -40.17099243 330.56281907 -40.25904846 325.96455383 C-40.27826355 325.14980591 -40.29747864 324.33505798 -40.317276 323.49562073 C-40.33002563 322.186185 -40.33002563 322.186185 -40.34303284 320.85029602 C-40.35443298 319.94269531 -40.36583313 319.0350946 -40.37757874 318.09999084 C-40.39645215 316.18021792 -40.40953618 314.26038059 -40.41725159 312.3405304 C-40.43662642 309.42074263 -40.49866663 306.50379578 -40.56178284 303.58467102 C-40.57484838 301.71489599 -40.58534718 299.84510091 -40.59303284 297.97529602 C-40.61772644 297.11043579 -40.64242004 296.24557556 -40.66786194 295.35450745 C-40.62685156 289.70154365 -39.32117446 286.34001502 -35.9098053 281.84461975 C-27.45004974 274.56644547 -19.15677245 277.14717102 -7.93678284 277.14717102 C-8.26678284 205.53717102 -8.59678284 133.92717102 -8.93678284 60.14717102 C-13.39178284 58.16717102 -13.39178284 58.16717102 -17.93678284 56.14717102 C-24.89885336 51.55679485 -28.34751862 45.91496367 -30.93678284 38.14717102 C-31.80233154 27.2536223 -31.38214671 18.98030967 -24.32740784 10.12763977 C-17.52335932 2.71497223 -9.87460656 0.03374801 0 0 Z M-12.24928284 21.70967102 C-15.34554579 26.18205084 -15.58641332 29.78771953 -14.93678284 35.14717102 C-12.68231942 39.65609786 -10.43453677 41.95750119 -5.93678284 44.14717102 C-2.60663191 44.59920482 -2.60663191 44.59920482 1.07797241 44.53485107 C1.77221504 44.54023661 2.46645767 44.54562215 3.18173796 44.55117089 C5.50170639 44.56544736 7.82110399 44.55834781 10.14109802 44.55122375 C11.80696063 44.55692751 13.47281934 44.56389179 15.13867188 44.57202148 C19.65935198 44.58996757 24.17983813 44.58878179 28.70054317 44.5830791 C32.47545634 44.57998933 36.25033215 44.58607735 40.02524 44.59211785 C48.93107844 44.60616624 57.83682096 44.60459918 66.74266052 44.59321594 C75.92848568 44.58173424 85.1140189 44.59581053 94.29980558 44.62261242 C102.18870313 44.64476797 110.07750904 44.65140713 117.96643549 44.64553601 C122.67714685 44.64216489 127.38767106 44.64459173 132.09835625 44.66178703 C136.52831825 44.67725179 140.95784771 44.67330596 145.38779259 44.65448189 C147.01234606 44.65079469 148.63693155 44.65390833 150.26145554 44.66436768 C152.48196132 44.67757123 154.70103378 44.66603783 156.92147827 44.64837646 C158.16309188 44.64816718 159.40470549 44.6479579 160.68394375 44.64774227 C165.65404951 43.91152127 168.84698791 41.74085074 171.87571716 37.77217102 C173.93226058 33.22612768 174.44672357 30.43304543 173.00071716 25.58467102 C170.31734285 20.82384563 167.37147583 17.91659058 162.06321716 16.14717102 C159.85745285 16.048729 157.6487797 16.01214113 155.44082642 16.00672913 C154.76462684 16.003758 154.08842727 16.00078688 153.39173681 15.99772573 C151.12100359 15.98903919 148.8503231 15.98753052 146.57957458 15.98603821 C144.95341886 15.98141 143.32726421 15.97638534 141.70111084 15.97099304 C137.27953945 15.95786727 132.85798324 15.95142374 128.43639541 15.94698238 C125.67426267 15.94405194 122.91213408 15.93994718 120.15000343 15.93547821 C111.50878169 15.9218028 102.86756943 15.91213636 94.22633761 15.90827632 C84.2497286 15.90379535 74.27325657 15.88624582 64.29668921 15.85727572 C56.58619251 15.83566272 48.87573436 15.82557224 41.16520768 15.8242352 C36.55955988 15.8231869 31.95404084 15.8172737 27.34842491 15.79941559 C23.01542235 15.7829415 18.68264544 15.78077615 14.34962273 15.7895546 C12.76054022 15.79032533 11.17144562 15.78597747 9.58239365 15.77609634 C7.41018031 15.76338268 5.23876691 15.76924977 3.06655884 15.77967834 C1.85184497 15.77821178 0.6371311 15.77674522 -0.61439228 15.77523422 C-5.64060867 16.33791185 -8.87219137 17.96748858 -12.24928284 21.70967102 Z M286.06321716 34.14717102 C285.6037955 36.31443606 285.6037955 36.31443606 285.66477966 38.70967102 C285.66091248 39.58881165 285.65704529 40.46795227 285.65306091 41.37373352 C285.66466248 42.2889679 285.67626404 43.20420227 285.68821716 44.14717102 C285.6766156 45.0624054 285.66501404 45.97763977 285.65306091 46.92060852 C285.6569281 47.79974915 285.66079529 48.67888977 285.66477966 49.58467102 C285.66816345 50.38775696 285.67154724 51.1908429 285.67503357 52.01826477 C286.16500882 54.70542465 286.94951054 55.45499463 289.06321716 57.14717102 C291.03835582 57.59274544 291.03835582 57.59274544 293.23814392 57.52139282 C294.08776199 57.52840714 294.93738007 57.53542145 295.81274414 57.54264832 C296.74166977 57.53500458 297.6705954 57.52736084 298.62767029 57.51948547 C299.60840012 57.52313614 300.58912994 57.5267868 301.59957886 57.5305481 C304.84804998 57.53866765 308.0960245 57.52503157 311.34446716 57.51045227 C313.59743754 57.50993383 315.85040837 57.5104509 318.1033783 57.51196289 C322.82785281 57.5118731 327.5521569 57.5014304 332.27659607 57.48335266 C338.33979193 57.4606654 344.40273865 57.46012075 350.46596527 57.46687031 C355.11900557 57.47020798 359.77198882 57.46358398 364.42501831 57.45374107 C366.66098736 57.44988531 368.89696276 57.44874241 371.13293457 57.45032692 C374.25500125 57.45069679 377.37674566 57.43809917 380.49876404 57.42182922 C381.89215248 57.42554535 381.89215248 57.42554535 383.31369019 57.42933655 C384.16330826 57.42225174 385.01292633 57.41516693 385.88829041 57.40786743 C386.6264373 57.40581456 387.3645842 57.40376169 388.12509918 57.40164661 C390.38795303 57.24965775 390.38795303 57.24965775 393.06321716 55.14717102 C394.28112826 51.49343774 394.32426392 48.07971116 394.37571716 44.27217102 C394.40472107 43.56447571 394.43372498 42.8567804 394.46360779 42.12763977 C394.50413305 38.7796296 394.20569606 36.41817375 392.64147949 33.44294739 C388.78474661 30.00877542 385.39021074 30.46019776 380.38523865 30.53193665 C378.91392487 30.52361313 378.91392487 30.52361313 377.41288757 30.51512146 C374.16953234 30.50330711 370.92756849 30.52761766 367.68431091 30.55342102 C365.43277042 30.55513155 363.18122794 30.55506703 360.9296875 30.55329895 C356.21106414 30.55495317 351.49291531 30.57367191 346.7743988 30.60517883 C340.71897958 30.64487916 334.66418156 30.64922205 328.60865688 30.641716 C323.95987228 30.6386502 319.31122797 30.65075261 314.66247749 30.66784668 C312.42930544 30.67488907 310.19611749 30.67799972 307.96293449 30.67715454 C304.84559623 30.67894738 301.72900982 30.70028489 298.61180115 30.72724915 C297.22076927 30.72285324 297.22076927 30.72285324 295.80163574 30.71836853 C294.95346283 30.72971832 294.10528992 30.74106812 293.23141479 30.75276184 C292.49456672 30.75649055 291.75771864 30.76021927 290.99854183 30.76406097 C288.50997927 31.25668804 287.61254756 32.17529831 286.06321716 34.14717102 Z M8.06321716 61.14717102 C8.06321716 111.30717102 8.06321716 161.46717102 8.06321716 213.14717102 C23.90321716 213.47717102 39.74321716 213.80717102 56.06321716 214.14717102 C59.06321716 217.14717102 59.06321716 217.14717102 59.50071716 220.58467102 C59.06321716 224.14717102 59.06321716 224.14717102 57.7028656 226.33174133 C53.53177184 229.2004292 49.34194761 228.75093036 44.39134216 228.75654602 C43.47143494 228.7721759 42.55152771 228.78780579 41.60374451 228.8039093 C38.17383001 228.85643393 34.74346062 228.87476308 31.31321716 228.89717102 C23.64071716 228.97967102 15.96821716 229.06217102 8.06321716 229.14717102 C8.06321716 244.98717102 8.06321716 260.82717102 8.06321716 277.14717102 C54.92321716 277.14717102 101.78321716 277.14717102 150.06321716 277.14717102 C150.06321716 261.30717102 150.06321716 245.46717102 150.06321716 229.14717102 C142.31917419 229.07369446 142.31917419 229.07369446 134.41868591 228.99873352 C131.15108799 228.96335456 127.88351691 228.92739884 124.61595154 228.88935852 C119.42775788 228.8290138 114.23960186 228.7708239 109.05125427 228.72529602 C104.8690275 228.68846342 100.68700542 228.64210913 96.50495338 228.58910751 C94.90817665 228.57055276 93.31135602 228.55544879 91.71451378 228.54382706 C89.48051803 228.52698289 87.24699217 228.49795308 85.01316833 228.46601868 C83.7407579 228.45269501 82.46834747 228.43937134 81.15737915 228.42564392 C78.06321716 228.14717102 78.06321716 228.14717102 75.06321716 226.14717102 C74.22749716 222.67571869 73.7062299 220.19067226 74.87571716 216.77217102 C76.06321716 215.14717102 76.06321716 215.14717102 78.06321716 214.14717102 C101.82321716 213.81717102 125.58321716 213.48717102 150.06321716 213.14717102 C150.06321716 162.98717102 150.06321716 112.82717102 150.06321716 61.14717102 C103.20321716 61.14717102 56.34321716 61.14717102 8.06321716 61.14717102 Z M314.06321716 74.14717102 C314.06321716 91.96717102 314.06321716 109.78717102 314.06321716 128.14717102 C330.89321716 128.14717102 347.72321716 128.14717102 365.06321716 128.14717102 C365.06321716 110.32717102 365.06321716 92.50717102 365.06321716 74.14717102 C348.23321716 74.14717102 331.40321716 74.14717102 314.06321716 74.14717102 Z M225.06321716 106.14717102 C224.785563 108.47534307 224.785563 108.47534307 224.86790466 111.15498352 C224.87434998 112.14111633 224.88079529 113.12724915 224.88743591 114.14326477 C224.90419373 115.17580383 224.92095154 116.2083429 224.93821716 117.27217102 C224.9472406 118.31244446 224.95626404 119.3527179 224.96556091 120.42451477 C224.98917849 122.99883099 225.02505032 125.5730294 225.06321716 128.14717102 C231.99321716 128.14717102 238.92321716 128.14717102 246.06321716 128.14717102 C246.11696801 124.52197513 246.15677009 120.89756912 246.18821716 117.27217102 C246.20497498 116.23963196 246.22173279 115.2070929 246.23899841 114.14326477 C246.24544373 113.15713196 246.25188904 112.17099915 246.25852966 111.15498352 C246.2690033 110.24377747 246.27947693 109.33257141 246.29026794 108.39375305 C246.28192709 105.94426666 246.28192709 105.94426666 244.06321716 104.14717102 C241.18979655 103.9486013 238.43459728 103.86888156 235.56321716 103.89717102 C234.7781781 103.88943665 233.99313904 103.88170227 233.18431091 103.87373352 C228.64789465 103.70297205 228.64789465 103.70297205 225.06321716 106.14717102 Z M166.06321716 144.14717102 C166.06321716 188.03717102 166.06321716 231.92717102 166.06321716 277.14717102 C188.59092278 277.31765447 188.59092278 277.31765447 211.11888123 277.44502258 C215.48069763 277.49043274 215.48069763 277.49043274 217.52409363 277.51673889 C218.94802858 277.53133142 220.37205668 277.53812355 221.79606628 277.53871155 C223.95637692 277.54112992 226.11509651 277.56846816 228.27513123 277.60127258 C229.49202637 277.61015503 230.70892151 277.61903748 231.96269226 277.62818909 C235.65326065 278.24593556 236.85157422 279.17633627 239.06321716 282.14717102 C239.55324406 285.50735548 239.52551704 287.35086485 237.81157649 290.30310756 C236.06321716 292.14717102 236.06321716 292.14717102 234.03105676 292.64922637 C233.24595747 292.65020318 232.46085818 292.65117998 231.651968 292.65218639 C230.7444121 292.66301728 229.8368562 292.67384817 228.90179861 292.68500727 C227.40429616 292.67234347 227.40429616 292.67234347 225.87654114 292.65942383 C224.81704337 292.66621951 223.7575456 292.6730152 222.66594183 292.68001682 C219.09812641 292.69804575 215.53095754 292.68748388 211.96311951 292.67720032 C209.41260244 292.68429354 206.86208977 292.69315492 204.31158447 292.70365906 C198.81128219 292.72242398 193.31117704 292.72900468 187.81084824 292.72472191 C179.85721924 292.71863697 171.9037678 292.735474 163.95017476 292.75813184 C151.04515111 292.79436379 138.14016229 292.813506 125.23509216 292.82124329 C112.70024514 292.82880852 100.16543007 292.8419074 87.63059998 292.86421204 C86.85832169 292.86558273 86.08604341 292.86695343 85.29036276 292.86836567 C76.86553157 292.88348229 68.44070423 292.90021101 60.01587868 292.91818714 C58.90637296 292.9205451 58.90637296 292.9205451 57.77445299 292.92295069 C53.3401034 292.93237615 53.3401034 292.93237615 48.90575416 292.9419683 C40.23761947 292.96081102 31.5695082 292.9746728 22.90135397 292.97976396 C16.82736861 292.98337713 10.75339798 292.99134796 4.67941856 293.00083542 C2.18037372 293.00380781 -0.31867387 293.00502885 -2.81772041 293.00442314 C-6.21319466 293.00376135 -9.60860788 293.0090687 -13.0040741 293.01586914 C-14.0068705 293.01411877 -15.00966691 293.0123684 -16.04285109 293.01056498 C-16.9451915 293.01357263 -17.8475319 293.01658028 -18.77721596 293.01967907 C-19.56199054 293.02016882 -20.34676513 293.02065857 -21.15532076 293.02116317 C-22.96142581 292.9533295 -22.96142581 292.9533295 -23.93678284 294.14717102 C-24.02469259 296.43868519 -24.04372322 298.73289626 -24.03443909 301.02607727 C-24.03302414 301.71273972 -24.03160919 302.39940216 -24.03015137 303.10687256 C-24.02453763 305.30784903 -24.01198291 307.50872511 -23.99928284 309.70967102 C-23.9942696 311.19860185 -23.98970639 312.68753426 -23.98561096 314.1764679 C-23.97456377 317.83340177 -23.95728997 321.4902766 -23.93678284 325.14717102 C-23.118607 325.14852755 -22.30043117 325.14988408 -21.45746213 325.15128171 C27.05114002 325.23195922 75.5597136 325.32292508 124.06827102 325.42722263 C129.89479262 325.43974127 135.72131441 325.45217408 141.5478363 325.46455383 C142.70777541 325.46701983 143.86771453 325.46948582 145.06280331 325.47202654 C163.83603923 325.51173326 182.60928115 325.54448984 201.38253453 325.57467084 C220.65045676 325.60580207 239.91835355 325.64441864 259.18624717 325.68996108 C271.07230622 325.71782025 282.95834669 325.73986445 294.84442959 325.75443353 C302.99889013 325.76498838 311.15331466 325.78282434 319.30774804 325.80633806 C324.01001242 325.81968375 328.7122264 325.82986502 333.41451073 325.83138466 C337.72611242 325.83284916 342.03759291 325.84353072 346.34915731 325.86130543 C347.90253431 325.8661248 349.455926 325.8676655 351.0093089 325.86544983 C375.35384763 325.8364457 375.35384763 325.8364457 381.06321716 330.70576477 C381.72321716 331.84142883 382.38321716 332.9770929 383.06321716 334.14717102 C383.46540466 334.83826965 383.86759216 335.52936829 384.28196716 336.2414093 C386.0341451 339.32307897 387.67182751 342.46052676 389.31321716 345.60224915 C389.72571716 346.37117493 390.13821716 347.14010071 390.56321716 347.93232727 C390.92415466 348.62205627 391.28509216 349.31178528 391.65696716 350.02241516 C394.26770361 353.96707476 396.60031772 356.68926557 401.19090271 358.12617493 C402.34888367 358.29036926 403.50686462 358.4545636 404.69993591 358.62373352 C405.99157654 358.81814026 407.28321716 359.012547 408.61399841 359.21284485 C409.99284633 359.39971784 411.37175377 359.58615208 412.75071716 359.77217102 C414.15726534 359.97675577 415.56351705 360.18338895 416.96946716 360.39204407 C419.73835435 360.80141381 422.50832746 361.20152487 425.27952576 361.59492493 C430.74724723 362.39296248 436.18512034 363.34313929 441.62059021 364.3351593 C445.81021896 365.06188249 449.81483619 365.25119066 454.06321716 365.14717102 C452.3261043 359.05693605 449.4119917 353.58571203 446.56321716 347.95967102 C446.0271283 346.8946637 445.49103943 345.82965637 444.93870544 344.7323761 C440.8838271 336.70366895 436.74450371 328.72256582 432.51634216 320.78388977 C430.76385198 317.49053888 429.05238946 314.17887646 427.36009216 310.85420227 C426.68937683 309.54769714 426.68937683 309.54769714 426.00511169 308.21479797 C425.14953668 306.54663289 424.30112868 304.87476545 423.46116638 303.19868469 C420.26538536 296.97138747 420.26538536 296.97138747 414.322999 293.59134483 C411.49347477 293.0351847 408.83078097 293.01589808 405.94577026 293.00914001 C404.69089813 293.00368668 403.436026 292.99823334 402.14312744 292.99261475 C400.75508123 292.99149506 399.36703496 292.99044453 397.97898865 292.98945618 C396.51530302 292.98478636 395.05161883 292.97964252 393.5879364 292.97406006 C390.4378924 292.96279184 387.28785779 292.9543517 384.13780022 292.94794083 C379.15888829 292.93725589 374.18004417 292.91701157 369.20117188 292.89482117 C355.04397167 292.83290748 340.88677621 292.77882993 326.72947693 292.74580383 C318.90915575 292.72748062 311.08894884 292.69857829 303.26871163 292.65779912 C299.12989151 292.636699 294.99121554 292.62126754 290.85233879 292.61899185 C286.96248905 292.61685039 283.07294 292.601033 279.18318176 292.57460213 C277.75411701 292.56738978 276.3250159 292.56531751 274.89593697 292.56870461 C272.9484971 292.5725838 271.00104772 292.55642268 269.05368042 292.53916931 C267.41745554 292.53420409 267.41745554 292.53420409 265.74817562 292.52913857 C263.06321716 292.14717102 263.06321716 292.14717102 261.21591282 290.74376488 C259.785309 288.76224161 259.63031964 287.57727636 259.62571716 285.14717102 C259.59671326 284.12623352 259.59671326 284.12623352 259.56712341 283.08467102 C260.28766199 280.27059911 261.6083443 279.63148895 264.06321716 278.14717102 C266.67937088 277.76241016 266.67937088 277.76241016 269.70732117 277.7484436 C270.85714478 277.73590546 272.00696838 277.72336731 273.19163513 277.71044922 C275.07761414 277.71260185 275.07761414 277.71260185 277.00169373 277.71479797 C278.34217737 277.70577962 279.68265274 277.69545221 281.02311707 277.68391418 C284.65914963 277.65632635 288.29502581 277.64705732 291.93114948 277.64106011 C295.73221349 277.63168103 299.53316047 277.60547805 303.33415222 277.58105469 C310.53052037 277.5373731 317.72686583 277.50883637 324.92332625 277.4857313 C333.11680075 277.45868849 341.31015761 277.41477645 349.50354815 277.36944258 C366.3567106 277.27657256 383.20989847 277.20490266 400.06321716 277.14717102 C400.13325336 260.24911019 400.18617883 243.35109456 400.21865368 226.45292187 C400.23413213 218.60705912 400.25524022 210.76128648 400.28953552 202.91548157 C400.31940807 196.07822734 400.33878505 189.24103835 400.34548265 182.40372068 C400.34939858 178.78234203 400.35862158 175.16115006 400.38040733 171.53983116 C400.40451292 167.50024966 400.40518855 163.46099409 400.40379333 159.42134094 C400.41457916 158.21653076 400.42536499 157.01172058 400.43647766 155.770401 C400.43029167 154.12345497 400.43029167 154.12345497 400.42398071 152.4432373 C400.42674609 151.48733798 400.42951147 150.53143866 400.43236065 149.54657269 C399.98596775 146.6450563 399.3281029 145.94953458 397.06321716 144.14717102 C393.95282613 143.85844811 391.04384421 143.7558639 387.93280029 143.78640747 C386.98693642 143.7838442 386.04107255 143.78128092 385.06654614 143.77863997 C381.88338067 143.77368152 378.70068496 143.79022913 375.51756287 143.80659485 C373.24128735 143.80744067 370.96501101 143.80696685 368.68873596 143.80526733 C362.4968911 143.80440422 356.30521949 143.82208116 350.113415 143.84298921 C343.64716224 143.86170338 337.1809058 143.86350229 330.71463013 143.86706543 C319.85740288 143.8753397 309.00024691 143.89409676 298.14305115 143.92085266 C286.95946059 143.94838427 275.77588743 143.96958784 264.5922699 143.9823761 C263.89603069 143.98318009 263.19979149 143.98398408 262.48245412 143.98481244 C256.42629743 143.99175086 250.37014024 143.99820931 244.31398296 144.00462055 C218.23033439 144.0328561 192.1468547 144.09261542 166.06321716 144.14717102 Z M416.06321716 175.14717102 C416.06321716 198.24717102 416.06321716 221.34717102 416.06321716 245.14717102 C426.88900781 246.06627424 426.88900781 246.06627424 431.27171326 243.48701477 C434.16774438 238.08803606 433.7753076 232.74064223 433.72727966 226.70967102 C433.73206329 225.39684143 433.73684692 224.08401184 433.74177551 222.73139954 C433.74913203 219.95725475 433.73848303 217.183917 433.71507263 214.40986633 C433.68658288 210.86187504 433.70299381 207.31577475 433.73293495 203.76785278 C433.75539421 200.37330906 433.73964875 196.97926841 433.72727966 193.58467102 C433.7424614 191.67826843 433.7424614 191.67826843 433.75794983 189.73335266 C433.69213426 184.78604053 433.63111138 181.20587815 431.27171326 176.80732727 C426.88900781 174.2280678 426.88900781 174.2280678 416.06321716 175.14717102 Z M17.06321716 342.14717102 C17.76426079 356.40172472 25.96171945 369.34631312 36.06321716 379.14717102 C49.05107092 389.84435879 65.18208211 395.66241829 82.06321716 394.14717102 C99.58448734 391.89356617 113.01925638 383.96999909 124.18821716 370.60420227 C130.61822581 361.88766038 134.3637966 352.80717271 136.06321716 342.14717102 C130.12321716 342.14717102 124.18321716 342.14717102 118.06321716 342.14717102 C117.38259216 343.94154602 116.70196716 345.73592102 116.00071716 347.58467102 C111.32688301 358.76237579 104.1605761 367.12373215 93.00071716 371.95967102 C81.98844383 376.431146 71.15417872 376.2170999 60.06321716 372.14717102 C48.95634072 367.06525114 41.62580563 359.8654773 36.95384216 348.43232727 C36.25905474 346.35779691 35.65054623 344.25464589 35.06321716 342.14717102 C29.12321716 342.14717102 23.18321716 342.14717102 17.06321716 342.14717102 Z M52.06321716 342.14717102 C53.9923102 347.93445015 54.76362178 349.34752859 59.06321716 353.14717102 C59.78509216 353.84842102 60.50696716 354.54967102 61.25071716 355.27217102 C67.47452427 359.42137576 74.22429793 360.87045737 81.61399841 359.77998352 C89.03658621 357.86218572 94.90579747 353.58094838 99.06321716 347.14717102 C99.72321716 345.49717102 100.38321716 343.84717102 101.06321716 342.14717102 C84.89321716 342.14717102 68.72321716 342.14717102 52.06321716 342.14717102 Z M218.06321716 342.14717102 C218.76426079 356.40172472 226.96171945 369.34631312 237.06321716 379.14717102 C250.05107092 389.84435879 266.18208211 395.66241829 283.06321716 394.14717102 C301.2022469 391.81410926 315.03661389 383.2435657 326.43821716 369.27217102 C332.14082698 361.03881721 335.59237863 352.00178922 337.06321716 342.14717102 C331.12321716 342.14717102 325.18321716 342.14717102 319.06321716 342.14717102 C318.38259216 343.94154602 317.70196716 345.73592102 317.00071716 347.58467102 C312.32688301 358.76237579 305.1605761 367.12373215 294.00071716 371.95967102 C282.98844383 376.431146 272.15417872 376.2170999 261.06321716 372.14717102 C249.95634072 367.06525114 242.62580563 359.8654773 237.95384216 348.43232727 C237.25905474 346.35779691 236.65054623 344.25464589 236.06321716 342.14717102 C230.12321716 342.14717102 224.18321716 342.14717102 218.06321716 342.14717102 Z M253.06321716 342.14717102 C255.62746719 349.83992109 259.42244325 354.05709711 266.43821716 358.08467102 C276.27554733 360.96802642 283.22885294 360.23595208 292.25071716 355.45967102 C296.6421458 351.84894081 300.25210504 347.58050738 302.06321716 342.14717102 C285.89321716 342.14717102 269.72321716 342.14717102 253.06321716 342.14717102 Z " fill="#000000" transform="translate(39.93678283691406,50.85282897949219)"/>
<path d="M0 0 C0.76045624 -0.00525696 1.52091248 -0.01051392 2.30441284 -0.01593018 C4.79226858 -0.02902291 7.27947292 -0.02043161 9.76733398 -0.01025391 C11.51033144 -0.01227752 13.25332806 -0.01519136 14.99632263 -0.01895142 C18.63841868 -0.02336005 22.28029311 -0.0169902 25.92236328 -0.00292969 C30.57826884 0.01417414 35.23365595 0.00430426 39.88954258 -0.01364708 C43.48503999 -0.02451364 47.08041549 -0.02102565 50.67591667 -0.0132637 C52.39223226 -0.01127029 54.10855911 -0.01369063 55.82486153 -0.02070236 C58.22728729 -0.02836584 60.6288855 -0.01664566 63.03125 0 C64.08270958 -0.00910904 64.08270958 -0.00910904 65.15541077 -0.0184021 C71.47546399 0.06226472 75.96297045 1.66528728 80.76342773 5.82568359 C84.75443882 10.50086801 85.24903769 14.03180939 85.24145508 20.09082031 C85.2481723 20.86205231 85.25488953 21.6332843 85.2618103 22.42788696 C85.28079071 24.97461408 85.2847145 27.52107767 85.28686523 30.06787109 C85.29329318 31.84140124 85.30002153 33.61493033 85.30703735 35.38845825 C85.31901024 39.10567686 85.32271817 42.82280253 85.3215332 46.54003906 C85.32133002 51.29711562 85.34863104 56.05359471 85.38307762 60.81052971 C85.40534411 64.47375206 85.40937082 68.13683058 85.40831375 71.80011368 C85.41067013 73.55356022 85.41949577 75.3070107 85.43497849 77.06039047 C85.45463373 79.5162686 85.44880302 81.97085775 85.43676758 84.42675781 C85.44800659 85.14696106 85.45924561 85.86716431 85.4708252 86.60919189 C85.40808019 91.66231152 84.09411615 94.4817736 80.95092773 98.38818359 C75.75366872 103.07839295 71.78168013 103.54133749 64.99462891 103.56518555 C64.18452866 103.57175674 63.37442841 103.57832794 62.53977966 103.58509827 C59.85781765 103.60481531 57.17591158 103.61648994 54.49389648 103.62646484 C53.11915381 103.63257813 53.11915381 103.63257813 51.71663857 103.63881493 C46.86627045 103.65966827 42.01593058 103.67397351 37.16552734 103.68334961 C32.15848434 103.69441613 27.15188548 103.7288209 22.1449995 103.76852131 C18.29221271 103.79467698 14.43953197 103.80304048 10.5866642 103.80663109 C8.7411022 103.81149929 6.89554501 103.82311994 5.05006981 103.84166908 C2.46482583 103.86603982 -0.11926595 103.86509959 -2.70458984 103.8581543 C-3.46376709 103.87096436 -4.22294434 103.88377441 -5.00512695 103.89697266 C-10.17442743 103.84646667 -13.05418616 102.62037683 -17.04907227 99.38818359 C-22.24642104 93.90209322 -23.29668082 88.52839918 -23.32373047 81.11694336 C-23.3288414 80.4153006 -23.33395233 79.71365784 -23.33921814 78.99075317 C-23.35304141 76.68694366 -23.35216298 74.38343573 -23.34985352 72.07958984 C-23.35374429 70.46825552 -23.35807975 68.85692221 -23.36283875 67.24559021 C-23.37028521 63.87406077 -23.37002102 60.50263608 -23.36474609 57.13110352 C-23.3589519 52.82266352 -23.37588867 48.51465347 -23.39909077 44.20628452 C-23.41386223 40.88015765 -23.41469521 37.55413353 -23.41158104 34.22797966 C-23.41209248 32.64004604 -23.41729686 31.0521064 -23.42739296 29.46420479 C-23.43980757 27.23879614 -23.43293667 25.01421497 -23.42138672 22.78881836 C-23.42201614 21.52562271 -23.42264557 20.26242706 -23.42329407 18.96095276 C-22.79144986 12.92861184 -20.44340425 7.66374985 -16.04907227 3.38818359 C-10.58175417 0.96136488 -6.00213173 -0.05214846 0 0 Z M-7.04907227 18.38818359 C-7.34991352 21.33649727 -7.34991352 21.33649727 -7.29199219 24.84155273 C-7.29389053 25.50348129 -7.29578888 26.16540985 -7.29774475 26.84739685 C-7.30145528 29.0394976 -7.29074563 31.23126845 -7.27954102 33.42333984 C-7.27834937 34.94266216 -7.27789602 36.46198522 -7.27815247 37.98130798 C-7.27658718 41.16654059 -7.26829343 44.35166088 -7.25488281 47.53686523 C-7.23787845 51.62840069 -7.23406885 55.71981278 -7.234828 59.81137943 C-7.23455665 62.94853401 -7.22908146 66.08566138 -7.22182655 69.22280693 C-7.21863522 70.73195629 -7.2166714 72.24110875 -7.21593285 73.75026131 C-7.21377499 75.85496446 -7.20504336 77.95953427 -7.19433594 80.06420898 C-7.19052414 81.26396866 -7.18671234 82.46372833 -7.18278503 83.69984436 C-7.35457883 86.30637938 -7.35457883 86.30637938 -6.04907227 87.38818359 C-3.70653445 87.48311081 -1.39361122 87.51378151 0.94921875 87.50170898 C1.68088257 87.50185501 2.41254639 87.50200104 3.16638184 87.50215149 C5.59589557 87.50145226 8.02533357 87.49365944 10.45483398 87.48583984 C12.13492287 87.4839757 13.8150123 87.48255178 15.49510193 87.48155212 C19.92566417 87.47772667 24.35619383 87.46789615 28.78674316 87.45684814 C33.3043575 87.44663462 37.82197707 87.44205463 42.33959961 87.43701172 C51.21005666 87.4262739 60.08048949 87.40919715 68.95092773 87.38818359 C68.97405318 78.27859195 68.99184385 69.16901034 69.00273991 60.05939579 C69.00796829 55.82986988 69.01506513 51.60036399 69.02636719 47.37084961 C69.03719765 43.29249816 69.0432049 39.21416603 69.04580498 35.13580132 C69.04765894 33.5764072 69.05127901 32.01701419 69.05665779 30.45762825 C69.06387035 28.28089197 69.06491859 26.10423645 69.06445312 23.92749023 C69.06667374 22.68616837 69.06889435 21.4448465 69.07118225 20.16590881 C69.26839784 17.48036659 69.26839784 17.48036659 67.95092773 16.38818359 C65.69185956 16.28323237 63.42946362 16.24960972 61.16796875 16.24291992 C60.45902466 16.23956131 59.75008057 16.2362027 59.01965332 16.23274231 C56.66469596 16.22320543 54.30980948 16.22128783 51.95483398 16.22021484 C50.32437612 16.21700414 48.69391855 16.21364022 47.0634613 16.21012878 C43.64109631 16.20413065 40.2187566 16.20228958 36.79638672 16.20288086 C32.40333541 16.20298252 28.0104456 16.18932966 23.61743259 16.17210865 C20.24862417 16.16100936 16.87985504 16.15896101 13.5110302 16.15949059 C11.89105612 16.15830736 10.27108113 16.15386652 8.65112495 16.14615822 C6.38839419 16.13639993 4.12601728 16.13921966 1.86328125 16.14526367 C0.57390152 16.14383865 -0.71547821 16.14241364 -2.04393005 16.14094543 C-5.16353349 16.07148028 -5.16353349 16.07148028 -7.04907227 18.38818359 Z " fill="#000000" transform="translate(87.049072265625,122.61181640625)"/>
<path d="M0 0 C0.68666245 -0.0087616 1.37332489 -0.01752319 2.08079529 -0.02655029 C4.34552624 -0.04851726 6.60829689 -0.03400407 8.87304688 -0.01708984 C10.44958877 -0.02045883 12.02612812 -0.02531214 13.60266113 -0.03158569 C16.90479288 -0.03895325 20.2062478 -0.02825626 23.50830078 -0.00488281 C27.73900471 0.02360609 31.96812286 0.00720132 36.19876862 -0.02274513 C39.45367358 -0.04082197 42.70820317 -0.03505858 45.96311951 -0.02210617 C47.52282398 -0.01877317 49.08256264 -0.02285562 50.64222717 -0.03450394 C52.82359933 -0.04722054 55.00241209 -0.02783119 57.18359375 0 C58.42395386 0.00397797 59.66431396 0.00795593 60.94226074 0.01205444 C64.09179688 0.64697266 64.09179688 0.64697266 66.50183105 3.05410767 C68.13817945 5.72261187 68.5889695 6.73521871 68.15429688 9.77197266 C68.08339844 10.43455078 68.0125 11.09712891 67.93945312 11.77978516 C66.65186966 14.61602892 64.85455165 15.28819106 62.09179688 16.64697266 C58.98059082 17.02792358 58.98059082 17.02792358 55.453125 17.03515625 C54.48384315 17.04304169 54.48384315 17.04304169 53.49497986 17.05108643 C51.37075227 17.06423056 49.24728136 17.05556897 47.12304688 17.04541016 C45.64001319 17.04743252 44.15698048 17.05034531 42.6739502 17.05410767 C39.57046003 17.05852342 36.46722945 17.05212434 33.36376953 17.03808594 C29.39248237 17.02099419 25.4218035 17.03083943 21.45053864 17.04880333 C18.38954107 17.05966158 15.3286869 17.05618553 12.26768494 17.04841995 C10.80370511 17.04642357 9.33971212 17.04885743 7.87574768 17.05585861 C5.82697226 17.06350713 3.77917185 17.05182315 1.73046875 17.03515625 C0.56640503 17.03276947 -0.59765869 17.03038269 -1.79699707 17.02792358 C-5.24764643 16.6054096 -7.13750277 15.71216259 -9.90820312 13.64697266 C-11.33482531 10.79372828 -11.2185418 8.81242717 -10.90820312 5.64697266 C-7.90708956 0.62148605 -5.73402561 0.01838963 0 0 Z " fill="#000000" transform="translate(325.908203125,268.35302734375)"/>
<path d="M0 0 C0.64589584 -0.0049649 1.29179169 -0.00992981 1.95726013 -0.01504517 C4.0921231 -0.02963944 6.22691177 -0.03646404 8.36181641 -0.04199219 C9.84770713 -0.04774572 11.33359783 -0.05350343 12.81948853 -0.05926514 C15.93483831 -0.06976722 19.05016235 -0.07561512 22.16552734 -0.07910156 C26.15250539 -0.08458585 30.13914186 -0.10861551 34.1260128 -0.13707352 C37.19555651 -0.15572002 40.26501824 -0.16090655 43.3346138 -0.16243744 C44.80419406 -0.16545977 46.27377303 -0.17347419 47.74329758 -0.18662262 C49.80178394 -0.20372662 51.85943966 -0.20179294 53.91796875 -0.1953125 C55.08806488 -0.19895813 56.25816101 -0.20260376 57.4637146 -0.20635986 C60.92656639 0.20090714 62.81140041 1.08832735 65.58837891 3.16113281 C66.43603516 5.02832031 66.43603516 5.02832031 66.65087891 7.03613281 C66.74498047 7.69355469 66.83908203 8.35097656 66.93603516 9.02832031 C66.39956004 12.31950476 64.92657102 13.82575344 62.58837891 16.16113281 C59.43884277 16.79605103 59.43884277 16.79605103 55.68017578 16.80810547 C54.65018211 16.82124786 54.65018211 16.82124786 53.59938049 16.83465576 C51.33464954 16.85662273 49.07187889 16.84210954 46.80712891 16.82519531 C45.23058702 16.8285643 43.65404766 16.83341761 42.07751465 16.83969116 C38.77538291 16.84705872 35.47392799 16.83636173 32.171875 16.81298828 C27.94117107 16.78449938 23.71205292 16.80090415 19.48140717 16.8308506 C16.2265022 16.84892744 12.97197261 16.84316405 9.71705627 16.83021164 C8.15735181 16.82687863 6.59761314 16.83096109 5.03794861 16.84260941 C2.85657645 16.85532601 0.67776369 16.83593666 -1.50341797 16.80810547 C-2.74377808 16.8041275 -3.98413818 16.80014954 -5.26208496 16.79605103 C-8.41162109 16.16113281 -8.41162109 16.16113281 -10.81604004 13.81210327 C-12.75852998 10.58476271 -12.96389481 8.86925632 -12.41162109 5.16113281 C-9.39979095 -0.14542507 -5.69811433 0.03329617 0 0 Z " fill="#000000" transform="translate(327.41162109375,226.8388671875)"/>
<path d="M0 0 C4.78847725 1.48007479 6.64034816 3.71996381 9.17675781 7.99169922 C12.4452365 14.4290192 12.4452365 14.4290192 13.72070312 16.99755859 C14.68469539 18.93187237 15.66954105 20.85453892 16.65625 22.77734375 C17.27733859 24.01497501 17.89717295 25.25323664 18.515625 26.4921875 C19.07668945 27.60835449 19.63775391 28.72452148 20.21582031 29.87451172 C21.50848063 33.24772483 21.8448269 35.48672467 21.4375 39.0625 C18.97709272 42.39128632 17.54139613 43.85551948 13.4375 44.625 C9.68175539 43.92079789 8.22850674 42.65777869 5.4375 40.0625 C3.5847168 37.14916992 3.5847168 37.14916992 1.88671875 33.79296875 C1.58304886 33.193741 1.27937897 32.59451324 0.96650696 31.97712708 C0.33132933 30.7151919 -0.2978046 29.45019825 -0.92114258 28.18237305 C-1.87177245 26.25653853 -2.84932601 24.34618273 -3.83007812 22.43554688 C-4.44698787 21.20135685 -5.06227723 19.96635527 -5.67578125 18.73046875 C-6.23048096 17.61953857 -6.78518066 16.5086084 -7.35668945 15.36401367 C-8.70867813 11.66226376 -8.932454 8.97431829 -8.5625 5.0625 C-5.90798953 1.20139386 -4.7398766 0.08315573 0 0 Z " fill="#000000" transform="translate(447.5625,355.9375)"/>
</svg>
